<?xml version="1.0" encoding="utf-8"?>
<!-- Generator: Adobe Illustrator 22.0.1, SVG Export Plug-In . SVG Version: 6.00 Build 0)  -->
<svg version="1.1" xmlns="http://www.w3.org/2000/svg" xmlns:xlink="http://www.w3.org/1999/xlink" x="0px" y="0px"
	 viewBox="0 0 600 300" style="enable-background:new 0 0 600 300;" xml:space="preserve">
<style type="text/css">
	.st0{fill:#FFFFFF;}
	.st1{display:none;fill:#96D0F0;}
	.st2{fill:#F2F2F2;}
	.st3{fill:#F57263;}
	.st4{fill:none;}
	.st5{fill:#C1C1C1;}
	.st6{fill:#F7F6D7;}
	.st7{fill:#D6D6D6;}
	.st8{fill:none;stroke:#545454;stroke-width:2.0585;stroke-linecap:round;stroke-miterlimit:10;}
	.st9{fill:#696969;}
	.st10{fill:#98DDDF;}
	.st11{fill:#575757;}
	.st12{fill:#3D3D3D;}
	.st13{fill:#8F8F8F;}
	.st14{fill:#1A1A1A;}
	.st15{fill:#E66B5D;}
	.st16{fill:#F5CA7F;}
	.st17{fill:#545454;}
	.st18{fill:#262626;}
	.st19{fill:#E6E6E6;}
	.st20{fill:#4F4F4F;}
	.st21{fill:#121212;}
	.st22{fill:#171717;stroke:#231F20;stroke-width:0.8405;stroke-miterlimit:10;}
	.st23{fill:#D1CECE;}
	.st24{fill:#E2DFDF;}
	.st25{fill:none;stroke:#616161;stroke-width:8.234;stroke-linecap:round;stroke-miterlimit:10;}
	.st26{fill:none;stroke:#7D7D7D;stroke-width:3.4308;stroke-linecap:round;stroke-miterlimit:10;}
	.st27{fill:none;stroke:#D16154;stroke-width:6.2401;stroke-linecap:round;stroke-miterlimit:10;}
	.st28{fill:#4D4D4D;}
	.st29{fill:none;stroke:#D16154;stroke-width:2.3016;stroke-linecap:round;stroke-miterlimit:10;}
	.st30{fill:#CF6054;}
	.st31{fill:#D16154;}
	.st32{fill:#1F1F1F;}
	.st33{fill:none;stroke:#F07061;stroke-width:1.56;stroke-linecap:round;stroke-miterlimit:10;}
	.st34{fill:#004A6B;}
	.st35{fill:#595959;}
	.st36{fill:#4A4A4A;}
	.st37{fill:none;stroke:#171717;stroke-width:2.3862;stroke-linecap:round;stroke-miterlimit:10;}
	.st38{fill:#004361;}
	.st39{fill:#856F53;}
	.st40{fill:#6E5B45;}
	.st41{fill:#B3B3B3;}
	.st42{fill:#FDD0A2;}
	.st43{fill:#F0F0F0;}
	.st44{fill:#82694F;}
	.st45{fill:#333333;}
	.st46{fill:#E38D36;}
	.st47{fill:#0F0F0F;}
	.st48{fill:none;stroke:#E38D36;stroke-width:9.545;stroke-linecap:round;stroke-miterlimit:10;}
	.st49{fill:none;stroke:#F2C79B;stroke-width:7.1587;stroke-linecap:round;stroke-linejoin:round;stroke-miterlimit:10;}
	.st50{fill:none;stroke:#333333;stroke-width:1.7897;stroke-linecap:round;stroke-miterlimit:10;}
	.st51{fill:none;stroke:#171717;stroke-width:2.2882;stroke-linecap:round;stroke-miterlimit:10;}
	.st52{fill:#EDEDED;}
	.st53{fill:#003F5C;}
	.st54{fill:#E8E8E8;}
	.st55{fill:#004F73;}
	.st56{fill:none;stroke:#FDD0A2;stroke-width:7.1587;stroke-linecap:round;stroke-linejoin:round;stroke-miterlimit:10;}
	.st57{fill:#DBDBDB;}
	.st58{fill:none;stroke:#262626;stroke-width:2;stroke-linecap:round;stroke-miterlimit:10;}
	.st59{fill:#292929;}
	.st60{fill:none;stroke:#D6D6D6;stroke-width:2;stroke-linecap:round;stroke-miterlimit:10;}
	.st61{fill:#969596;}
	.st62{fill:#A7A6A8;}
	.st63{fill:none;stroke:#F57263;stroke-linecap:round;stroke-miterlimit:10;}
	.st64{fill:none;stroke:#F57263;stroke-width:2;stroke-linecap:round;stroke-miterlimit:10;}
	.st65{fill:none;stroke:#6FB15F;stroke-width:2;stroke-linecap:round;stroke-miterlimit:10;}
	.st66{fill:none;stroke:#A6A6A6;stroke-width:2;stroke-linecap:round;stroke-miterlimit:10;}
	.st67{fill:none;stroke:#808080;stroke-width:2;stroke-linecap:round;stroke-miterlimit:10;}
	.st68{fill:none;stroke:#8F8F8F;stroke-width:2;stroke-linecap:round;stroke-miterlimit:10;}
	.st69{fill:#6FB15F;}
	.st70{display:none;}
	.st71{display:inline;fill:#FFFFFF;}
</style>
<g id="Layer_2">
	<g>
		<rect x="7" y="7" class="st0" width="582" height="284"/>
	</g>
	<g>
		<rect x="7" y="7" class="st0" width="582" height="284"/>
	</g>
</g>
<g id="Layer_1">
	<rect class="st1" width="600" height="300"/>
	<g>
		<ellipse class="st2" cx="300" cy="231.4" rx="266.2" ry="35.3"/>
		<g>
			<g>
				<path class="st3" d="M119.1,190.2c0.5-9.1,3.4-20.3,4.8-24.7c1.4-4.4,3.1-10.2,6.4-13.5c1.8-1.7,3.6-2.8,5.2-3.6
					c2-5.3,6.1-14.3,14.7-22.2c0.9-0.9,5.6-5.1,12.3-8.6c12.1-6.4,22.1-5.7,56.4-6.3h0c17,0,35.6,0.2,49.9,2
					c2.1,0.3,5.8,0.8,10.4,2.2c1.3,0.4,3.9,1.3,8,3.2c5.6,2.6,10.1,5.2,12.9,7c7,4.4,21.9,14.8,40.8,29.3c0,0,24.4,3.2,32.9,5.9
					c6.3,2,21.3,7.5,28.1,17.7c2.5,3.8,4,7.9,4,7.9c0.6,1.7,1.5,4.8,2,12.5c0.2,3.8,0.4,9,0,15.1c0,0,0,0,0,0c0.2,0.1,2,0.6,2.1,2.3
					c0.1,1.9,0,6.5,0,6.5s-0.2,0.9-0.6,1c-0.3,0.1-9.6,1.5-11.6,1.5c-1.5,0-10.7,0.5-15.4,0.8c1.7-3.7,2.7-7.7,2.7-12.1
					c0-15.8-12.8-28.6-28.6-28.6c-15.8,0-28.6,12.8-28.6,28.6c0,4.4,1,7,2.7,10.7H190.5c0,0-1.8-0.1-4.7-0.2
					c1.7-3.6,2.6-6.1,2.6-10.4c0-15.8-12.8-28.6-28.6-28.6c-15.8,0-28.6,12.8-28.6,28.6c0,2.2,0.3,4.4,0.7,6.4
					c-9.6-2.9-11.7-3.5-12.5-10.5C118.7,202.9,118.9,193.9,119.1,190.2z"/>
				<path class="st4" d="M231,120c0-1.4,1.2-2.6,2.6-2.6c19.4,0.3,26.7,1.2,30.8,1.7c5.6,0.8,9.2,1.6,13,2.9c5,1.7,8.6,3.6,11.6,5.3
					c11.4,6.3,19.5,11.3,26.3,18.2c2.4,2.4,4.7,5.2,3.9,7.5c-0.6,1.7-2.6,2.6-3.9,3c-0.3,0.1-0.5,0.1-0.8,0.1
					c-27-0.9-53.9-1.7-80.9-2.6c-1.4,0-2.5-1.2-2.5-2.6V120z"/>
				<g>
					<path class="st5" d="M368.2,160c10.2,1.1,17.6,4.4,21.9,6.8c0,0,10.5,5.7,14.1,13.8c0.4,0.8,1.3,3,0.4,4.1
						c-0.5,0.6-1.3,0.6-2.6,0.6c-3.9-0.1-6.6-0.2-10-1.9c-0.7-0.4-1.8-0.9-3.3-2c-5.4-3.9-5.6-6.4-9-9.1c-5.9-4.7-11.4-1.6-14.4-6.3
						c-0.3-0.5-1.9-3-0.8-4.7C365.4,159.8,367.9,159.9,368.2,160z"/>
					<path class="st6" d="M388,174c0.1-2.7,1.4-5,3.2-6.6c2.8,1.7,9.8,6.5,12.8,12.9c-1.8,2.1-4.4,3.3-7.3,3.2
						C391.7,183.3,387.8,179,388,174z"/>
					<path class="st7" d="M382.3,170.9c-4.7-0.2-8.3-4.1-8.1-8.8c0-0.4,0.1-0.8,0.1-1.1c7,1.5,12.2,3.9,15.6,5.7
						C388.5,169.3,385.6,171,382.3,170.9z"/>
					<path class="st8" d="M402.9,182.7c0,0-5-8.8-13.4-14.3c-8.4-5.5-20.8-6.7-20.8-6.7"/>
				</g>
				<path class="st9" d="M119.2,226.4H407c3.4,0,6.2-2.8,6.2-6.2l0,0c0-3.4-2.8-6.2-6.2-6.2H119.2c-3.4,0-6.2,2.8-6.2,6.2l0,0
					C113,223.7,115.8,226.4,119.2,226.4z"/>
				<g>
					<path class="st10" d="M224,120c0-1.4,1.2-2.6,2.6-2.6c19.4,0.3,26.7,1.2,30.8,1.7c5.6,0.8,9.2,1.6,13,2.9
						c5,1.7,8.6,3.6,11.6,5.3c11.4,6.3,19.5,11.3,26.3,18.2c2.4,2.4,4.7,5.2,3.9,7.5c-0.6,1.7-2.6,2.6-3.9,3
						c-0.3,0.1-0.5,0.1-0.8,0.1c-27-0.9-53.9-1.7-80.9-2.6c-1.4,0-2.5-1.2-2.5-2.6V120z"/>
					<path class="st11" d="M303.4,152.9c1.5-0.4,2.1-1,2.3-1.4c0.2-0.5-0.2-1.8-3.2-4.9c-6-6.2-13.3-10.8-24.5-17
						c-2.6-1.5-5.9-3.3-10.7-4.9c-3.5-1.2-6.8-1.9-12-2.6c-2.9-0.4-9.5-1.3-29.1-1.6c-0.1,0-0.2,0.1-0.2,0.2v29.4
						c0,0.1,0.1,0.2,0.2,0.2L303.4,152.9L303.4,152.9z"/>
					<g>
						<path class="st12" d="M229,140.4L229,140.4c0.8,0,1.4-0.6,1.4-1.4v-15.2c0-0.8-0.6-1.4-1.4-1.4l0,0c-0.8,0-1.4,0.6-1.4,1.4
							V139C227.6,139.7,228.2,140.4,229,140.4z"/>
						<path class="st12" d="M229,140.4L229,140.4c0.8,0,1.4-0.6,1.4-1.4v-9.8c0-0.8-0.6-1.4-1.4-1.4l0,0c-0.8,0-1.4,0.6-1.4,1.4v9.8
							C227.6,139.7,228.2,140.4,229,140.4z"/>
						<path class="st12" d="M229,140.4L229,140.4c0.8,0,1.4-0.6,1.4-1.4v-2.1c0-0.8-0.6-1.4-1.4-1.4l0,0c-0.8,0-1.4,0.6-1.4,1.4v2.1
							C227.6,139.7,228.2,140.4,229,140.4z"/>
						<path class="st13" d="M229,148.9L229,148.9c0.8,0,1.4-0.6,1.4-1.4v-2.1c0-0.8-0.6-1.4-1.4-1.4l0,0c-0.8,0-1.4,0.6-1.4,1.4v2.1
							C227.6,148.2,228.2,148.9,229,148.9z"/>
					</g>
				</g>
				<g>
					<path class="st10" d="M149.3,139.7c1.8-3,4-6.1,6.9-9c0.8-0.8,4.5-4.6,10-7.7c9.8-5.7,17.9-5.1,45.9-5.6h0c0.6,0,1.2,0,1.9,0
						c1.4,0,2.6,1.3,2.6,2.9v29.9c0,1.6-1.2,2.9-2.7,2.9c-19.8-0.7-39.5-1.4-59.3-2.1C149.4,150.8,146.4,144.4,149.3,139.7z"/>
					<path class="st11" d="M213.9,151c0.3,0,0.5-0.2,0.5-0.6v-29.9c0-0.3-0.2-0.6-0.5-0.6l-1.8,0c-3,0.1-5.8,0.1-8.4,0.1
						c-21.1,0.3-28.2,0.4-36.5,5.2c-4.8,2.8-8.3,6.1-9.5,7.4c-2.5,2.5-4.7,5.4-6.6,8.6c-0.9,1.5-1,3.4-0.2,5
						c0.8,1.6,2.2,2.6,3.8,2.6L213.9,151z"/>
					<g>
						<path class="st12" d="M210.3,140.4L210.3,140.4c0.7,0,1.3-0.6,1.3-1.4v-15.2c0-0.8-0.6-1.4-1.3-1.4l0,0
							c-0.7,0-1.3,0.6-1.3,1.4V139C209,139.7,209.6,140.4,210.3,140.4z"/>
						<path class="st12" d="M210.3,140.4L210.3,140.4c0.7,0,1.3-0.6,1.3-1.4v-9.8c0-0.8-0.6-1.4-1.3-1.4l0,0c-0.7,0-1.3,0.6-1.3,1.4
							v9.8C209,139.7,209.6,140.4,210.3,140.4z"/>
						<path class="st12" d="M210.3,140.4L210.3,140.4c0.7,0,1.3-0.6,1.3-1.4v-2.1c0-0.8-0.6-1.4-1.3-1.4l0,0c-0.7,0-1.3,0.6-1.3,1.4
							v2.1C209,139.7,209.6,140.4,210.3,140.4z"/>
						<path class="st13" d="M210.3,148.9L210.3,148.9c0.7,0,1.3-0.6,1.3-1.4v-2.1c0-0.8-0.6-1.4-1.3-1.4l0,0c-0.7,0-1.3,0.6-1.3,1.4
							v2.1C209,148.2,209.6,148.9,210.3,148.9z"/>
					</g>
				</g>
				<path class="st14" d="M199.5,220.2h117.4c1.3,0,2.4-1.1,2.4-2.4l0,0c0-1.3-1.1-2.4-2.4-2.4H199.5c-1.3,0-2.4,1.1-2.4,2.4l0,0
					C197.1,219.2,198.2,220.2,199.5,220.2z"/>
				<path class="st14" d="M393.9,220.2h11.7c1.3,0,2.4-1.1,2.4-2.4l0,0c0-1.3-1.1-2.4-2.4-2.4h-11.7c-1.3,0-2.4,1.1-2.4,2.4l0,0
					C391.5,219.2,392.6,220.2,393.9,220.2z"/>
				<path class="st14" d="M119.4,220.2h5.4c1.3,0,2.4-1.1,2.4-2.4l0,0c0-1.3-1.1-2.4-2.4-2.4h-5.4c-1.3,0-2.4,1.1-2.4,2.4l0,0
					C117,219.2,118,220.2,119.4,220.2z"/>
				<path class="st15" d="M373.2,202.6h33.2c2.2,0,4-1.8,4-4v-5.9c0-2.2-1.8-4-4-4h-33.2c-2.2,0-4,1.8-4,4v5.9
					C369.3,200.8,371,202.6,373.2,202.6z"/>
				<path class="st15" d="M117.1,203.2H144c2,0,3.7-1.6,3.7-3.7v-7c0-2-1.6-3.7-3.7-3.7h-26.8c-2,0-3.7,1.6-3.7,3.7v7
					C113.5,201.6,115.1,203.2,117.1,203.2z"/>
				<path class="st2" d="M410.4,195.7v2.9c0,2.2-1.8,4-4,4h-33.2c-2.2,0-4-1.8-4-4v-2.9H410.4z"/>
				<g>
					<path class="st16" d="M396.7,211.6h5.8c1.9,0,3.4-1.5,3.4-3.4v0c0-1.9-1.5-3.4-3.4-3.4h-5.8c-1.9,0-3.4,1.5-3.4,3.4v0
						C393.3,210.1,394.8,211.6,396.7,211.6z"/>
					<path class="st17" d="M396.4,208.2h6.5c0.6,0,1.2-0.5,1.2-1.2v0c0-0.6-0.5-1.2-1.2-1.2h-6.5c-0.6,0-1.2,0.5-1.2,1.2v0
						C395.2,207.6,395.7,208.2,396.4,208.2z"/>
				</g>
				<g>
					<path class="st16" d="M119.2,197.9h5.8c1.9,0,3.4-1.5,3.4-3.4v0c0-1.9-1.5-3.4-3.4-3.4h-5.8c-1.9,0-3.4,1.5-3.4,3.4v0
						C115.7,196.4,117.3,197.9,119.2,197.9z"/>
					<path class="st17" d="M118.8,194.4h6.5c0.6,0,1.2-0.5,1.2-1.2v0c0-0.6-0.5-1.2-1.2-1.2h-6.5c-0.6,0-1.2,0.5-1.2,1.2v0
						C117.7,193.9,118.2,194.4,118.8,194.4z"/>
				</g>
				<path class="st18" d="M388.2,194.5h18.2c1.2,0,2.1-0.9,2.1-2.1l0,0c0-1.2-0.9-2.1-2.1-2.1h-18.2c-1.2,0-2.1,0.9-2.1,2.1l0,0
					C386,193.5,387,194.5,388.2,194.5z"/>
				<path class="st19" d="M340,188.8L322.7,214h-9.5c0-23.6,19.1-42.7,42.7-42.7c14.1,0,26.7,6.9,34.4,17.5H340z"/>
				<path class="st19" d="M176.8,188.8l17.3,25.2h9.5c0-23.6-19.1-42.7-42.7-42.7c-14.1,0-26.7,6.9-34.4,17.5H176.8z"/>
				<g>
					<g>
						<path class="st20" d="M327.9,214c0,15.5,12.5,28,28,28c15.5,0,28-12.6,28-28c0-15.5-12.5-28-28-28
							C340.4,186,327.9,198.5,327.9,214z"/>
						<g>
							<path class="st21" d="M355.3,238.6c1,0,1.8-0.8,1.9-1.8c0.1-1-0.7-1.9-1.8-2c-6.1-0.3-11.6-3-15.5-7.6
								c-0.7-0.8-1.9-0.9-2.6-0.2c-0.8,0.7-0.9,1.9-0.2,2.6C341.6,235,348.3,238.3,355.3,238.6C355.3,238.6,355.3,238.6,355.3,238.6
								z"/>
						</g>
						<path class="st22" d="M337.9,214c0,9.9,8.1,18,18,18c9.9,0,18-8.1,18-18c0-9.9-8.1-18-18-18C345.9,196,337.9,204.1,337.9,214z
							"/>
						<path class="st23" d="M342.5,214c0,7.4,6,13.4,13.4,13.4c7.4,0,13.4-6,13.4-13.4c0-7.4-6-13.4-13.4-13.4
							C348.5,200.6,342.5,206.6,342.5,214z"/>
						<path class="st24" d="M345.1,214c0,6,4.8,10.8,10.8,10.8c6,0,10.8-4.8,10.8-10.8c0-6-4.8-10.8-10.8-10.8
							C349.9,203.2,345.1,208.1,345.1,214z"/>
						<path class="st24" d="M348.8,214c0,3.9,3.2,7.1,7.1,7.1c3.9,0,7.1-3.2,7.1-7.1c0-3.9-3.2-7.1-7.1-7.1
							C352,207,348.8,210.1,348.8,214z"/>
					</g>
					<path class="st25" d="M382.3,224.9c1.7-3.7,2.7-7.8,2.7-12.2c0-16-13-29.1-29.1-29.1c-16,0-29,13-29,29.1
						c0,4.7,1.1,9.1,3.1,13.1"/>
					<path class="st26" d="M384.9,212.8c0-2.1-0.2-4.2-0.7-6.3c-2.9-13-14.5-22.8-28.4-22.8"/>
					<path class="st26" d="M326.8,212.8c0-2.1,0.2-4.2,0.7-6.3c1.5-6.9,5.4-12.8,10.8-16.9"/>
				</g>
				<g>
					<g>
						<path class="st20" d="M133.2,214c0,15.5,12.5,28,28,28c15.5,0,28-12.6,28-28c0-15.5-12.5-28-28-28
							C145.7,186,133.2,198.5,133.2,214z"/>
						<g>
							<path class="st21" d="M160.7,238.6c1,0,1.8-0.8,1.9-1.8c0.1-1-0.7-1.9-1.8-2c-6.1-0.3-11.6-3-15.5-7.6
								c-0.7-0.8-1.9-0.9-2.6-0.2c-0.8,0.7-0.9,1.9-0.2,2.6C147,235,153.6,238.3,160.7,238.6C160.6,238.6,160.6,238.6,160.7,238.6z"
								/>
						</g>
						<path class="st22" d="M143.2,214c0,9.9,8.1,18,18,18c9.9,0,18-8.1,18-18c0-9.9-8.1-18-18-18C151.3,196,143.2,204.1,143.2,214z
							"/>
						<path class="st23" d="M147.8,214c0,7.4,6,13.4,13.4,13.4c7.4,0,13.4-6,13.4-13.4c0-7.4-6-13.4-13.4-13.4
							C153.8,200.6,147.8,206.6,147.8,214z"/>
						<path class="st24" d="M150.4,214c0,6,4.8,10.8,10.8,10.8c6,0,10.8-4.8,10.8-10.8c0-6-4.8-10.8-10.8-10.8
							C155.2,203.2,150.4,208.1,150.4,214z"/>
						<path class="st24" d="M154.1,214c0,3.9,3.2,7.1,7.1,7.1c3.9,0,7.1-3.2,7.1-7.1c0-3.9-3.2-7.1-7.1-7.1
							C157.3,207,154.1,210.1,154.1,214z"/>
					</g>
					<path class="st25" d="M187.6,224.9c1.7-3.7,2.7-7.8,2.7-12.2c0-16-13-29.1-29.1-29.1c-16,0-29,13-29,29.1
						c0,4.7,1.1,9.1,3.1,13.1"/>
					<path class="st26" d="M190.3,212.8c0-2.1-0.2-4.2-0.7-6.3c-2.9-13-14.5-22.8-28.4-22.8"/>
					<path class="st26" d="M132.2,212.8c0-2.1,0.2-4.2,0.7-6.3c1.5-6.9,5.4-12.8,10.8-16.9"/>
				</g>
				<path class="st2" d="M317.2,172.4c-5.1,3.5-15.6,12.7-18.5,30.2c-0.9,5.2-5.3,9-10.5,8.9l-52.4-0.3c-5.6,0-10.2-4.1-11.1-9.6
					c-1-6.6-1.9-17.3-1.5-34.2c0.1-4.6,3.8-8.2,8.4-8.2c31.4,0.2,67.6,0.9,82,1.2c3.6,0.1,6.4,3,6.4,6.5l0,0
					C320,169.2,318.9,171.2,317.2,172.4z"/>
				<path class="st27" d="M360.7,171.6c0,0-42.4-5.3-47.5,42.4"/>
				<path class="st27" d="M156.1,171.6c0,0,42.4-5.3,47.5,42.4"/>
				<path class="st16" d="M122.6,175.9h3.3c1.9,0,3.5-1.6,3.5-3.5v-11.6c0-1.9-1.6-3.5-3.5-3.5h-3.3c-3.3,0-6,2.7-6,6v6.6
					C116.6,173.3,119.3,175.9,122.6,175.9z"/>
				<path class="st28" d="M119.5,172.3L119.5,172.3c1.1,0,2-0.9,2-2v-7.4c0-1.1-0.9-2-2-2l0,0c-1.1,0-2,0.9-2,2v7.4
					C117.6,171.4,118.4,172.3,119.5,172.3z"/>
				<path class="st29" d="M261.8,210.6l-26-0.1c-5.6,0-10.2-4-11.1-9.3c-1-6.4-1.9-16.8-1.5-33.1c0.1-4.4,3.8-8,8.4-7.9"/>
				<g>
					<path class="st30" d="M230.8,169.8h11.6c1.4,0,2.6-1.1,2.6-2.6v-0.7c0-1.4-1.1-2.6-2.6-2.6h-11.6c-1.4,0-2.6,1.1-2.6,2.6v0.7
						C228.3,168.6,229.4,169.8,230.8,169.8z"/>
					<path class="st2" d="M245,166.5v0.7c0,1.4-1.1,2.6-2.6,2.6h-11.6c-1.4,0-2.6-1.1-2.6-2.6v-0.7c0-0.1,0-0.2,0-0.3H245
						C245,166.3,245,166.4,245,166.5z"/>
				</g>
				<path class="st31" d="M212.6,211.9h85.8c1.2,0,2.2-1,2.2-2.2l0,0c0-1.2-1-2.2-2.2-2.2h-85.8c-1.2,0-2.2,1-2.2,2.2l0,0
					C210.4,210.9,211.4,211.9,212.6,211.9z"/>
				<path class="st10" d="M340.9,155h-10.3c-4.4,0-8.5-1.9-11.4-5.2c-5.8-6.6-18.1-18.4-38.9-27.7c-1.1-0.5-0.8-2.2,0.5-2.2
					c10.6,0,9.1,0,9.1,0S311.6,130.6,340.9,155z"/>
				<path class="st2" d="M152.1,163.2h62.6c1,0,1.8-0.8,1.8-1.8l0,0c0-1-0.8-1.8-1.8-1.8h-62.6c-1,0-1.8,0.8-1.8,1.8l0,0
					C150.3,162.4,151.1,163.2,152.1,163.2z"/>
				<g>
					<path class="st3" d="M249.4,113.7h10.4c1.8,0,3.3-1.5,3.3-3.3l0,0c0-1.8-1.5-3.3-3.3-3.3h-10.4c-1.8,0-3.3,1.5-3.3,3.3l0,0
						C246.1,112.2,247.6,113.7,249.4,113.7z"/>
					<path class="st32" d="M249.4,107h10.4c1.8,0,3.3,1.5,3.3,3.3h-17C246.1,108.5,247.6,107,249.4,107z"/>
					<line class="st33" x1="263.1" y1="110.4" x2="246.1" y2="110.4"/>
				</g>
				<g>
					<path class="st3" d="M192.5,113.7h10.4c1.8,0,3.3-1.5,3.3-3.3l0,0c0-1.8-1.5-3.3-3.3-3.3h-10.4c-1.8,0-3.3,1.5-3.3,3.3l0,0
						C189.2,112.2,190.7,113.7,192.5,113.7z"/>
					<path class="st32" d="M192.5,107h10.4c1.8,0,3.3,1.5,3.3,3.3h-17C189.2,108.5,190.7,107,192.5,107z"/>
					<line class="st33" x1="206.3" y1="110.4" x2="189.2" y2="110.4"/>
				</g>
				<path class="st3" d="M154.1,121.2l31.4-3.6c1.5-0.2,2.6-1.6,2.5-3.1l0-0.1c-0.2-1.5-1.6-2.6-3.1-2.5l-31.4,3.6
					c-1.5,0.2-2.6,1.6-2.5,3.1l0,0.1C151.2,120.3,152.6,121.4,154.1,121.2z"/>
				<path class="st10" d="M156.5,120.9L156.5,120.9c2.2-0.1,3.4,2.6,1.7,4.1c-5.2,4.6-12.6,12.4-16.1,21.4c-0.8,2.2-3.3,3.3-5.5,2.5
					l-1.4-0.5C135.2,148.4,139.9,132.4,156.5,120.9z"/>
			</g>
			<path class="st3" d="M337.9,167.1L337.9,167.1c-2.2-1.5-2.8-4.5-1.3-6.8l30.4-44.6c1.5-2.2,4.5-2.8,6.8-1.3l0,0
				c2.2,1.5,2.8,4.5,1.3,6.8l-30.4,44.6C343.2,168.1,340.2,168.7,337.9,167.1z"/>
		</g>
		<g>
			<g>
				<path class="st34" d="M439.8,231.8L439.8,231.8c-3.2-0.1-5.8-2.8-5.6-6.1l1.2-34.4c0.1-3.2,2.8-5.8,6.1-5.6l0,0
					c3.2,0.1,5.8,2.8,5.6,6.1l-1.2,34.4C445.8,229.3,443.1,231.9,439.8,231.8z"/>
				<g>
					<path class="st35" d="M434.1,211.6c0,0.1,0,0.1,0,0.2L433,234c-0.2,3.5,2.5,6.4,5.9,6.6c0.1,0,0.2,0,0.3,0c3.3,0,6.1-2.6,6.3-6
						l1.1-22.2c0-0.1,0-0.1,0-0.2L434.1,211.6z"/>
					<g>
						<path class="st20" d="M446.6,213.4C446.6,213.4,446.5,213.4,446.6,213.4l-12.6-0.6c-0.7,0-1.2-0.6-1.1-1.3
							c0-0.7,0.6-1.1,1.2-1.1l12.5,0.6c0.7,0,1.2,0.6,1.1,1.3C447.7,212.9,447.2,213.4,446.6,213.4z"/>
					</g>
					<path class="st35" d="M443.2,240.6h-19.1c-1.1,0-2.1-0.9-2.1-2.1v-1.2c0-4.6,3.8-8.4,8.4-8.4h15.1v9.3
						C445.5,239.6,444.5,240.6,443.2,240.6z"/>
					<path class="st36" d="M445.1,241.2h-22.9c-0.6,0-1.1-0.5-1.1-1.1l0,0c0-0.6,0.5-1.1,1.1-1.1h22.9c0.6,0,1.1,0.5,1.1,1.1l0,0
						C446.2,240.7,445.7,241.2,445.1,241.2z"/>
					<path class="st14" d="M432.7,231c0.8,1.5-0.5,3.9-3.1,5.3c-2.5,1.4-5.3,1.4-6.1-0.1c-0.8-1.5,0.5-3.9,3.1-5.3
						C429.1,229.5,431.9,229.5,432.7,231z"/>
				</g>
			</g>
			<path class="st34" d="M468.2,197.7L468.2,197.7c3.2-0.5,5.4-3.4,5-6.6l-3.1-21.7c-0.5-3.2-3.4-5.4-6.6-5l0,0
				c-3.2,0.5-5.4,3.4-5,6.6l3.1,21.7C462.1,195.9,465,198.2,468.2,197.7z"/>
			<path class="st34" d="M468.9,232.9L468.9,232.9c3.2-0.1,5.8-2.8,5.6-6.1l-1.2-34.4c-0.1-3.2-2.8-5.8-6.1-5.6l0,0
				c-3.2,0.1-5.8,2.8-5.6,6.1l1.2,34.4C463,230.5,465.7,233,468.9,232.9z"/>
			<g>
				<path class="st34" d="M439.3,196.7L439.3,196.7c-3-1.2-4.5-4.6-3.4-7.6l7.9-20.5c1.2-3,4.6-4.5,7.6-3.4l0,0
					c3,1.2,4.5,4.6,3.4,7.6l-7.9,20.4C445.7,196.4,442.3,197.9,439.3,196.7z"/>
				<line class="st37" x1="444" y1="175.1" x2="438.4" y2="189.8"/>
			</g>
			<g>
				<path class="st35" d="M474.1,212.8c0,0.1,0,0.1,0,0.2l1.1,22.2c0.2,3.5-2.5,6.4-5.9,6.6c-0.1,0-0.2,0-0.3,0
					c-3.3,0-6.1-2.6-6.3-6l-1.1-22.2c0-0.1,0-0.1,0-0.2L474.1,212.8z"/>
				<g>
					<path class="st20" d="M461.6,214.6C461.6,214.6,461.6,214.6,461.6,214.6l12.6-0.6c0.7,0,1.2-0.6,1.1-1.3c0-0.7-0.6-1.1-1.2-1.1
						l-12.5,0.6c-0.7,0-1.2,0.6-1.1,1.3C460.5,214.1,461,214.6,461.6,214.6z"/>
				</g>
				<path class="st35" d="M465,241.7h19.1c1.1,0,2.1-0.9,2.1-2.1v-1.2c0-4.6-3.8-8.4-8.4-8.4h-15.1v9.3
					C462.6,240.7,463.7,241.7,465,241.7z"/>
				<path class="st36" d="M463.1,242.3H486c0.6,0,1.1-0.5,1.1-1.1l0,0c0-0.6-0.5-1.1-1.1-1.1h-22.9c-0.6,0-1.1,0.5-1.1,1.1l0,0
					C462,241.8,462.5,242.3,463.1,242.3z"/>
				<path class="st14" d="M475.5,232.2c-0.8,1.5,0.5,3.9,3.1,5.3c2.5,1.4,5.3,1.4,6.1-0.1c0.8-1.5-0.5-3.9-3.1-5.3
					C479.1,230.6,476.3,230.7,475.5,232.2z"/>
			</g>
			<path class="st38" d="M459.8,84.7l-20.1,6.4c-1.6,0.5-2.5,2.3-2,3.9l0,0c0.5,1.6,2.3,2.5,3.9,2l20.1-6.4c1.6-0.5,2.5-2.3,2-3.9
				l0,0C463.2,85.1,461.5,84.2,459.8,84.7z"/>
			<path class="st39" d="M419.9,90L419.9,90c-1.8,0.6-2.8,2.5-2.2,4.3l4.2,13.3c0.6,1.8,2.5,2.8,4.3,2.2l0,0
				c1.8-0.6,2.8-2.5,2.2-4.3l-4.2-13.3C423.6,90.4,421.7,89.4,419.9,90z"/>
			<path class="st39" d="M446.8,81.5L446.8,81.5c-1.8,0.6-2.8,2.5-2.2,4.3l4.2,13.3c0.6,1.8,2.5,2.8,4.3,2.2l0,0
				c1.8-0.6,2.8-2.5,2.2-4.3l-4.2-13.3C450.5,81.9,448.6,80.9,446.8,81.5z"/>
			<g>
				<g>
					<path class="st40" d="M455.2,96.9c0,0-0.5-1.1-1.2-2.8c-0.3-0.8-0.7-1.8-1.1-2.9c-0.2-0.5-0.4-1.1-0.6-1.6
						c-0.2-0.6-0.4-1.1-0.6-1.7c-0.2-0.6-0.4-1.1-0.5-1.7c-0.2-0.6-0.3-1.1-0.5-1.7c-0.2-0.5-0.3-1-0.5-1.4c-0.2-0.4-0.5-0.7-0.9-1
						c-0.3-0.3-0.7-0.4-1-0.5c-0.3-0.1-0.6-0.2-0.9-0.2c-0.3,0-0.5,0-0.6,0c-0.1,0-0.2,0-0.2,0s0.1,0,0.2-0.1c0.1,0,0.1-0.1,0.3-0.1
						c0.1,0,0.2-0.1,0.4-0.1c0.3-0.1,0.6-0.1,1,0c0.4,0.1,0.8,0.2,1.2,0.4c0.4,0.2,0.8,0.6,1.2,1.1c0.3,0.5,0.5,1,0.7,1.6
						c0.2,0.5,0.4,1.1,0.6,1.6c0.2,0.6,0.4,1.1,0.6,1.7c0.2,0.6,0.4,1.1,0.5,1.7c0.2,0.6,0.3,1.1,0.5,1.7c0.3,1.1,0.6,2.1,0.8,3
						C455,95.7,455.2,96.9,455.2,96.9z"/>
				</g>
			</g>
			<path class="st39" d="M445,119.4l-1.8,0.6c-7.9,2.5-16.3-1.9-18.8-9.8l-3.1-9.9c-2.5-7.9,1.9-16.3,9.8-18.8l1.8-0.6
				c7.9-2.5,16.3,1.9,18.8,9.8l3.1,9.9C457.3,108.5,452.9,116.9,445,119.4z"/>
			<path class="st41" d="M453.3,103.9l-25.5,8.1c-1.6,0.5-3.2-0.4-3.7-1.9l-2.4-7.5c-1.7-5.4,1.3-11.2,6.7-12.9l11.9-3.7
				c5.3-1.7,10.9,1.3,12.6,6.5l2.5,7.8C455.7,101.7,454.8,103.4,453.3,103.9z"/>
			<path class="st42" d="M446.5,123.2l-2.4,0.8c-7.3,2.3-15-1.7-17.3-9l-3.6-11.3c-2.3-7.3,1.7-15,9-17.3l2.4-0.8
				c7.3-2.3,15,1.7,17.3,9l3.6,11.3C457.8,113.2,453.7,121,446.5,123.2z"/>
			<g>
				<path class="st42" d="M428.5,110.6c0.6,1.9-0.4,4-2.2,4.6c-1.8,0.6-3.8-0.5-4.4-2.5c-0.6-1.9,0.4-4,2.2-4.6
					C425.9,107.6,427.9,108.7,428.5,110.6z"/>
				<path class="st43" d="M424.5,109.6c-1.1,0.3-1.7,1.6-1.3,2.7c0.4,1.2,1.5,1.8,2.6,1.5L424.5,109.6z"/>
			</g>
			<path class="st42" d="M451.9,103.2c0.6,1.9,2.6,3.1,4.4,2.5c1.8-0.6,2.8-2.6,2.2-4.6c-0.6-1.9-2.6-3.1-4.4-2.5
				C452.2,99.3,451.2,101.3,451.9,103.2z"/>
			<path class="st43" d="M454.5,100.1c1.1-0.3,2.3,0.3,2.6,1.5c0.4,1.2-0.2,2.4-1.3,2.7L454.5,100.1z"/>
			<g>
				<path class="st44" d="M429.4,106.9c-0.5,0.1-0.9-0.2-1.1-0.7c-0.2-0.5,0.1-1.1,0.6-1.3l5.9-2.1c0.5-0.2,1.1,0.1,1.3,0.7
					c0.2,0.5-0.1,1.1-0.6,1.3l-5.9,2.1C429.5,106.9,429.5,106.9,429.4,106.9z"/>
			</g>
			<path class="st35" d="M435.5,107.8c0.2,0.7-0.2,1.4-0.8,1.6c-0.7,0.2-1.4-0.2-1.6-0.8c-0.2-0.7,0.2-1.4,0.8-1.6
				C434.5,106.8,435.2,107.1,435.5,107.8z"/>
			<path class="st35" d="M446.6,104.4c0.2,0.7-0.2,1.4-0.8,1.6c-0.7,0.2-1.4-0.2-1.6-0.8c-0.2-0.7,0.2-1.4,0.8-1.6
				C445.6,103.4,446.3,103.8,446.6,104.4z"/>
			<g>
				<g>
					<path class="st44" d="M447.9,101.2c0.4-0.2,0.7-0.7,0.5-1.2c-0.1-0.6-0.7-0.9-1.2-0.8l-6.1,1.4c-0.5,0.1-0.8,0.7-0.7,1.2
						c0.1,0.6,0.7,0.9,1.2,0.8l6.1-1.4C447.8,101.2,447.8,101.2,447.9,101.2z"/>
				</g>
			</g>
			<g>
				<path class="st0" d="M443.7,118.8c3-1,4.6-4.2,3.6-7.2l-10.8,3.6C437.5,118.1,440.7,119.7,443.7,118.8z"/>
			</g>
			<path class="st45" d="M436.9,111.1c0.2,0.5-1.1,1.3-2.8,1.9c-1.7,0.5-3.2,0.6-3.3,0s1.1-1.3,2.8-1.9
				C435.2,110.6,436.7,110.6,436.9,111.1z"/>
			<path class="st45" d="M450.2,106.9c0.2,0.5-1.1,1.3-2.8,1.9c-1.7,0.5-3.2,0.6-3.3,0c-0.2-0.5,1.1-1.3,2.8-1.9
				C448.6,106.4,450.1,106.4,450.2,106.9z"/>
			<path class="st46" d="M461.8,175.9L461.8,175.9c-8.1,2.6-16.8-1.9-19.4-10.1l-6.9-21.8c-2.6-8.1,1.9-16.8,10.1-19.4l0,0
				c8.1-2.6,16.8,1.9,19.4,10.1l6.9,21.8C474.5,164.7,470,173.4,461.8,175.9z"/>
			<path class="st0" d="M452.4,126.5c0.9,3-0.7,6.2-3.7,7.1c-3,0.9-6.2-0.7-7.1-3.7c-0.9-3,0.7-6.2,3.7-7.1
				C448.2,121.9,451.4,123.5,452.4,126.5z"/>
			<path class="st42" d="M447.7,130.8L447.7,130.8c-2,0.6-4.2-0.5-4.8-2.5l-1.5-4.7c-0.6-2,0.5-4.2,2.5-4.8h0c2-0.6,4.2,0.5,4.8,2.5
				l1.5,4.7C450.9,128,449.8,130.1,447.7,130.8z"/>
			<path class="st39" d="M449,84c1.3,4.2-4.2,9.6-12.4,12.2c-8.1,2.6-15.8,1.3-17.1-2.9c-1.3-4.2,4.2-9.6,12.4-12.2
				C440,78.6,447.7,79.8,449,84z"/>
			<g>
				<path class="st40" d="M446,82.5c0,0,0,0.1,0.1,0.3c0.1,0.2,0.2,0.5,0.2,0.8c0,0.4,0.1,0.8,0,1.3c-0.1,0.5-0.2,1.1-0.5,1.7
					c-0.3,0.6-0.6,1.2-1,1.8c-0.4,0.6-0.9,1.2-1.5,1.7c-0.6,0.5-1.2,1.1-1.9,1.6c-0.7,0.5-1.4,0.9-2.1,1.3c-0.7,0.4-1.5,0.8-2.2,1.1
					c-0.7,0.3-1.5,0.6-2.2,0.8c-0.4,0.1-0.7,0.2-1.1,0.3c-0.4,0.1-0.7,0.2-1.1,0.3c-0.7,0.2-1.4,0.3-2,0.3c-1.2,0.2-2.3,0.2-3,0.2
					c-0.7,0-1.1-0.1-1.1-0.1s0.4-0.1,1.1-0.2c0.7-0.1,1.7-0.4,2.8-0.7c0.6-0.2,1.2-0.4,1.8-0.6c0.3-0.1,0.6-0.2,1-0.4
					c0.3-0.1,0.7-0.2,1-0.4c0.7-0.3,1.4-0.6,2.1-0.9c0.7-0.3,1.4-0.7,2.1-1.1c0.7-0.4,1.4-0.8,2-1.2c0.6-0.4,1.3-0.9,1.8-1.4
					c0.6-0.5,1.1-1,1.5-1.5c0.4-0.5,0.8-1,1.1-1.5c0.3-0.5,0.5-1,0.7-1.4c0.2-0.4,0.2-0.9,0.2-1.2c0-0.3,0-0.6,0-0.8
					C446,82.6,446,82.5,446,82.5z"/>
			</g>
			<g>
				<path class="st40" d="M448.8,87.3c0,0,0,0.1-0.1,0.4c-0.1,0.2-0.2,0.6-0.4,1c-0.1,0.2-0.3,0.4-0.4,0.7c-0.2,0.2-0.3,0.5-0.5,0.8
					c-0.4,0.5-0.9,1.1-1.5,1.7c-0.3,0.3-0.6,0.6-1,0.9c-0.3,0.3-0.7,0.6-1.1,0.8c-0.8,0.6-1.6,1.1-2.5,1.6c-0.9,0.5-1.9,0.9-2.9,1.3
					c-0.5,0.2-1,0.4-1.5,0.5c-0.5,0.2-1,0.3-1.6,0.5c-1.1,0.3-2.1,0.5-3.2,0.6c-1.1,0.1-2.1,0.2-3.2,0.2c-1,0-2-0.1-3-0.3
					c-0.9-0.2-1.8-0.4-2.6-0.7c-0.8-0.3-1.4-0.7-2-1.1c-0.5-0.4-0.9-0.9-1.2-1.3c-0.3-0.4-0.4-0.8-0.5-1c-0.1-0.2-0.1-0.4-0.1-0.4
					s0.1,0.1,0.2,0.3c0.1,0.2,0.3,0.5,0.6,0.9c0.3,0.3,0.7,0.7,1.3,1c0.5,0.3,1.2,0.6,1.9,0.8c0.7,0.2,1.6,0.4,2.5,0.5
					c0.9,0.1,1.8,0.1,2.8,0.1c1,0,2-0.2,3-0.3c1-0.1,2-0.4,3.1-0.6c0.5-0.1,1-0.3,1.5-0.4c0.5-0.2,1-0.3,1.5-0.5
					c1-0.3,1.9-0.7,2.8-1.1c0.9-0.4,1.7-0.9,2.5-1.3c0.8-0.5,1.5-0.9,2.1-1.4c0.2-0.1,0.3-0.2,0.5-0.4c0.1-0.1,0.3-0.2,0.4-0.4
					c0.3-0.2,0.5-0.5,0.8-0.7c0.2-0.2,0.4-0.5,0.6-0.7c0.2-0.2,0.3-0.4,0.5-0.6c0.3-0.4,0.5-0.7,0.6-0.9
					C448.7,87.4,448.8,87.3,448.8,87.3z"/>
			</g>
			<path class="st47" d="M436.8,82.5c1,1.8-1.9,5.3-6.4,7.7c-4.5,2.5-8.9,3-9.9,1.2c-1-1.8,1.9-5.3,6.4-7.7S435.8,80.7,436.8,82.5z"
				/>
			<path class="st34" d="M442.7,166.7c2.9,7.6,11.3,11.7,19.1,9.2l0,0c7.8-2.5,12.3-10.6,10.3-18.5L442.7,166.7z"/>
			<path class="st2" d="M441.7,124.5c0,0,1.6,0,3.8-0.8c2.1,7,2.1,7,2.1,7s-2.7,1-4.5-2.1C442.1,125.7,441.7,124.5,441.7,124.5z"/>
			
				<rect x="444" y="138.9" transform="matrix(0.9535 -0.3014 0.3014 0.9535 -24.4742 143.8918)" class="st34" width="20.1" height="24.8"/>
			<line class="st48" x1="436.3" y1="132.9" x2="430.7" y2="142.7"/>
			<line class="st48" x1="459.9" y1="125.4" x2="469.3" y2="131.6"/>
			<path class="st34" d="M437.6,126.2L437.6,126.2c-1,0.3-1.6,1.4-1.3,2.4l5.2,16.5c0.3,1,1.4,1.6,2.4,1.3v0c1-0.3,1.6-1.4,1.3-2.4
				l-5.2-16.5C439.7,126.5,438.6,125.9,437.6,126.2z"/>
			<path class="st34" d="M453.1,121.3L453.1,121.3c-1,0.3-1.6,1.4-1.3,2.4l5.2,16.5c0.3,1,1.4,1.6,2.4,1.3l0,0
				c1-0.3,1.6-1.4,1.3-2.4l-5.2-16.5C455.2,121.6,454.1,121,453.1,121.3z"/>
			
				<rect x="440.8" y="154.2" transform="matrix(0.9535 -0.3014 0.3014 0.9535 -26.4772 144.8803)" class="st34" width="30.9" height="8.1"/>
			
				<ellipse transform="matrix(0.4573 -0.8893 0.8893 0.4573 103.6909 460.5701)" class="st0" cx="429.2" cy="145.3" rx="4.9" ry="4.9"/>
			<path class="st0" d="M475.4,130.8c0.8,2.6-0.6,5.4-3.2,6.2c-2.6,0.8-5.4-0.6-6.2-3.2c-0.8-2.6,0.6-5.4,3.2-6.2
				C471.9,126.8,474.6,128.2,475.4,130.8z"/>
			<line class="st49" x1="470.5" y1="132.3" x2="476.2" y2="135.4"/>
			<path class="st34" d="M470.4,151.7l-29,9.2c-0.7,0.2-1.5-0.2-1.8-0.9l0,0c-0.2-0.7,0.2-1.5,0.9-1.8l29-9.2
				c0.7-0.2,1.5,0.2,1.8,0.9l0,0C471.5,150.6,471.1,151.4,470.4,151.7z"/>
			<path class="st34" d="M460.8,139.1l-18.9,6c-0.7,0.2-1.5-0.2-1.8-0.9l0,0c-0.2-0.7,0.2-1.5,0.9-1.8l18.9-6
				c0.7-0.2,1.5,0.2,1.8,0.9l0,0C462,138,461.6,138.8,460.8,139.1z"/>
			<path class="st50" d="M435,130.1c-1.2,0.6-2.1,1.6-2.8,2.8l-2.8,5.2"/>
			<line class="st50" x1="437" y1="144.1" x2="440.9" y2="156.4"/>
			<line class="st37" x1="438.7" y1="130.6" x2="441.7" y2="140.1"/>
			<path class="st51" d="M443.9,162.8l1,3c1.9,6,8.3,9.2,14.4,7.3l1.3-0.4"/>
			
				<rect x="440.3" y="156.2" transform="matrix(0.9535 -0.3014 0.3014 0.9535 -26.0872 144.6875)" class="st52" width="30.9" height="1.3"/>
			
				<rect x="441.3" y="142" transform="matrix(0.9535 -0.3014 0.3014 0.9535 -22.0145 142.6754)" class="st52" width="20.1" height="1.3"/>
			<path class="st53" d="M456,152.6l-2.8,0.9c-2.2,0.7-4.6-0.5-5.3-2.8l-1.1-3.4l10.9-3.4l1.1,3.4
				C459.4,149.5,458.2,151.9,456,152.6z"/>
			<path class="st53" d="M458,145.2l-10.7,3.4c-0.5,0.2-1.1-0.1-1.2-0.6l0,0c-0.2-0.5,0.1-1.1,0.6-1.2l10.7-3.4
				c0.5-0.2,1.1,0.1,1.2,0.6l0,0C458.8,144.5,458.6,145.1,458,145.2z"/>
			
				<rect x="447.1" y="146.9" transform="matrix(0.9535 -0.3014 0.3014 0.9535 -23.393 143.3552)" class="st54" width="11.4" height="1.1"/>
			<path class="st34" d="M431.9,76.2l-2.6,0.8c-9,2.8-14,12.5-11.2,21.5l1.5,4.9l35.2-11.1l-1.5-4.9
				C450.6,78.4,440.9,73.4,431.9,76.2z M443.4,94.4l-12.9,4.1l-0.3-0.9c-1.1-3.6,0.8-7.4,4.4-8.5c3.6-1.1,7.4,0.8,8.5,4.4
				L443.4,94.4z"/>
			<path class="st55" d="M454.5,92.9l-34.1,10.8c-0.9,0.3-1.9-0.2-2.2-1.2l0,0c-0.3-0.9,0.2-1.9,1.2-2.2l34.1-10.8
				c0.9-0.3,1.9,0.2,2.2,1.2l0,0C456,91.6,455.4,92.6,454.5,92.9z"/>
			<path class="st51" d="M429.6,79.8L429.6,79.8c-7,2.2-10.9,9.7-8.7,16.7l0.3,0.9"/>
			<line class="st51" x1="421.1" y1="101.6" x2="443" y2="94.7"/>
			<path class="st53" d="M469.8,157.9l-5.1,1.6c-0.4,0.1-0.8-0.1-0.9-0.5l0,0c-0.1-0.4,0.1-0.8,0.5-0.9l5.1-1.6
				c0.4-0.1,0.8,0.1,0.9,0.5l0,0C470.4,157.4,470.2,157.8,469.8,157.9z"/>
			<path class="st53" d="M452.2,163.5l-5.1,1.6c-0.4,0.1-0.8-0.1-0.9-0.5l0,0c-0.1-0.4,0.1-0.8,0.5-0.9l5.1-1.6
				c0.4-0.1,0.8,0.1,0.9,0.5l0,0C452.8,162.9,452.5,163.4,452.2,163.5z"/>
			<path class="st36" d="M456,141.6c0.7,1.2-0.6,3.3-3,4.7c-2.4,1.4-4.8,1.6-5.5,0.4c-0.7-1.2,0.6-3.3,3-4.7
				C452.8,140.6,455.3,140.4,456,141.6z"/>
			<path class="st56" d="M428.6,145.6l-2,4.3c-0.4,0.8-1.3,1.1-2,0.8l-15.8-6.6"/>
			<line class="st56" x1="457.9" y1="144.7" x2="476.2" y2="135.5"/>
			<g>
				<path class="st57" d="M459.8,155.5l-26.4,11.7c-1,0.4-2.1,0-2.6-1l-7.4-16.6c-0.4-1,0-2.1,1-2.6l26.4-11.7c1-0.4,2.1,0,2.6,1
					l7.4,16.6C461.2,154,460.8,155.1,459.8,155.5z"/>
				<path class="st57" d="M444.4,151.3c0,1.3-1,2.3-2.3,2.3c-1.3,0-2.3-1-2.3-2.3c0-1.3,1-2.3,2.3-2.3
					C443.4,149,444.4,150,444.4,151.3z"/>
				<line class="st58" x1="426.4" y1="149" x2="451" y2="138.1"/>
				<line class="st58" x1="433.3" y1="164.5" x2="457.8" y2="153.6"/>
			</g>
			<g>
				<g>
					<path class="st42" d="M446.5,149.8c1.4,3.2,5.7,4.3,9.6,2.5c3.9-1.8,5.8-5.8,4.4-9c-1.4-3.2-5.7-4.3-9.6-2.5
						C447,142.6,445,146.6,446.5,149.8z"/>
				</g>
				<path class="st59" d="M456.6,141.9c0.7,1.3-0.7,3.3-3.1,4.6c-2.4,1.2-4.8,1.2-5.5-0.1c-0.7-1.3,0.7-3.3,3.1-4.6
					C453.5,140.6,455.9,140.6,456.6,141.9z"/>
			</g>
			<g>
				<g>
					<path class="st42" d="M399.2,140c-1.2,3.3,1,7.1,5.1,8.6c4,1.5,8.3,0,9.6-3.2c1.2-3.3-1-7.1-5.1-8.6
						C404.8,135.2,400.5,136.7,399.2,140z"/>
				</g>
				<path class="st59" d="M412.1,141.6c-0.5,1.4-2.9,1.9-5.5,1.1c-2.6-0.8-4.3-2.6-3.8-4c0.5-1.4,2.9-1.9,5.5-1.1
					C410.9,138.4,412.6,140.2,412.1,141.6z"/>
			</g>
			<line class="st60" x1="413.3" y1="139.7" x2="414.8" y2="140.2"/>
			<g>
				<g>
					<path class="st61" d="M413.6,138.8l-1.2,4.1c-0.3,0.9-1.2,1.4-2.1,1.1l-9.2-2.8c-0.9-0.3-1.4-1.2-1.1-2.1l1.2-4.1
						c0.3-0.9,1.2-1.4,2.1-1.1l9.2,2.8C413.4,136.9,413.9,137.9,413.6,138.8z"/>
					<path class="st62" d="M414,137.4l-1.2,4c-0.3,0.9-1.2,1.4-2.1,1.1l-9.2-2.8c-0.9-0.3-1.4-1.2-1.1-2.1l1.2-4
						c0.3-0.9,1.2-1.4,2.1-1.1l9.2,2.8C413.8,135.6,414.3,136.5,414,137.4z"/>
					<path class="st10" d="M406.5,134.9l-1.4,4.5c-0.1,0.2-0.2,0.3-0.4,0.2l-2.7-0.8c-0.2-0.1-0.3-0.2-0.2-0.4l1.4-4.5
						c0.1-0.2,0.2-0.3,0.4-0.2l2.7,0.8C406.5,134.5,406.6,134.7,406.5,134.9z"/>
					<path class="st3" d="M409.8,136.7c0.8,0.2,1.3,1.1,1.1,2s-1.1,1.3-2,1.1c-0.8-0.2-1.3-1.1-1.1-2
						C408.1,137,409,136.5,409.8,136.7z"/>
					<line class="st63" x1="407.3" y1="137.6" x2="408.9" y2="138"/>
				</g>
				<path class="st18" d="M410,141.8L410,141.8c0,0.1-0.1,0.2-0.3,0.1l-8-2.4c-0.1,0-0.2-0.1-0.1-0.3l0,0c0-0.1,0.1-0.2,0.3-0.1
					l8,2.4C410,141.6,410,141.7,410,141.8z"/>
				<path class="st18" d="M409.6,137.6c0.4,0.1,0.6,0.5,0.5,0.8c-0.1,0.4-0.5,0.6-0.8,0.5c-0.4-0.1-0.6-0.5-0.5-0.8
					C408.8,137.7,409.2,137.5,409.6,137.6z"/>
				<g>
					<path class="st18" d="M404,134.5l-1.1,3.8c0,0.1-0.1,0.1-0.2,0.1l0,0c-0.1,0-0.1-0.1-0.1-0.2l1.1-3.8c0-0.1,0.1-0.1,0.2-0.1
						l0,0C404,134.4,404,134.4,404,134.5z"/>
					<path class="st18" d="M404.6,134.7l-1.1,3.8c0,0.1-0.1,0.1-0.2,0.1l0,0c-0.1,0-0.1-0.1-0.1-0.2l1.1-3.8c0-0.1,0.1-0.1,0.2-0.1
						l0,0C404.5,134.5,404.6,134.6,404.6,134.7z"/>
					<path class="st18" d="M405.2,134.9l-1.1,3.8c0,0.1-0.1,0.1-0.2,0.1l0,0c-0.1,0-0.1-0.1-0.1-0.2l1.1-3.8c0-0.1,0.1-0.1,0.2-0.1
						l0,0C405.2,134.7,405.2,134.8,405.2,134.9z"/>
					<path class="st18" d="M405.8,135.1l-1.1,3.8c0,0.1-0.1,0.1-0.2,0.1l0,0c-0.1,0-0.1-0.1-0.1-0.2l1.1-3.8c0-0.1,0.1-0.1,0.2-0.1
						l0,0C405.8,134.9,405.8,135,405.8,135.1z"/>
				</g>
			</g>
			<line class="st64" x1="403.4" y1="141.6" x2="402.8" y2="143.8"/>
			<line class="st65" x1="406.8" y1="142.7" x2="406.1" y2="144.9"/>
			<path class="st66" d="M415.7,140.4L415.7,140.4c0.9,0.3,1.5,1.2,1.5,2.1l-0.7,39.9c0,1.2,1,2.2,2.2,2.2h3.4c1.2,0,2.2-1,2.2-2.2
				v-21.2c0-1,0.7-1.9,1.7-2.1l1.5-0.3"/>
			<path class="st67" d="M405.8,146v54.1c0,5.7-4.6,10.4-10.4,10.4l0,0c-5.7,0-10.4-4.6-10.4-10.4v-43.6c0-2.7-2.2-4.8-4.8-4.8l0,0
				c-2.7,0-4.8,2.2-4.8,4.8v4.8"/>
			<path class="st68" d="M402.6,144.5v40.1c0,3.8-3.1,6.9-6.9,6.9l0,0c-3.8,0-6.9-3.1-6.9-6.9v-18.6v-6.7c0-2.4-2-4.4-4.4-4.4l0,0
				c-2.4,0-4.4,2-4.4,4.4v3.2"/>
			<path class="st69" d="M375.4,162.3L375.4,162.3c-0.8,0-1.5-0.7-1.5-1.5V159c0-0.8,0.7-1.5,1.5-1.5l0,0c0.8,0,1.5,0.7,1.5,1.5v1.8
				C376.8,161.6,376.2,162.3,375.4,162.3z"/>
			<path class="st69" d="M379.9,163.7L379.9,163.7c-0.8,0-1.5-0.7-1.5-1.5v-1.8c0-0.8,0.7-1.5,1.5-1.5l0,0c0.8,0,1.5,0.7,1.5,1.5
				v1.8C381.4,163.1,380.7,163.7,379.9,163.7z"/>
		</g>
	</g>
	<g class="st70">
		<path class="st71" d="M167.5,37.9c4.6,0,9.6,2.5,10.5,8.5c-1.9,0-3.7,0-5.6,0c-0.8-2.3-2.5-3.3-4.9-3.3c-3.3,0-5.5,2.5-5.5,6.2
			c0,3.3,2.2,6.1,5.5,6.2c2.4,0,4.4-1.2,5-3.6c1.9,0,3.7,0,5.6,0c-0.8,6.3-5.8,8.8-10.6,8.8c-5.7,0-11.4-3.8-11.4-11.4
			C156.1,41.7,161.8,37.9,167.5,37.9z"/>
		<path class="st71" d="M195.3,57.6h-8.8l-1.3,2.8h-5.6v-0.8l10-21.8h2.5l10.1,21.8v0.8h-5.6L195.3,57.6z M190.9,46.9l-2.5,5.9h5.1
			L190.9,46.9z"/>
		<path class="st71" d="M224,59.6v0.8h-6.4l-3.8-6.6h-3v6.6c-1.9,0-3.9,0-5.7,0c0-7.4,0-14.8,0-22.3c3.2,0,6.5,0,9.8,0
			c8.8,0,10.4,10.6,4.7,14.4L224,59.6z M214.9,43.2c-1.3,0-2.7,0-4.1,0c0,1.8,0,3.8,0,5.6h4.1C218,48.8,218.1,43.3,214.9,43.2z"/>
		<path class="st71" d="M244.6,60.5h-8.4V38.1h8.4C259.1,38.2,259.1,60.4,244.6,60.5z M241.9,55.3h2.7c7.1,0,7.1-11.9,0-11.9h-2.7
			V55.3z"/>
		<path class="st71" d="M269.3,55.4v5H258v-5h2.8V43.1h-2.6v-5H269v5h-2.6v12.3H269.3z"/>
		<path class="st71" d="M286.4,57.6h-8.8l-1.3,2.8h-5.6v-0.8l10-21.8h2.5l10.1,21.8v0.8h-5.6L286.4,57.6z M281.9,46.9l-2.5,5.9h5.1
			L281.9,46.9z"/>
		<path class="st71" d="M305.7,37.9c4.5,0,9.2,2.4,10.3,7.9h-5.6c-0.9-1.9-2.4-2.7-4.7-2.7c-3.6,0-5.5,2.8-5.5,6.2
			c0,3.7,2.2,6.1,5.5,6.1c2.3,0,3.8-0.6,4.8-2.7h-4.7v-4.9h10.5c0.1,2.2,0.1,4.4-0.6,6.5c-1.6,4.7-5.8,6.4-9.9,6.4
			c-5.7,0-11.4-3.8-11.4-11.4C294.3,41.7,300.1,37.9,305.7,37.9z"/>
		<path class="st71" d="M326.7,49.5v11c-2,0-4,0-5.9,0V38.1h2.1l11.3,11V38.1c1.9,0,3.9,0,5.8,0v22.3h-2L326.7,49.5z"/>
		<path class="st71" d="M344.3,49.3c0-15.4,22.9-15.4,22.9,0C367.2,64.8,344.3,64.8,344.3,49.3z M361.4,49.3c0-8-11.2-8-11.2,0
			C350.2,57.4,361.4,57.4,361.4,49.3z"/>
		<path class="st71" d="M382.4,53.9c0-1.6-1.8-1.9-4.1-2c-4.8-0.4-8-2-8.1-6.8c-0.2-9.6,17.1-9.6,17,0c-2,0-3.5,0-5.4,0
			c0-3-6-2.7-6.2-0.1c-0.1,1.7,1.5,2,3.5,2.3c4.4,0.5,8.8,1.1,8.8,6.7c0,9.4-18.2,9.5-18-0.3c1.9,0,3.6,0,5.5,0
			C375.4,56.5,382.4,56.5,382.4,53.9z"/>
		<path class="st71" d="M389.9,43.2c0-1.7,0-3.4,0-5.1h16.6c0,1.7,0,3.4,0,5.1H401v17.2c-1.9,0-3.8,0-5.6,0V43.2H389.9z"/>
		<path class="st71" d="M419.5,55.4v5h-11.3v-5h2.8V43.1h-2.6v-5h10.9v5h-2.6v12.3H419.5z"/>
		<path class="st71" d="M433.3,37.9c4.6,0,9.6,2.5,10.5,8.5c-1.9,0-3.7,0-5.6,0c-0.8-2.3-2.5-3.3-4.9-3.3c-3.3,0-5.5,2.5-5.5,6.2
			c0,3.3,2.2,6.1,5.5,6.2c2.4,0,4.4-1.2,5-3.6c1.9,0,3.7,0,5.6,0c-0.8,6.3-5.8,8.8-10.6,8.8c-5.7,0-11.4-3.8-11.4-11.4
			C421.9,41.7,427.6,37.9,433.3,37.9z"/>
	</g>
</g>
</svg>
