<?xml version="1.0" encoding="utf-8"?>
<!-- Generator: Adobe Illustrator 22.0.1, SVG Export Plug-In . SVG Version: 6.00 Build 0)  -->
<svg version="1.1" id="Layer_1" xmlns="http://www.w3.org/2000/svg" xmlns:xlink="http://www.w3.org/1999/xlink" x="0px" y="0px"
	 viewBox="0 0 500 500" style="enable-background:new 0 0 500 500;" xml:space="preserve">
<style type="text/css">
	.st0{fill:#FFFFFF;}
	.st1{clip-path:url(#SVGID_2_);}
	.st2{fill:#383838;}
	.st3{fill:#DFE1E1;}
	.st4{fill:#83705D;}
	.st5{fill:#FECA9A;}
	.st6{fill:#F2F2F2;}
	.st7{fill:#F2C79B;}
	.st8{fill:#1C1C1C;}
	.st9{fill:#FFDA73;}
	.st10{fill:#545454;}
	.st11{fill:#736251;}
	.st12{fill:#141414;}
	.st13{fill:#9C846D;}
	.st14{fill:#737373;}
	.st15{fill:#D86A63;}
	.st16{fill:#C4605A;}
	.st17{fill:#CCCCCC;}
	.st18{fill:#1A1A1A;}
	.st19{display:none;}
	.st20{display:inline;}
	.st21{fill:#6CB659;}
	.st22{fill:#B3B3B3;}
	.st23{fill:#613D1F;}
	.st24{fill:#C4C4C4;}
	.st25{fill:#E07875;}
	.st26{fill:#EBEBEB;}
	.st27{fill:#575757;}
	.st28{fill:#0D0D0D;}
	.st29{fill:#4F3219;}
	.st30{opacity:0.2;}
	.st31{fill:#F57263;}
	.st32{fill:none;}
	.st33{fill:#C1C1C1;}
	.st34{fill:#F7F6D7;}
	.st35{fill:#D6D6D6;}
	.st36{fill:#696969;}
	.st37{fill:#98DDDF;}
	.st38{fill:#3D3D3D;}
	.st39{fill:#8F8F8F;}
	.st40{fill:#E66B5D;}
	.st41{fill:#F5CA7F;}
	.st42{fill:#262626;}
	.st43{fill:#E6E6E6;}
	.st44{fill:#4F4F4F;}
	.st45{fill:#121212;}
	.st46{fill:#171717;}
	.st47{fill:#231F20;}
	.st48{fill:#D1CECE;}
	.st49{fill:#E2DFDF;}
	.st50{fill:#616161;}
	.st51{fill:#7D7D7D;}
	.st52{fill:#D16154;}
	.st53{fill:#4D4D4D;}
	.st54{fill:#CF6054;}
	.st55{fill:#1F1F1F;}
	.st56{fill:#F07061;}
	.st57{fill:#FDD0A2;}
	.st58{fill:#DEB68E;}
	.st59{opacity:0.5;fill:#FDD0A2;}
	.st60{opacity:0.3;fill:#FDD0A2;}
	.st61{opacity:0.3;fill:#D8D8D8;}
	.st62{font-family:'Arial-Black';}
	.st63{font-size:18px;}
</style>
<rect class="st0" width="500" height="500"/>
<g>
	<defs>
		<rect id="SVGID_1_" x="47.7" y="41" width="401.3" height="459"/>
	</defs>
	<clipPath id="SVGID_2_">
		<use xlink:href="#SVGID_1_"  style="overflow:visible;"/>
	</clipPath>
	<g class="st1">
		<g>
			<g>
				<g>
					<path class="st2" d="M246.9,730.4c-11.9,0.7-22.8-7.5-25.2-19.6L200.3,599c-5.5-24.6-6.8-49.8-3.7-74.8l9.3-77.2
						c1.6-13.2,13.6-22.7,26.9-21.1c13.2,1.6,22.7,13.6,21.1,26.9l-9.3,77.2c-2.4,19.7-1.4,39.5,3,58.8l0.2,0.8l21.5,112.2
						c2.5,13.1-6.1,25.8-19.2,28.3C249,730.2,248,730.3,246.9,730.4z"/>
				</g>
			</g>
		</g>
		<g>
			<g>
				<g>
					<path class="st2" d="M305.9,732c-13.3,0-24.1-10.5-24.1-23.5V458.1c0-13,10.8-23.5,24.1-23.5c13.3,0,24.1,10.5,24.1,23.5v250.3
						C330.1,721.5,319.2,732,305.9,732z"/>
				</g>
			</g>
		</g>
		<g>
			<g>
				<g>
					
						<ellipse transform="matrix(0.4059 -0.9139 0.9139 0.4059 -244.3146 507.1228)" class="st2" cx="267.9" cy="441.5" rx="63.8" ry="63.8"/>
				</g>
			</g>
		</g>
		<g>
			<g>
				<g>
					<path class="st3" d="M264.2,464.9L264.2,464.9c-30.1-0.8-53.9-25.8-53.3-55.9l1.5-89.3c0.8-30.3,26-54.1,56.3-53.3l0,0
						c30.3,0.8,54.1,26,53.3,56.3l-1.5,88.6C319.9,441.6,294.7,465.7,264.2,464.9z"/>
				</g>
			</g>
		</g>
		<g>
			<g>
				<g>
					<path class="st3" d="M264.3,464.9L264.3,464.9c-33.1-0.9-59.4-26.3-58.8-56.8l1.5-90.5c0.8-30.7,28.5-54.8,61.7-53.9l0,0
						c33.3,0.9,59.6,26.5,58.8,57.2l-1.5,89.8C325.4,441.4,297.7,465.8,264.3,464.9z"/>
				</g>
			</g>
		</g>
		<g>
			<g>
				<g>
					<g>
						<g>
							<path class="st4" d="M325.3,407.9c0,0,0.1,0.7,0.3,2c0.2,1.3,0.5,3.3,0.5,5.8c0.1,5-0.7,12.5-4.5,20.9
								c-3.7,8.3-10.7,17.5-21.1,24.2c-5.1,3.4-11,6.1-17.3,7.9c-6.4,1.9-12.9,2.7-19.9,2.6c-2.7-0.1-6.6-0.4-9.7-0.9
								c-3.3-0.5-6.4-1.4-9.5-2.3c-6.1-2-11.8-4.9-16.7-8.3c-9.9-6.9-16.4-16-19.8-24.3c-3.4-8.4-3.9-15.9-3.5-20.9
								c0.1-2.5,0.5-4.5,0.8-5.8c0.3-1.3,0.5-2,0.5-2s0.2,0.7,0.5,2c0.3,1.3,0.8,3.1,1.5,5.4c1.4,4.6,4,10.9,8.6,17.2
								c4.6,6.3,11.2,12.6,19.6,17.3c4.2,2.3,8.8,4.2,13.6,5.5c2.4,0.7,4.9,1.1,7.4,1.5c2.7,0.4,4.6,0.5,7.8,0.6
								c4.7,0.1,10.1-0.5,14.9-1.6c4.9-1.2,9.6-2.9,13.9-5.1c8.6-4.4,15.5-10.7,20.4-17c4.9-6.3,7.8-12.6,9.5-17.1
								c0.8-2.3,1.4-4.1,1.8-5.4C325.1,408.6,325.3,407.9,325.3,407.9z"/>
						</g>
					</g>
				</g>
			</g>
		</g>
		<g>
			<g>
				<g>
					<g>
						<g>
							<path class="st2" d="M287.4,274.4c0,0,0.1,0.2,0.4,0.7c0.2,0.5,0.6,1.1,0.9,2c0.6,1.9,1.2,4.7,0.7,8.2
								c-0.2,1.7-0.7,3.7-1.5,5.6c-0.8,1.9-2,3.8-3.5,5.6c-1.6,1.7-3.5,3.3-5.7,4.6c-1.1,0.5-2.2,1.2-3.5,1.5
								c-0.6,0.2-1.2,0.4-1.8,0.5l-0.9,0.2l-0.5,0.1l-0.2,0.1l-0.1,0l-0.4,0.1c-1.7,0.2-5.1,0.3-7.4-0.2c-2.5-0.5-4.8-1.5-6.8-2.6
								c-2-1.2-3.7-2.7-5.1-4.3c-1.4-1.6-2.4-3.2-3.1-4.8c-1.5-3.2-1.9-6.1-1.8-8c-0.1-1,0.2-1.7,0.2-2.2c0.1-0.5,0.1-0.8,0.1-0.8
								s0.6,1,1.6,2.5c0.5,0.8,1.1,1.6,1.9,2.5c0.8,0.9,1.7,1.8,2.7,2.8c2,1.8,4.6,3.5,7.5,4.5c1.4,0.5,2.9,0.8,4.4,1
								c1.7,0.1,2.4,0.2,4.8-0.2c-0.5,0.1-0.1,0-0.2,0l0,0l0,0l0.1,0l0.1,0l0.3-0.1l0.6-0.1c0.4,0,0.7-0.2,1.1-0.3
								c0.7-0.2,1.4-0.5,2.2-0.7c1.4-0.6,2.7-1.4,3.9-2.3c2.4-1.9,4.4-4.2,5.7-6.6c0.6-1.2,1.2-2.4,1.7-3.5c0.4-1.1,0.8-2.1,1-3
								c0.3-0.8,0.4-1.6,0.5-2.1C287.3,274.6,287.4,274.4,287.4,274.4z"/>
						</g>
					</g>
				</g>
			</g>
		</g>
		<g>
			<g>
				<g>
					<path class="st0" d="M288.8,274.1c1.8,11.7-6.3,22.7-18.1,24.5c-11.8,1.8-22.9-6.2-24.7-17.9c-1.8-11.7,6.3-22.7,18.1-24.5
						C275.9,254.4,287,262.4,288.8,274.1z"/>
				</g>
			</g>
		</g>
		<g>
			<g>
				<g>
					<path class="st5" d="M267.8,288.3L267.8,288.3c-9.5-0.1-17.1-7.9-16.9-17.4l0.3-19.1l34.3,0.5l-0.3,19.1
						C285,280.8,277.3,288.4,267.8,288.3z"/>
				</g>
			</g>
		</g>
		<g>
			<g>
				<g>
					<path class="st6" d="M285.3,259.6l-2.9,0.8c-7.1,1.7-14.4,1.7-21.6,0.4l-5-0.9c0,0,12.4,15.2,29,11.5
						C285.2,259.4,285.3,259.6,285.3,259.6z"/>
				</g>
			</g>
		</g>
		<path class="st7" d="M98.8,226.4L98.8,226.4c1.2,2.6,4.3,3.7,6.9,2.5l13.7-6.3c2.6-1.2,3.7-4.3,2.5-6.9l0,0
			c-1.2-2.6-4.3-3.7-6.9-2.5l-13.7,6.3C98.7,220.7,97.6,223.8,98.8,226.4z"/>
		<g>
			<g>
				<g>
					<path class="st2" d="M268,311.4l-1.8-0.1c-3.4-0.1-6.1-3-6-6.4l0.2-5.6c0.1-3.4,3-6.1,6.4-6l1.8,0.1c3.4,0.1,6.1,3,6,6.4
						l-0.2,5.6C274.3,308.8,271.4,311.5,268,311.4z"/>
				</g>
			</g>
		</g>
		<g>
			<g>
				<g>
					<path class="st8" d="M270.2,308.5L270.2,308.5c-1.6,0-2.8-1.3-2.8-2.9l0.1-5.5c0-1.6,1.3-2.8,2.9-2.8l0,0
						c1.6,0,2.8,1.3,2.8,2.9l-0.1,5.5C273,307.3,271.7,308.5,270.2,308.5z"/>
				</g>
			</g>
		</g>
		<g>
			<g>
				<g>
					<g>
						<path class="st9" d="M277.4,472.1l-20.2,0.5c-4.2,0.1-7.7-3.2-7.8-7.4l-0.2-7.4c-0.1-4.2,3.2-7.7,7.4-7.8l20.2-0.5
							c4.2-0.1,7.7,3.2,7.8,7.4l0.2,7.4C284.9,468.5,281.6,472,277.4,472.1z"/>
					</g>
				</g>
			</g>
			<g>
				<g>
					<g>
						<path class="st10" d="M276.7,459.9l-19.3,0.7c-2,0.1-3.7-1.5-3.7-3.5l0,0c-0.1-2,1.5-3.7,3.5-3.7l19.3-0.7
							c2-0.1,3.7,1.5,3.7,3.5l0,0C280.3,458.1,278.7,459.8,276.7,459.9z"/>
					</g>
				</g>
			</g>
		</g>
		<g>
			<g>
				<g>
					<path class="st2" d="M267.2,407.6L267.2,407.6c-2.4,0-4.3-1.9-4.3-4.3v-93.6h8.6v93.6C271.5,405.7,269.6,407.6,267.2,407.6z"/>
				</g>
			</g>
		</g>
		<g>
			<g>
				<g>
					<g>
						<path class="st11" d="M281.9,710.4v16.3c0,3.1,2.5,5.7,5.7,5.7h68.6c5.5,0,8.3-6.6,4.4-10.6
							C348.9,710,324.1,694.4,281.9,710.4z"/>
					</g>
				</g>
			</g>
			<g>
				<g>
					<g>
						<path class="st12" d="M319,708c-0.7,2.3,5.8,6.2,14.5,8.7c8.7,2.5,16.3,2.8,17,0.5c0.7-2.3-5.8-6.2-14.5-8.7
							C327.3,705.9,319.7,705.7,319,708z"/>
					</g>
				</g>
			</g>
			<g>
				<g>
					<g>
						<path class="st13" d="M283.9,731.1c0,2,17.1,3.6,38.2,3.6c21.1,0,38.2-1.6,38.2-3.6c0-2-17.1-3.6-38.2-3.6
							C301,727.5,283.9,729.1,283.9,731.1z"/>
					</g>
				</g>
			</g>
		</g>
		<g>
			<g>
				<g>
					<g>
						<path class="st11" d="M269.6,709v16.3c0,3.1-2.5,5.7-5.7,5.7h-68.6c-5.5,0-8.3-6.6-4.4-10.6C202.6,708.6,227.4,693,269.6,709z
							"/>
					</g>
				</g>
			</g>
			<g>
				<g>
					<g>
						<path class="st12" d="M232.5,706.6c0.7,2.3-5.8,6.2-14.5,8.7c-8.7,2.5-16.3,2.8-17,0.5c-0.7-2.3,5.8-6.2,14.5-8.7
							C224.2,704.5,231.8,704.3,232.5,706.6z"/>
					</g>
				</g>
			</g>
			<g>
				<g>
					<g>
						<path class="st13" d="M267.7,729.7c0,2-17.1,3.6-38.2,3.6c-21.1,0-38.2-1.6-38.2-3.6c0-2,17.1-3.6,38.2-3.6
							C250.6,726,267.7,727.7,267.7,729.7z"/>
					</g>
				</g>
			</g>
		</g>
		<g>
			<g>
				<g>
					<path class="st3" d="M231.1,278.4c-0.9,3.7-3.2,7-6.5,9.3l-88,60c-7.3,5-17.4,3.1-22.4-4.2c-5-7.3-3.1-17.4,4.2-22.4l88-60
						c7.3-5,17.4-3.1,22.4,4.2C231.5,269.3,232.2,274.1,231.1,278.4z"/>
				</g>
			</g>
		</g>
		<g>
			<g>
				<g>
					<g>
						<path class="st14" d="M176.7,409.9H69c-6.6,0-12-5.4-12-12v-159c0-6.6,5.4-12,12-12h107.8c6.6,0,12,5.4,12,12v159
							C188.7,404.5,183.4,409.9,176.7,409.9z"/>
					</g>
				</g>
			</g>
			<g>
				<g>
					<g>
						<path class="st0" d="M173.3,396.6h-101c-2.7,0-4.9-2.2-4.9-4.9V245.2c0-2.7,2.2-4.9,4.9-4.9h101c2.7,0,4.9,2.2,4.9,4.9v146.5
							C178.2,394.4,176,396.6,173.3,396.6z"/>
					</g>
				</g>
			</g>
			<g>
				<g>
					<g>
						<path class="st15" d="M152.7,242.1H93.1v-12.3c0-3.1,2.5-5.7,5.7-5.7H147c3.1,0,5.7,2.5,5.7,5.7V242.1z"/>
					</g>
				</g>
			</g>
			<g>
				<g>
					<g>
						<path class="st15" d="M132.4,217h-19.2c-4,0-7.2,3.2-7.2,7.2v7.3h33.5v-7.3C139.6,220.2,136.4,217,132.4,217z"/>
					</g>
				</g>
			</g>
			<g>
				<g>
					<g>
						<path class="st15" d="M122.9,207c-5.5,0-10,4.5-10,10c0,5.5,4.5,10,10,10c5.5,0,10-4.5,10-10C132.8,211.5,128.4,207,122.9,207
							z M122.9,220.7c-2,0-3.7-1.6-3.7-3.7c0-2,1.6-3.7,3.7-3.7c2,0,3.7,1.6,3.7,3.7C126.5,219,124.9,220.7,122.9,220.7z"/>
					</g>
				</g>
			</g>
			<g>
				<g>
					<g>
						<path class="st16" d="M152,244.8H93.7c-1.1,0-2-0.9-2-2l0,0c0-1.1,0.9-2,2-2H152c1.1,0,2,0.9,2,2l0,0
							C154,243.9,153.1,244.8,152,244.8z"/>
					</g>
				</g>
			</g>
			<g>
				<g>
					<g>
						<g>
							<path class="st17" d="M96.2,318.9H73.4v-22.8h22.8V318.9z M74.6,317.7H95v-20.3H74.6V317.7z"/>
						</g>
					</g>
				</g>
				<g>
					<g>
						<g>
							<g>
								<path class="st17" d="M171.7,299.3h-69c-0.8,0-1.4-0.6-1.4-1.4c0-0.8,0.6-1.4,1.4-1.4h69c0.8,0,1.4,0.6,1.4,1.4
									C173.2,298.7,172.5,299.3,171.7,299.3z"/>
							</g>
						</g>
					</g>
					<g>
						<g>
							<g>
								<path class="st17" d="M141.5,305.8h-38.8c-0.8,0-1.4-0.6-1.4-1.4c0-0.8,0.6-1.4,1.4-1.4h38.8c0.8,0,1.4,0.6,1.4,1.4
									C143,305.2,142.3,305.8,141.5,305.8z"/>
							</g>
						</g>
					</g>
					<g>
						<g>
							<g>
								<path class="st17" d="M171.7,305.8h-25c-0.8,0-1.4-0.6-1.4-1.4c0-0.8,0.6-1.4,1.4-1.4h25c0.8,0,1.4,0.6,1.4,1.4
									C173.2,305.2,172.5,305.8,171.7,305.8z"/>
							</g>
						</g>
					</g>
					<g>
						<g>
							<g>
								<path class="st17" d="M171.7,312.1h-69c-0.8,0-1.4-0.6-1.4-1.4c0-0.8,0.6-1.4,1.4-1.4h69c0.8,0,1.4,0.6,1.4,1.4
									C173.2,311.5,172.5,312.1,171.7,312.1z"/>
							</g>
						</g>
					</g>
					<g>
						<g>
							<g>
								<path class="st17" d="M126.5,318.6h-23.8c-0.8,0-1.4-0.6-1.4-1.4c0-0.8,0.6-1.4,1.4-1.4h23.8c0.8,0,1.4,0.6,1.4,1.4
									C128,318,127.3,318.6,126.5,318.6z"/>
							</g>
						</g>
					</g>
				</g>
			</g>
			<g>
				<g>
					<g>
						<g>
							<path class="st17" d="M96.2,350.8H73.4v-22.8h22.8V350.8z M74.6,349.6H95v-20.3H74.6V349.6z"/>
						</g>
					</g>
				</g>
				<g>
					<g>
						<g>
							<g>
								<path class="st17" d="M120.4,331.2h-17.6c-0.8,0-1.4-0.6-1.4-1.4c0-0.8,0.6-1.4,1.4-1.4h17.6c0.8,0,1.4,0.6,1.4,1.4
									C121.8,330.6,121.1,331.2,120.4,331.2z"/>
							</g>
						</g>
					</g>
					<g>
						<g>
							<g>
								<path class="st17" d="M171.7,331.2h-46.3c-0.8,0-1.4-0.6-1.4-1.4c0-0.8,0.6-1.4,1.4-1.4h46.3c0.8,0,1.4,0.6,1.4,1.4
									C173.2,330.6,172.5,331.2,171.7,331.2z"/>
							</g>
						</g>
					</g>
					<g>
						<g>
							<g>
								<path class="st17" d="M141.5,337.8h-38.8c-0.8,0-1.4-0.6-1.4-1.4s0.6-1.4,1.4-1.4h38.8c0.8,0,1.4,0.6,1.4,1.4
									S142.3,337.8,141.5,337.8z"/>
							</g>
						</g>
					</g>
					<g>
						<g>
							<g>
								<path class="st17" d="M171.7,337.8h-25c-0.8,0-1.4-0.6-1.4-1.4s0.6-1.4,1.4-1.4h25c0.8,0,1.4,0.6,1.4,1.4
									S172.5,337.8,171.7,337.8z"/>
							</g>
						</g>
					</g>
					<g>
						<g>
							<g>
								<path class="st17" d="M171.7,344h-69c-0.8,0-1.4-0.6-1.4-1.4c0-0.8,0.6-1.4,1.4-1.4h69c0.8,0,1.4,0.6,1.4,1.4
									C173.2,343.4,172.5,344,171.7,344z"/>
							</g>
						</g>
					</g>
				</g>
			</g>
			<g>
				<g>
					<g>
						<path class="st18" d="M115.9,219.5c-1.1,0-2.1-0.9-2.2-2c-0.1-2.7,0.6-5.2,2-6.8c2.7-3,6.7-3,7.1-3c1.2,0,2.1,1,2.1,2.2
							c0,1.2-1,2.1-2.2,2.1c0,0,0,0,0,0c-0.1,0-2.5,0-3.9,1.5c-0.7,0.8-1,2.2-1,3.7c0.1,1.2-0.9,2.2-2,2.3
							C115.9,219.5,115.9,219.5,115.9,219.5z"/>
					</g>
				</g>
			</g>
			<g>
				<g>
					<g>
						<path class="st18" d="M96.1,239.5c-1,0-1.8-0.8-1.8-1.8v-6.4c0-3.4,2.7-6.1,6.1-6.1h5.1c1,0,1.8,0.8,1.8,1.8
							c0,1-0.8,1.8-1.8,1.8h-5.1c-1.4,0-2.5,1.1-2.5,2.5v6.4C97.9,238.7,97.1,239.5,96.1,239.5z"/>
					</g>
				</g>
			</g>
			<g>
				<g>
					<g>
						<path class="st18" d="M146,228.8h-34.5c-1,0-1.8-0.8-1.8-1.8c0-1,0.8-1.8,1.8-1.8H146c1,0,1.8,0.8,1.8,1.8
							C147.8,228,147,228.8,146,228.8z"/>
					</g>
				</g>
			</g>
			<g>
				<g>
					<g>
						<path class="st18" d="M62.6,358.3c-1,0-1.8-0.8-1.8-1.8V240.3c0-5.1,4.2-9.3,9.3-9.3H79c1,0,1.8,0.8,1.8,1.8
							c0,1-0.8,1.8-1.8,1.8h-8.9c-3.1,0-5.7,2.5-5.7,5.7v116.2C64.4,357.4,63.6,358.3,62.6,358.3z"/>
					</g>
				</g>
			</g>
			<g>
				<g>
					<g>
						<path class="st18" d="M150.2,405.3H73.4c-6.9,0-12.5-5.6-12.5-12.5v-30.2c0-1,0.8-1.8,1.8-1.8s1.8,0.8,1.8,1.8v30.2
							c0,4.9,4,8.9,8.9,8.9h76.8c1,0,1.8,0.8,1.8,1.8S151.2,405.3,150.2,405.3z"/>
					</g>
				</g>
			</g>
			<g class="st19">
				<g class="st20">
					<g>
						<g>
							<path class="st21" d="M78,270.5v2.6h-5.9v-2.6h1.5v-6.4h-1.4v-2.6h5.7v2.6h-1.4v6.4H78z"/>
						</g>
					</g>
				</g>
				<g class="st20">
					<g>
						<g>
							<path class="st21" d="M83,267.4v5.7c-1,0-2.1,0-3.1,0v-11.7H81l5.9,5.8v-5.7c1,0,2,0,3,0v11.7h-1.1L83,267.4z"/>
						</g>
					</g>
				</g>
				<g class="st20">
					<g>
						<g>
							<path class="st21" d="M98.6,269.7c0-0.8-1-1-2.1-1.1c-2.5-0.2-4.2-1-4.2-3.6c-0.1-5,9-5,8.9,0c-1,0-1.8,0-2.8,0
								c0-1.5-3.1-1.4-3.2,0c-0.1,0.9,0.8,1.1,1.8,1.2c2.3,0.2,4.6,0.6,4.6,3.5c0,4.9-9.5,5-9.4-0.2c1,0,1.9,0,2.9,0
								C95,271.1,98.6,271.1,98.6,269.7z"/>
						</g>
					</g>
				</g>
				<g class="st20">
					<g>
						<g>
							<path class="st21" d="M109.9,269.2v-7.7c0.9,0,1.9,0,2.8,0v7.8c0,2.6-2.2,4-4.6,4c-2.4,0-4.6-1.5-4.6-4v-7.8
								c0.9,0,1.9,0,2.8,0v7.7c0,0.9,0.9,1.4,1.8,1.4C109.1,270.6,109.9,270.2,109.9,269.2z"/>
						</g>
					</g>
				</g>
				<g class="st20">
					<g>
						<g>
							<path class="st21" d="M125.5,272.7v0.4h-3.3l-2-3.4h-1.5v3.4c-1,0-2,0-3,0c0-3.9,0-7.8,0-11.6c1.7,0,3.4,0,5.1,0
								c4.6,0,5.4,5.5,2.5,7.5L125.5,272.7z M120.8,264.2c-0.7,0-1.4,0-2.1,0c0,0.9,0,2,0,2.9h2.1
								C122.4,267.1,122.5,264.2,120.8,264.2z"/>
						</g>
					</g>
				</g>
				<g class="st20">
					<g>
						<g>
							<path class="st21" d="M134.6,271.7H130l-0.7,1.5h-2.9v-0.4l5.2-11.4h1.3l5.3,11.4v0.4h-2.9L134.6,271.7z M132.3,266.1
								l-1.3,3.1h2.7L132.3,266.1z"/>
						</g>
					</g>
				</g>
				<g class="st20">
					<g>
						<g>
							<path class="st21" d="M142.8,267.4v5.7c-1,0-2.1,0-3.1,0v-11.7h1.1l5.9,5.8v-5.7c1,0,2,0,3,0v11.7h-1.1L142.8,267.4z"/>
						</g>
					</g>
				</g>
				<g class="st20">
					<g>
						<g>
							<path class="st21" d="M158,261.4c2.4,0,5,1.3,5.5,4.4c-1,0-1.9,0-2.9,0c-0.4-1.2-1.3-1.7-2.5-1.7c-1.7,0-2.9,1.3-2.9,3.2
								c0,1.7,1.1,3.2,2.9,3.2c1.3,0,2.3-0.6,2.6-1.9c1,0,1.9,0,2.9,0c-0.4,3.3-3,4.6-5.5,4.6c-3,0-6-2-6-5.9
								C152,263.4,155,261.4,158,261.4z"/>
						</g>
					</g>
				</g>
				<g class="st20">
					<g>
						<g>
							<path class="st21" d="M173,264.2c-1.7,0-2.6,0-4.3,0v1.6h4c0,0.9,0,1.8,0,2.6h-4c0,0.7,0,1.3,0,2c1.7,0,2.7,0,4.5,0
								c0,0.9,0,1.8,0,2.6c-2.7,0-4.7,0-7.4,0c0-3.9,0-7.8,0-11.6c2.7,0,4.5,0,7.3,0C173,262.4,173,263.3,173,264.2z"/>
						</g>
					</g>
				</g>
			</g>
			<g>
				<g>
					<path class="st22" d="M143.9,368.3c-7.1-5.9-37.5,4.8-28.5,12.8c2.4,2.1,6.4,1.9,9.3,1.9c4.4,0,8.8-0.6,13.1-1.7
						c6.4-1.7,13.2-5,14.8-11.9c0.5-2-2.2-3.1-3.3-1.4c-1.7,2.8-4.1,10.5,1.5,10.3c5.3-0.2,9.3-7.3,11.6-11.2
						c-1.1-0.5-2.2-0.9-3.3-1.4c-1,5.4-1.3,10.8-1,16.3c0.1,2.3,3.7,2.3,3.6,0c-0.3-5.2-0.1-10.3,0.9-15.4c0.3-1.9-2.2-3.2-3.3-1.4
						c-1.3,2.3-5.7,10.6-9.3,9.3c0.4,0.4,0.8,0.8,1.2,1.2c-0.7-2,0.1-4.2,1.2-6c-1.1-0.5-2.2-0.9-3.3-1.4
						c-2.2,9.6-17.2,11.1-25.1,10.9c-1,0-3.6,0.2-4.4-0.3c-0.4-1-0.9-2-1.3-3c0.5-0.4,0.9-0.7,1.4-1.1c2.2-1.5,4.8-2.5,7.3-3.3
						c3.2-1,11.3-3.4,14.3-0.9C143.1,372.3,145.6,369.8,143.9,368.3L143.9,368.3z"/>
				</g>
			</g>
		</g>
		<g>
			<g>
				<g>
					<g>
						<path class="st23" d="M331.3,195.7c0,0,13.6-5.7,15.4-25.8c1.7-20.1,5.5-42.1,11.1-49.7c5.6-7.7-9.3-2-15.1,3.8
							c-5.4-14.5-21.5-31.5-49.2-39c-28-7.6-47.6-4-57.3-6.6c-7.5-2-16.1-9.9-20.5-18.9c-1.2-2.5-4.9-2-5.6,0.7
							c-4.1,16.1-2.4,35.5,12.3,46.6c-8.8-4.5-13.5-8.4-16.4-11.8c-2.6-3.1-7.4-2.3-8.7,1.5c-6.8,20-16.3,58.3,12.8,81.3
							C229.4,182,331.3,195.7,331.3,195.7z"/>
					</g>
				</g>
			</g>
			<g>
				<g>
					<g>
						<path class="st24" d="M217.8,121.4c0,0-18.9,23.7-8.3,55.9c13-23,13-23,13-23l4.5-18.5L217.8,121.4z"/>
					</g>
				</g>
			</g>
			<g>
				<g>
					<g>
						<path class="st5" d="M252.7,258.9l10.9,1.8c30.4,5,59.1-15.5,64.1-45.9l6.2-37.1c5-30.4-15.5-59.1-45.9-64.1l-10.9-1.8
							c-30.4-5-59.1,15.5-64.1,45.9l-6.2,37.1C201.8,225.2,222.4,253.9,252.7,258.9z"/>
					</g>
				</g>
			</g>
			<g>
				<g>
					<g>
						<path class="st23" d="M327.5,196L327.5,196c4.9,0.5,9.3-3,9.8-7.9l4.2-38c0.5-4.9-3-9.3-7.9-9.8l0,0c-4.9-0.5-9.3,3-9.8,7.9
							l-4.2,38C319.1,191.1,322.6,195.5,327.5,196z"/>
					</g>
				</g>
			</g>
			<g>
				<g>
					<g>
						<path class="st23" d="M215.3,126.7c-2,14.5,22.2,29.7,53.9,34c31.8,4.3,59.1-3.9,61.1-18.4c2-14.5-22.2-29.7-53.9-34
							C244.6,104,217.2,112.2,215.3,126.7z"/>
					</g>
				</g>
			</g>
			<g>
				<g>
					<g>
						<g>
							<path class="st5" d="M315.2,206.1c-3,8.5,1.5,17.8,10,20.8c8.5,3,17.8-1.5,20.8-10c3-8.5-1.5-17.8-10-20.8
								C327.5,193.1,318.2,197.6,315.2,206.1z"/>
						</g>
					</g>
				</g>
				<g>
					<g>
						<g>
							<path class="st6" d="M331,201c0.9,0.1,1.7,0.2,2.6,0.5c5.4,1.9,8.3,7.8,6.4,13.3c-1.8,5.3-7.5,8.1-12.8,6.5L331,201z"/>
						</g>
					</g>
				</g>
			</g>
			<g>
				<g>
					<g>
						<g>
							<path class="st5" d="M191.2,188.5c-2.7,8.6,2.1,17.7,10.7,20.4c8.6,2.7,17.7-2.1,20.4-10.7c2.7-8.6-2.1-17.7-10.7-20.4
								C203,175.2,193.9,180,191.2,188.5z"/>
						</g>
					</g>
				</g>
				<g>
					<g>
						<g>
							<path class="st6" d="M209,182.4c-0.8-0.2-1.7-0.3-2.6-0.3c-5.7,0.1-10.4,4.8-10.3,10.5c0.1,5.6,4.5,10.1,10,10.2L209,182.4z"
								/>
						</g>
					</g>
				</g>
			</g>
			<g>
				<g>
					<g>
						<g>
							<path class="st25" d="M255.3,241.5c-11.9-1.5-20.4-12.3-19-24.3l43.2,5.3C278.1,234.5,267.2,243,255.3,241.5z"/>
						</g>
					</g>
				</g>
				<g>
					<g>
						<g>
							<path class="st0" d="M236.7,224.4c-0.5-2.3-0.7-4.7-0.4-7.1l43.2,5.3c-0.3,2.4-1.1,4.7-2.1,6.8L236.7,224.4z"/>
						</g>
					</g>
				</g>
				<g>
					<g>
						<g>
							<path class="st26" d="M261.5,231.9c3.8,0.5,6.5,3.8,6.2,7.6c-3.6,1.8-7.7,2.6-12,2.1c-4.5-0.6-8.5-2.5-11.6-5.3
								c0.8-3.5,4.1-6,7.8-5.5c1.9,0.2,3.5,1.2,4.6,2.5C257.8,232.2,259.6,231.7,261.5,231.9z"/>
						</g>
					</g>
				</g>
			</g>
			<g>
				<g>
					<g>
						<path class="st27" d="M281.4,194.8c-0.7,2.8,1,5.6,3.8,6.3c2.8,0.7,5.6-1,6.3-3.8c0.7-2.8-1-5.6-3.8-6.3
							C284.9,190.3,282.1,192,281.4,194.8z"/>
					</g>
				</g>
			</g>
			<g>
				<g>
					<g>
						<path class="st27" d="M231.7,188.2c-0.7,2.8,1,5.6,3.8,6.3c2.8,0.7,5.6-1,6.3-3.8c0.7-2.8-1-5.6-3.8-6.3
							C235.2,183.6,232.3,185.3,231.7,188.2z"/>
					</g>
				</g>
			</g>
			<g>
				<g>
					<g>
						
							<ellipse transform="matrix(0.2974 -0.9548 0.9548 0.2974 109.8826 350.466)" class="st28" cx="293.1" cy="100.6" rx="12" ry="33.6"/>
					</g>
				</g>
			</g>
			<g>
				<g>
					<g>
						<g>
							<g>
								<path class="st28" d="M318.2,148c0,0-1.7,0.4-4.7,1c-3,0.7-7.3,1.4-12.5,2.2c-2.6,0.4-5.4,0.7-8.4,1c-3,0.3-6.1,0.5-9.3,0.6
									c-1.6,0-3.2,0-4.9,0.1c-1.6-0.1-3.3-0.1-5-0.2c-3.4-0.2-6.7-0.6-10-1.2c-3.3-0.6-6.5-1.4-9.9-2.5c-3.2-1.1-6.3-2.1-9.3-3.3
									c-2.9-1.3-5.8-2.5-8.4-3.9c-2.6-1.4-4.9-2.9-7-4.4c-2.1-1.5-3.9-3-5.3-4.5c-1.5-1.4-2.6-2.9-3.4-4.2
									c-0.7-1.3-1.2-2.4-1.5-3.2c-0.2-0.8-0.2-1.2-0.2-1.2s0,0.4-0.1,1.3c0.1,0.8,0.2,2.1,0.8,3.6c0.6,1.5,1.4,3.2,2.8,5
									c1.2,1.8,2.9,3.8,4.9,5.6c4,3.7,9.3,7.3,15.4,10.3c3.1,1.4,6.3,2.8,9.7,4c3.2,1.1,6.9,2.1,10.4,2.8
									c3.6,0.6,7.2,0.9,10.8,1.1c3.6,0.1,7.1-0.1,10.4-0.4c3.4-0.3,6.6-0.8,9.6-1.4c3-0.6,5.8-1.3,8.4-2c5.2-1.4,9.3-3.1,12.2-4.3
									C316.7,148.8,318.2,148,318.2,148z"/>
							</g>
						</g>
					</g>
				</g>
			</g>
			<g>
				<g>
					<g>
						<g>
							<g>
								<path class="st28" d="M213.7,66.9c0,0-0.2,2.2,0.1,6c0.2,1.9,0.4,4.2,0.9,6.9c0.5,2.6,1.1,5.6,2.1,8.8
									c0.5,1.6,1.1,3.2,1.7,4.9c0.7,1.7,1.5,3.3,2.2,5.1c0.9,1.7,1.8,3.4,2.8,5.2c1,1.7,2.2,3.4,3.3,5.2c2.5,3.4,5.2,6.8,8.3,9.9
									c3.2,3.1,6.5,6.1,10.2,8.6c1.8,1.3,3.7,2.6,5.6,3.7c2,1.1,4,2.2,6,3.1c4,1.9,8.2,3.2,12.2,4.3c8,2.2,15.7,3.2,22.2,3.9
									c6.5,0.7,12,0.9,15.8,1.2c3.8,0.2,6,0.2,6,0.2s-2.1-0.5-5.8-1.3c-3.7-0.8-9-1.9-15.4-3.3c-6.3-1.4-13.7-3-21.3-5.5
									c-3.8-1.2-7.6-2.7-11.3-4.5c-1.9-0.9-3.6-1.9-5.4-2.9c-1.9-1.1-3.5-2.3-5.2-3.6c-3.5-2.3-6.7-5.1-9.7-7.9
									c-1.4-1.5-2.9-2.9-4.3-4.4c-1.3-1.6-2.6-3-3.9-4.6c-1.2-1.6-2.3-3.2-3.4-4.7c-1-1.6-2-3.2-3-4.7c-1.8-3.2-3.3-6.3-4.6-9.2
									c-1.2-3-2.3-5.7-3.1-8.2c-0.8-2.5-1.4-4.7-1.8-6.6C213.9,69.1,213.7,66.9,213.7,66.9z"/>
							</g>
						</g>
					</g>
				</g>
			</g>
			<g>
				<g>
					<g>
						<path class="st6" d="M244.3,257.1c0,0,56.1,12.3,75.9-66.7C322,165,322,165,322,165l9.3,30.7l-4.7,24.6
							c0,0-3.1,15.8-17.7,27.9C295.7,259.3,280,261,280,261l-0.9,0.2c-10.8,2.2-22.1,0.9-32.1-3.7L244.3,257.1z"/>
					</g>
				</g>
			</g>
			<g>
				<g>
					<g>
						<g>
							<g>
								<path class="st28" d="M200.8,98.8c0,0-2.8,3.9-5.1,10.7c-0.6,1.7-1.1,3.6-1.6,5.6c-0.4,2-0.9,4.1-1.2,6.4
									c-0.6,4.5-0.8,9.3-0.5,14.1c0.1,2.4,0.6,4.8,0.9,7.1c0.3,2.3,1.1,4.6,1.5,6.8c0.5,2.2,1.4,4.2,2.1,6.1
									c0.6,2,1.6,3.7,2.4,5.3c0.8,1.6,1.5,3.1,2.3,4.3c0.8,1.2,1.5,2.3,2.1,3.1c1.2,1.7,1.9,2.6,1.9,2.6s-0.3-1.2-0.9-3.1
									c-0.3-1-0.7-2.1-1.1-3.5c-0.5-1.3-0.8-2.9-1.3-4.6c-0.4-1.7-1-3.4-1.4-5.4c-0.4-1.9-0.9-3.9-1.3-6c-0.3-2.1-0.7-4.3-1-6.5
									c-0.2-2.2-0.6-4.4-0.6-6.7c-0.4-4.5-0.4-9-0.2-13.3c0.2-4.2,0.5-8.2,1-11.6C199.7,103.4,200.8,98.8,200.8,98.8z"/>
							</g>
						</g>
					</g>
				</g>
			</g>
			<g>
				<g>
					<g>
						<path class="st29" d="M221.8,180c0,0,0-0.1,0-0.4c0-0.2,0.1-0.6,0.3-1c0.1-0.4,0.3-0.9,0.6-1.5c0.3-0.5,0.6-1.1,1.1-1.7
							c0.2-0.3,0.5-0.6,0.7-0.9c0.3-0.3,0.6-0.6,0.9-0.9c0.3-0.3,0.7-0.6,1-0.9c0.4-0.3,0.8-0.5,1.2-0.8c0.9-0.5,1.7-1,2.7-1.2
							c0.5-0.2,1-0.3,1.5-0.4c0.5-0.1,1.1-0.2,1.6-0.2l0.8-0.1c0.3,0,0.5,0,0.8,0c0.5,0,1.1,0.1,1.6,0.1c1,0.1,2,0.5,2.9,0.8
							c0.9,0.4,1.7,0.8,2.5,1.3c0.7,0.4,1.3,1,1.9,1.5c0.3,0.3,0.5,0.5,0.8,0.7c0.2,0.2,0.4,0.5,0.6,0.8c0.4,0.5,0.6,0.9,0.9,1.3
							c0.4,0.8,0.6,1.2,0.6,1.2s-0.5,0-1.4-0.1c-0.4,0-0.9-0.1-1.4-0.2c-0.5-0.1-1.1-0.2-1.8-0.2c-0.3,0-0.6-0.1-1-0.1
							c-0.3,0-0.6-0.1-1-0.1c-0.7,0-1.4-0.1-2-0.2c-0.7,0-1.4,0-2,0c-0.3,0-0.7,0-1,0l-0.5,0l-0.5,0.1c-0.3,0-0.7,0.1-1,0.1
							c-0.3,0.1-0.7,0.1-1,0.2c-0.7,0.1-1.3,0.3-2,0.4c-0.6,0.2-1.3,0.3-2,0.5c-0.3,0.1-0.6,0.2-1,0.3c-0.3,0.1-0.6,0.2-0.9,0.3
							c-0.6,0.2-1.2,0.4-1.7,0.5c-0.5,0.2-1,0.3-1.4,0.5C222.3,179.8,221.8,180,221.8,180z"/>
					</g>
				</g>
			</g>
			<g>
				<g>
					<g>
						<path class="st29" d="M300.7,184.2c0,0-0.4-0.3-1.1-0.8c-0.3-0.2-0.7-0.5-1.2-0.8c-0.5-0.3-0.9-0.7-1.4-1
							c-0.3-0.2-0.5-0.4-0.8-0.6c-0.3-0.2-0.6-0.4-0.8-0.5c-0.5-0.4-1.2-0.7-1.7-1.1c-0.6-0.3-1.2-0.7-1.8-1
							c-0.3-0.1-0.6-0.3-0.9-0.5c-0.3-0.1-0.6-0.2-0.9-0.4l-0.5-0.2l-0.5-0.1c-0.3-0.1-0.6-0.2-1-0.3c-0.6-0.2-1.3-0.3-2-0.6
							c-0.7-0.1-1.3-0.2-2-0.4c-0.3-0.1-0.7-0.1-1-0.2c-0.3-0.1-0.6-0.1-1-0.2c-0.6-0.1-1.2-0.3-1.8-0.3c-0.5-0.1-1-0.1-1.4-0.2
							c-0.8-0.2-1.4-0.3-1.4-0.3s0.3-0.4,0.9-1c0.3-0.3,0.7-0.6,1.2-1c0.2-0.2,0.5-0.4,0.8-0.5c0.3-0.2,0.6-0.3,0.9-0.5
							c0.7-0.3,1.4-0.7,2.2-0.9c0.8-0.2,1.8-0.4,2.7-0.5c1,0,2,0,3,0.1c0.5,0.1,1,0.2,1.5,0.3c0.3,0.1,0.5,0.1,0.8,0.2l0.7,0.3
							c0.5,0.2,1,0.4,1.5,0.7c0.5,0.3,0.9,0.6,1.3,0.9c0.9,0.6,1.6,1.3,2.3,2c0.3,0.4,0.6,0.7,0.9,1.1c0.3,0.4,0.5,0.7,0.7,1.1
							c0.2,0.4,0.4,0.7,0.6,1.1c0.2,0.4,0.3,0.7,0.4,1.1c0.3,0.7,0.4,1.4,0.5,2c0.1,0.6,0.1,1.1,0.1,1.6c0,0.4,0,0.8,0,1
							C300.8,184.1,300.7,184.2,300.7,184.2z"/>
					</g>
				</g>
			</g>
			<g class="st30">
				<g>
					<g>
						<g>
							<g>
								<path class="st31" d="M244.8,203.9c-0.4,2.6-6.6,3.8-13.9,2.7c-7.3-1.1-12.9-4.1-12.5-6.6c0.4-2.6,6.6-3.8,13.9-2.7
									C239.6,198.3,245.2,201.3,244.8,203.9z"/>
							</g>
						</g>
					</g>
				</g>
			</g>
			<g class="st30">
				<g>
					<g>
						<g>
							<g>
								<path class="st31" d="M297.9,211.8c-0.4,2.6-6.6,3.8-13.9,2.7c-7.3-1.1-12.9-4.1-12.5-6.6c0.4-2.6,6.6-3.8,13.9-2.7
									C292.7,206.2,298.3,209.2,297.9,211.8z"/>
							</g>
						</g>
					</g>
				</g>
			</g>
		</g>
		<path class="st7" d="M357.6,409L357.6,409c1.2-2.6,4.3-3.7,6.9-2.5l13.7,6.3c2.6,1.2,3.7,4.3,2.5,6.9l0,0
			c-1.2,2.6-4.3,3.7-6.9,2.5l-13.7-6.3C357.6,414.7,356.4,411.6,357.6,409z"/>
		<g>
			<g>
				<g>
					<path class="st3" d="M369.4,367.7c-0.1,0-0.2,0.1-0.3,0.1c-8,4-17.6,0.7-21.6-7.2l-36-72.4c-3.9-7.9-0.8-17.4,7-21.4
						c0.1,0,0.2-0.1,0.3-0.1c8-4,17.6-0.7,21.6,7.2l36,72.4C380.3,354.1,377.1,363.6,369.4,367.7z"/>
				</g>
			</g>
		</g>
		<g>
			<g>
				<g>
					<path class="st31" d="M255,389.6c0.3-5.8,2.2-13,3-15.8c0.9-2.8,2-6.5,4.1-8.6c1.1-1.1,2.3-1.8,3.3-2.3
						c1.3-3.4,3.9-9.1,9.4-14.2c0.6-0.6,3.6-3.3,7.8-5.5c7.7-4.1,14.1-3.7,36.1-4h0c10.9,0,22.8,0.1,31.9,1.3
						c1.3,0.2,3.7,0.5,6.7,1.4c0.8,0.3,2.5,0.8,5.1,2c3.6,1.7,6.4,3.3,8.2,4.5c4.5,2.8,14,9.5,26.1,18.7c0,0,15.6,2.1,21,3.8
						c4,1.3,13.6,4.8,17.9,11.3c1.6,2.4,2.5,5.1,2.5,5.1c0.4,1.1,1,3.1,1.3,8c0.1,2.4,0.2,5.7,0,9.7c0,0,0,0,0,0
						c0.1,0,1.3,0.4,1.3,1.5c0.1,1.2,0,4.2,0,4.2s-0.1,0.6-0.4,0.7c-0.2,0.1-6.2,1-7.4,1c-0.9,0-6.8,0.3-9.8,0.5
						c1.1-2.3,1.7-5,1.7-7.7c0-10.1-8.2-18.3-18.3-18.3c-10.1,0-18.3,8.2-18.3,18.3c0,2.8,0.6,4.4,1.8,6.8h-89.5c0,0-1.1-0.1-3-0.1
						c1.1-2.3,1.7-3.9,1.7-6.7c0-10.1-8.2-18.3-18.3-18.3c-10.1,0-18.3,8.2-18.3,18.3c0,1.4,0.2,2.8,0.5,4.1c-6.1-1.9-7.5-2.2-8-6.7
						C254.8,397.7,254.9,392,255,389.6z"/>
				</g>
				<g>
					<path class="st32" d="M326.6,344.7c0-0.9,0.8-1.7,1.7-1.6c12.4,0.2,17.1,0.7,19.7,1.1c3.6,0.5,5.9,1,8.3,1.8
						c3.2,1.1,5.5,2.3,7.4,3.4c7.3,4,12.5,7.2,16.8,11.6c1.5,1.6,3,3.3,2.5,4.8c-0.4,1.1-1.7,1.6-2.5,1.9c-0.2,0-0.3,0.1-0.5,0.1
						c-17.2-0.6-34.5-1.1-51.7-1.7c-0.9,0-1.6-0.8-1.6-1.6V344.7z"/>
				</g>
				<g>
					<g>
						<path class="st33" d="M414.2,370.3c6.5,0.7,11.2,2.8,14,4.3c0,0,6.7,3.7,9,8.9c0.2,0.5,0.9,1.9,0.3,2.6
							c-0.3,0.4-0.8,0.4-1.6,0.4c-2.5-0.1-4.2-0.1-6.4-1.2c-0.5-0.2-1.1-0.6-2.1-1.3c-3.5-2.5-3.6-4.1-5.8-5.8c-3.8-3-7.3-1-9.2-4.1
							c-0.2-0.3-1.2-1.9-0.5-3C412.5,370.1,414,370.2,414.2,370.3z"/>
					</g>
					<g>
						<path class="st34" d="M426.9,379.2c0.1-1.7,0.9-3.2,2.1-4.2c1.8,1.1,6.3,4.2,8.2,8.2c-1.1,1.3-2.8,2.1-4.7,2
							C429.2,385.2,426.7,382.4,426.9,379.2z"/>
					</g>
					<g>
						<path class="st35" d="M423.3,377.3c-3-0.1-5.3-2.6-5.2-5.6c0-0.2,0-0.5,0.1-0.7c4.5,1,7.8,2.5,10,3.7
							C427.2,376.3,425.3,377.4,423.3,377.3z"/>
					</g>
					<g>
						<path class="st10" d="M436.4,385.4c-0.2,0-0.5-0.1-0.6-0.3c0-0.1-3.2-5.6-8.3-8.9c-5.2-3.4-12.9-4.2-13-4.2
							c-0.4,0-0.6-0.4-0.6-0.7c0-0.4,0.4-0.6,0.7-0.6c0.3,0,8.2,0.8,13.6,4.4c5.4,3.6,8.6,9.2,8.8,9.4c0.2,0.3,0.1,0.7-0.2,0.9
							C436.6,385.4,436.5,385.4,436.4,385.4z"/>
					</g>
				</g>
				<g>
					<path class="st36" d="M255.1,412.7H439c2.2,0,4-1.8,4-4l0,0c0-2.2-1.8-4-4-4H255.1c-2.2,0-4,1.8-4,4l0,0
						C251.1,411,252.9,412.7,255.1,412.7z"/>
				</g>
				<g>
					<g>
						<path class="st37" d="M322.1,344.7c0-0.9,0.8-1.7,1.7-1.6c12.4,0.2,17.1,0.7,19.7,1.1c3.6,0.5,5.9,1,8.3,1.8
							c3.2,1.1,5.5,2.3,7.4,3.4c7.3,4,12.5,7.2,16.8,11.6c1.5,1.6,3,3.3,2.5,4.8c-0.4,1.1-1.7,1.6-2.5,1.9c-0.2,0-0.3,0.1-0.5,0.1
							c-17.2-0.6-34.5-1.1-51.7-1.7c-0.9,0-1.6-0.8-1.6-1.6V344.7z"/>
					</g>
					<g>
						<path class="st27" d="M372.8,365.7c0.9-0.3,1.4-0.7,1.4-0.9c0.1-0.3-0.1-1.2-2-3.1c-3.9-4-8.5-6.9-15.7-10.8
							c-1.7-0.9-3.8-2.1-6.8-3.1c-2.2-0.7-4.4-1.2-7.6-1.7c-1.8-0.3-6.1-0.9-18.6-1c-0.1,0-0.2,0.1-0.2,0.1V364
							c0,0.1,0.1,0.1,0.1,0.1L372.8,365.7L372.8,365.7z"/>
					</g>
					<g>
						<g>
							<path class="st38" d="M325.2,357.7L325.2,357.7c0.5,0,0.9-0.4,0.9-0.9v-9.7c0-0.5-0.4-0.9-0.9-0.9l0,0
								c-0.5,0-0.9,0.4-0.9,0.9v9.7C324.3,357.3,324.8,357.7,325.2,357.7z"/>
						</g>
						<g>
							<path class="st38" d="M325.2,357.7L325.2,357.7c0.5,0,0.9-0.4,0.9-0.9v-6.3c0-0.5-0.4-0.9-0.9-0.9l0,0
								c-0.5,0-0.9,0.4-0.9,0.9v6.3C324.3,357.3,324.8,357.7,325.2,357.7z"/>
						</g>
						<g>
							<path class="st38" d="M325.2,357.7L325.2,357.7c0.5,0,0.9-0.4,0.9-0.9v-1.4c0-0.5-0.4-0.9-0.9-0.9l0,0
								c-0.5,0-0.9,0.4-0.9,0.9v1.4C324.3,357.3,324.8,357.7,325.2,357.7z"/>
						</g>
						<g>
							<path class="st39" d="M325.2,363.2L325.2,363.2c0.5,0,0.9-0.4,0.9-0.9v-1.4c0-0.5-0.4-0.9-0.9-0.9l0,0
								c-0.5,0-0.9,0.4-0.9,0.9v1.4C324.3,362.8,324.8,363.2,325.2,363.2z"/>
						</g>
					</g>
				</g>
				<g>
					<g>
						<path class="st37" d="M274.3,357.3c1.1-1.9,2.6-3.9,4.4-5.8c0.5-0.5,2.9-2.9,6.4-4.9c6.3-3.6,11.5-3.3,29.3-3.6h0
							c0.4,0,0.8,0,1.2,0c0.9,0,1.7,0.8,1.7,1.8V364c0,1-0.8,1.9-1.7,1.8c-12.6-0.4-25.3-0.9-37.9-1.3
							C274.4,364.4,272.5,360.3,274.3,357.3z"/>
					</g>
					<g>
						<path class="st27" d="M315.6,364.5c0.2,0,0.3-0.2,0.3-0.4V345c0-0.2-0.1-0.4-0.3-0.4l-1.2,0c-1.9,0-3.7,0.1-5.4,0.1
							c-13.5,0.2-18,0.3-23.3,3.3c-3.1,1.8-5.3,3.9-6.1,4.7c-1.6,1.6-3,3.5-4.2,5.5c-0.6,1-0.6,2.2-0.2,3.2c0.5,1,1.4,1.7,2.4,1.7
							L315.6,364.5z"/>
					</g>
					<g>
						<g>
							<path class="st38" d="M313.3,357.7L313.3,357.7c0.5,0,0.8-0.4,0.8-0.9v-9.7c0-0.5-0.4-0.9-0.8-0.9l0,0
								c-0.5,0-0.8,0.4-0.8,0.9v9.7C312.5,357.3,312.8,357.7,313.3,357.7z"/>
						</g>
						<g>
							<path class="st38" d="M313.3,357.7L313.3,357.7c0.5,0,0.8-0.4,0.8-0.9v-6.3c0-0.5-0.4-0.9-0.8-0.9l0,0
								c-0.5,0-0.8,0.4-0.8,0.9v6.3C312.5,357.3,312.8,357.7,313.3,357.7z"/>
						</g>
						<g>
							<path class="st38" d="M313.3,357.7L313.3,357.7c0.5,0,0.8-0.4,0.8-0.9v-1.4c0-0.5-0.4-0.9-0.8-0.9l0,0
								c-0.5,0-0.8,0.4-0.8,0.9v1.4C312.5,357.3,312.8,357.7,313.3,357.7z"/>
						</g>
						<g>
							<path class="st39" d="M313.3,363.2L313.3,363.2c0.5,0,0.8-0.4,0.8-0.9v-1.4c0-0.5-0.4-0.9-0.8-0.9l0,0
								c-0.5,0-0.8,0.4-0.8,0.9v1.4C312.5,362.8,312.8,363.2,313.3,363.2z"/>
						</g>
					</g>
				</g>
				<g>
					<path class="st18" d="M306.4,408.8h75c0.8,0,1.5-0.7,1.5-1.5l0,0c0-0.8-0.7-1.5-1.5-1.5h-75c-0.8,0-1.5,0.7-1.5,1.5l0,0
						C304.9,408.1,305.6,408.8,306.4,408.8z"/>
				</g>
				<g>
					<path class="st18" d="M430.7,408.8h7.5c0.8,0,1.5-0.7,1.5-1.5l0,0c0-0.8-0.7-1.5-1.5-1.5h-7.5c-0.8,0-1.5,0.7-1.5,1.5l0,0
						C429.1,408.1,429.8,408.8,430.7,408.8z"/>
				</g>
				<g>
					<path class="st18" d="M255.2,408.8h3.4c0.8,0,1.5-0.7,1.5-1.5l0,0c0-0.8-0.7-1.5-1.5-1.5h-3.4c-0.8,0-1.5,0.7-1.5,1.5l0,0
						C253.7,408.1,254.4,408.8,255.2,408.8z"/>
				</g>
				<g>
					<path class="st40" d="M417.4,397.5h21.2c1.4,0,2.5-1.1,2.5-2.5v-3.8c0-1.4-1.1-2.5-2.5-2.5h-21.2c-1.4,0-2.5,1.1-2.5,2.5v3.8
						C414.9,396.4,416,397.5,417.4,397.5z"/>
				</g>
				<g>
					<path class="st40" d="M253.8,397.9h17.2c1.3,0,2.4-1.1,2.4-2.4v-4.5c0-1.3-1.1-2.4-2.4-2.4h-17.2c-1.3,0-2.4,1.1-2.4,2.4v4.5
						C251.4,396.9,252.5,397.9,253.8,397.9z"/>
				</g>
				<g>
					<path class="st6" d="M441.2,393.1v1.9c0,1.4-1.1,2.5-2.5,2.5h-21.2c-1.4,0-2.5-1.1-2.5-2.5v-1.9H441.2z"/>
				</g>
				<g>
					<g>
						<path class="st41" d="M432.5,403.3h3.7c1.2,0,2.2-1,2.2-2.2v0c0-1.2-1-2.2-2.2-2.2h-3.7c-1.2,0-2.2,1-2.2,2.2v0
							C430.3,402.3,431.2,403.3,432.5,403.3z"/>
					</g>
					<g>
						<path class="st10" d="M432.3,401.1h4.1c0.4,0,0.8-0.3,0.8-0.8v0c0-0.4-0.3-0.8-0.8-0.8h-4.1c-0.4,0-0.8,0.3-0.8,0.8v0
							C431.5,400.7,431.8,401.1,432.3,401.1z"/>
					</g>
				</g>
				<g>
					<g>
						<path class="st41" d="M255.1,394.5h3.7c1.2,0,2.2-1,2.2-2.2v0c0-1.2-1-2.2-2.2-2.2h-3.7c-1.2,0-2.2,1-2.2,2.2v0
							C252.9,393.5,253.9,394.5,255.1,394.5z"/>
					</g>
					<g>
						<path class="st10" d="M254.9,392.3h4.1c0.4,0,0.8-0.3,0.8-0.8v0c0-0.4-0.3-0.8-0.8-0.8h-4.1c-0.4,0-0.8,0.3-0.8,0.8v0
							C254.1,392,254.5,392.3,254.9,392.3z"/>
					</g>
				</g>
				<g>
					<path class="st42" d="M427,392.3h11.6c0.7,0,1.4-0.6,1.4-1.4l0,0c0-0.7-0.6-1.4-1.4-1.4H427c-0.7,0-1.4,0.6-1.4,1.4l0,0
						C425.6,391.7,426.2,392.3,427,392.3z"/>
				</g>
				<g>
					<path class="st43" d="M396.2,388.7l-11.1,16.1h-6.1c0-15.1,12.2-27.3,27.3-27.3c9,0,17,4.4,22,11.2H396.2z"/>
				</g>
				<g>
					<path class="st43" d="M291.9,388.7l11.1,16.1h6.1c0-15.1-12.2-27.3-27.3-27.3c-9,0-17,4.4-22,11.2H291.9z"/>
				</g>
				<g>
					<g>
						<g>
							<path class="st44" d="M388.5,404.8c0,9.9,8,17.9,17.9,17.9c9.9,0,17.9-8,17.9-17.9c0-9.9-8-17.9-17.9-17.9
								C396.5,386.9,388.5,394.9,388.5,404.8z"/>
						</g>
						<g>
							<g>
								<path class="st45" d="M406,420.5c0.6,0,1.2-0.5,1.2-1.1c0-0.7-0.5-1.2-1.1-1.3c-3.9-0.2-7.4-1.9-9.9-4.9
									c-0.4-0.5-1.2-0.6-1.7-0.1c-0.5,0.4-0.6,1.2-0.1,1.7C397.3,418.2,401.5,420.3,406,420.5C406,420.5,406,420.5,406,420.5z"/>
							</g>
						</g>
						<g>
							<path class="st46" d="M394.9,404.8c0,6.4,5.2,11.5,11.5,11.5c6.4,0,11.5-5.2,11.5-11.5c0-6.4-5.1-11.5-11.5-11.5
								C400,393.3,394.9,398.5,394.9,404.8z"/>
							<path class="st47" d="M406.4,416.6c-6.5,0-11.8-5.3-11.8-11.8c0-6.5,5.3-11.8,11.8-11.8c6.5,0,11.8,5.3,11.8,11.8
								C418.1,411.3,412.9,416.6,406.4,416.6z M406.4,393.6c-6.2,0-11.2,5-11.2,11.2c0,6.2,5,11.2,11.2,11.2c6.2,0,11.2-5,11.2-11.2
								C417.6,398.6,412.6,393.6,406.4,393.6z"/>
						</g>
						<g>
							<path class="st48" d="M397.8,404.8c0,4.7,3.8,8.6,8.6,8.6c4.7,0,8.6-3.8,8.6-8.6c0-4.7-3.8-8.6-8.6-8.6
								C401.6,396.3,397.8,400.1,397.8,404.8z"/>
						</g>
						<g>
							<path class="st49" d="M399.5,404.8c0,3.8,3.1,6.9,6.9,6.9c3.8,0,6.9-3.1,6.9-6.9c0-3.8-3.1-6.9-6.9-6.9
								C402.6,397.9,399.5,401,399.5,404.8z"/>
						</g>
						<g>
							<path class="st49" d="M401.9,404.8c0,2.5,2,4.5,4.5,4.5s4.5-2,4.5-4.5c0-2.5-2-4.5-4.5-4.5S401.9,402.3,401.9,404.8z"/>
						</g>
					</g>
					<g>
						<path class="st50" d="M389.8,415c-1,0-1.9-0.5-2.4-1.4c-1.5-3-2.3-6.2-2.3-9.5c0-11.7,9.5-21.2,21.2-21.2
							c11.7,0,21.2,9.5,21.2,21.2c0,3.1-0.7,6.1-1.9,8.9c-0.6,1.3-2.2,1.9-3.5,1.3c-1.3-0.6-1.9-2.2-1.3-3.5c1-2.1,1.5-4.3,1.5-6.7
							c0-8.8-7.1-15.9-15.9-15.9c-8.8,0-15.9,7.2-15.9,15.9c0,2.5,0.6,4.9,1.7,7.2c0.7,1.3,0.1,2.9-1.2,3.5
							C390.6,414.9,390.2,415,389.8,415z"/>
					</g>
					<g>
						<path class="st51" d="M424.9,405.1c-0.6,0-1.1-0.5-1.1-1.1c0-1.3-0.1-2.5-0.4-3.8c-1.7-7.9-8.9-13.7-17.1-13.7
							c-0.6,0-1.1-0.5-1.1-1.1c0-0.6,0.5-1.1,1.1-1.1c9.2,0,17.2,6.5,19.2,15.4c0.3,1.4,0.5,2.8,0.5,4.2
							C426,404.6,425.5,405.1,424.9,405.1z"/>
					</g>
					<g>
						<path class="st51" d="M387.8,405.1c-0.6,0-1.1-0.5-1.1-1.1c0-1.4,0.2-2.8,0.5-4.2c1-4.5,3.6-8.6,7.3-11.4
							c0.5-0.4,1.2-0.3,1.5,0.2c0.4,0.5,0.3,1.2-0.2,1.5c-3.3,2.5-5.6,6.1-6.5,10.2c-0.3,1.2-0.4,2.5-0.4,3.8
							C388.9,404.6,388.4,405.1,387.8,405.1z"/>
					</g>
				</g>
				<g>
					<g>
						<g>
							<path class="st44" d="M264,404.8c0,9.9,8,17.9,17.9,17.9c9.9,0,17.9-8,17.9-17.9c0-9.9-8-17.9-17.9-17.9
								C272.1,386.9,264,394.9,264,404.8z"/>
						</g>
						<g>
							<g>
								<path class="st45" d="M281.6,420.5c0.6,0,1.2-0.5,1.2-1.1c0-0.7-0.5-1.2-1.1-1.3c-3.9-0.2-7.4-1.9-9.9-4.9
									c-0.4-0.5-1.2-0.6-1.7-0.1c-0.5,0.4-0.6,1.2-0.1,1.7C272.8,418.2,277.1,420.3,281.6,420.5
									C281.6,420.5,281.6,420.5,281.6,420.5z"/>
							</g>
						</g>
						<g>
							<path class="st46" d="M270.4,404.8c0,6.4,5.2,11.5,11.5,11.5c6.4,0,11.5-5.2,11.5-11.5c0-6.4-5.2-11.5-11.5-11.5
								C275.6,393.3,270.4,398.5,270.4,404.8z"/>
							<path class="st47" d="M281.9,416.6c-6.5,0-11.8-5.3-11.8-11.8c0-6.5,5.3-11.8,11.8-11.8c6.5,0,11.8,5.3,11.8,11.8
								C293.7,411.3,288.4,416.6,281.9,416.6z M281.9,393.6c-6.2,0-11.2,5-11.2,11.2c0,6.2,5,11.2,11.2,11.2c6.2,0,11.2-5,11.2-11.2
								C293.2,398.6,288.1,393.6,281.9,393.6z"/>
						</g>
						<g>
							<path class="st48" d="M273.4,404.8c0,4.7,3.8,8.6,8.6,8.6c4.7,0,8.6-3.8,8.6-8.6c0-4.7-3.8-8.6-8.6-8.6
								C277.2,396.3,273.4,400.1,273.4,404.8z"/>
						</g>
						<g>
							<path class="st49" d="M275,404.8c0,3.8,3.1,6.9,6.9,6.9c3.8,0,6.9-3.1,6.9-6.9c0-3.8-3.1-6.9-6.9-6.9
								C278.1,397.9,275,401,275,404.8z"/>
						</g>
						<g>
							<path class="st49" d="M277.4,404.8c0,2.5,2,4.5,4.5,4.5c2.5,0,4.5-2,4.5-4.5c0-2.5-2-4.5-4.5-4.5
								C279.5,400.3,277.4,402.3,277.4,404.8z"/>
						</g>
					</g>
					<g>
						<path class="st50" d="M265.4,415c-1,0-1.9-0.5-2.4-1.4c-1.5-3-2.3-6.2-2.3-9.5c0-11.7,9.5-21.2,21.2-21.2s21.2,9.5,21.2,21.2
							c0,3.1-0.7,6.1-1.9,8.9c-0.6,1.3-2.2,1.9-3.5,1.3c-1.3-0.6-1.9-2.2-1.3-3.5c1-2.1,1.5-4.3,1.5-6.7c0-8.8-7.1-15.9-15.9-15.9
							c-8.8,0-15.9,7.2-15.9,15.9c0,2.5,0.6,4.9,1.7,7.2c0.7,1.3,0.1,2.9-1.2,3.5C266.2,414.9,265.8,415,265.4,415z"/>
					</g>
					<g>
						<path class="st51" d="M300.5,405.1c-0.6,0-1.1-0.5-1.1-1.1c0-1.3-0.1-2.5-0.4-3.8c-1.7-7.9-8.9-13.7-17.1-13.7
							c-0.6,0-1.1-0.5-1.1-1.1c0-0.6,0.5-1.1,1.1-1.1c9.2,0,17.2,6.5,19.2,15.4c0.3,1.4,0.5,2.8,0.5,4.2
							C301.6,404.6,301.1,405.1,300.5,405.1z"/>
					</g>
					<g>
						<path class="st51" d="M263.4,405.1c-0.6,0-1.1-0.5-1.1-1.1c0-1.4,0.2-2.8,0.5-4.2c1-4.5,3.6-8.6,7.3-11.4
							c0.5-0.4,1.2-0.3,1.5,0.2c0.4,0.5,0.3,1.2-0.2,1.5c-3.3,2.5-5.6,6.1-6.5,10.2c-0.3,1.2-0.4,2.5-0.4,3.8
							C264.5,404.6,264,405.1,263.4,405.1z"/>
					</g>
				</g>
				<g>
					<path class="st6" d="M381.6,378.2c-3.3,2.3-9.9,8.1-11.8,19.3c-0.6,3.3-3.4,5.7-6.7,5.7l-33.5-0.2c-3.5,0-6.5-2.6-7.1-6.1
						c-0.6-4.2-1.2-11.1-1-21.8c0.1-2.9,2.5-5.3,5.4-5.2c20.1,0.1,43.2,0.6,52.4,0.7c2.3,0,4.1,1.9,4.1,4.2l0,0
						C383.4,376.2,382.7,377.4,381.6,378.2z"/>
				</g>
				<g>
					<path class="st52" d="M379.1,406.8c-0.1,0-0.1,0-0.2,0c-1.1-0.1-1.9-1.1-1.8-2.2c1.1-10.1,4.8-17.8,11.1-22.8
						c9.4-7.4,21-6.1,21.4-6c1.1,0.1,1.9,1.1,1.7,2.2c-0.1,1.1-1.1,1.9-2.2,1.7c-0.2,0-10.5-1.2-18.5,5.2
						c-5.4,4.3-8.7,11.1-9.6,20.1C381,406.1,380.1,406.8,379.1,406.8z"/>
				</g>
				<g>
					<path class="st52" d="M309,406.8c-1,0-1.9-0.8-2-1.8c-1-9-4.2-15.8-9.6-20.1c-8.1-6.4-18.4-5.3-18.5-5.2
						c-1.1,0.1-2.1-0.6-2.2-1.7c-0.1-1.1,0.6-2.1,1.7-2.2c0.5-0.1,12-1.4,21.4,6c6.3,5,10.1,12.7,11.1,22.8c0.1,1.1-0.7,2.1-1.8,2.2
						C309.2,406.8,309.1,406.8,309,406.8z"/>
				</g>
				<g>
					<path class="st41" d="M257.3,380.5h2.1c1.2,0,2.2-1,2.2-2.2v-7.4c0-1.2-1-2.2-2.2-2.2h-2.1c-2.1,0-3.8,1.7-3.8,3.8v4.2
						C253.4,378.8,255.1,380.5,257.3,380.5z"/>
				</g>
				<g>
					<path class="st53" d="M255.3,378.2L255.3,378.2c0.7,0,1.3-0.6,1.3-1.3v-4.7c0-0.7-0.6-1.3-1.3-1.3l0,0c-0.7,0-1.3,0.6-1.3,1.3
						v4.7C254,377.6,254.6,378.2,255.3,378.2z"/>
				</g>
				<g>
					<path class="st52" d="M346.2,403.4C346.2,403.4,346.2,403.4,346.2,403.4l-16.6-0.1c-3.9,0-7.2-2.8-7.8-6.5
						c-0.9-5.4-1.2-12.5-1-21.3c0.1-3.2,2.8-5.8,6.1-5.8c0,0,0,0,0,0c0.4,0,0.7,0.3,0.7,0.7c0,0.4-0.3,0.7-0.7,0.7c0,0,0,0,0,0
						c-2.5,0-4.6,1.9-4.6,4.3c-0.2,8.7,0.1,15.7,1,21c0.5,3.1,3.2,5.3,6.4,5.3l16.6,0.1c0.4,0,0.7,0.3,0.7,0.7
						C347,403,346.6,403.4,346.2,403.4z"/>
				</g>
				<g>
					<g>
						<path class="st54" d="M326.4,376.5h7.4c0.9,0,1.6-0.7,1.6-1.6v-0.5c0-0.9-0.7-1.6-1.6-1.6h-7.4c-0.9,0-1.6,0.7-1.6,1.6v0.5
							C324.8,375.8,325.5,376.5,326.4,376.5z"/>
					</g>
					<g>
						<path class="st6" d="M335.5,374.4v0.5c0,0.9-0.7,1.6-1.6,1.6h-7.4c-0.9,0-1.6-0.7-1.6-1.6v-0.5c0-0.1,0-0.1,0-0.2h10.7
							C335.5,374.3,335.5,374.4,335.5,374.4z"/>
					</g>
				</g>
				<g>
					<path class="st52" d="M314.8,403.5h54.8c0.8,0,1.4-0.6,1.4-1.4l0,0c0-0.8-0.6-1.4-1.4-1.4h-54.8c-0.8,0-1.4,0.6-1.4,1.4l0,0
						C313.4,402.8,314,403.5,314.8,403.5z"/>
				</g>
				<g>
					<path class="st37" d="M396.8,367.1h-6.6c-2.8,0-5.4-1.2-7.3-3.3c-3.7-4.2-11.6-11.8-24.8-17.7c-0.7-0.3-0.5-1.4,0.3-1.4
						c6.7,0,5.8,0,5.8,0S378.1,351.5,396.8,367.1z"/>
				</g>
				<g>
					<path class="st6" d="M276.1,372.3h40c0.6,0,1.2-0.5,1.2-1.2l0,0c0-0.6-0.5-1.2-1.2-1.2h-40c-0.6,0-1.2,0.5-1.2,1.2l0,0
						C275,371.8,275.5,372.3,276.1,372.3z"/>
				</g>
				<g>
					<g>
						<path class="st31" d="M338.3,340.7h6.6c1.2,0,2.1-0.9,2.1-2.1l0,0c0-1.2-0.9-2.1-2.1-2.1h-6.6c-1.2,0-2.1,0.9-2.1,2.1l0,0
							C336.2,339.7,337.1,340.7,338.3,340.7z"/>
					</g>
					<g>
						<path class="st55" d="M338.3,336.4h6.6c1.2,0,2.1,0.9,2.1,2.1h-10.9C336.2,337.4,337.1,336.4,338.3,336.4z"/>
					</g>
					<g>
						<path class="st56" d="M347.1,339.1h-10.9c-0.3,0-0.5-0.2-0.5-0.5s0.2-0.5,0.5-0.5h10.9c0.3,0,0.5,0.2,0.5,0.5
							S347.4,339.1,347.1,339.1z"/>
					</g>
				</g>
				<g>
					<g>
						<path class="st31" d="M302,340.7h6.6c1.2,0,2.1-0.9,2.1-2.1l0,0c0-1.2-0.9-2.1-2.1-2.1H302c-1.2,0-2.1,0.9-2.1,2.1l0,0
							C299.9,339.7,300.8,340.7,302,340.7z"/>
					</g>
					<g>
						<path class="st55" d="M302,336.4h6.6c1.2,0,2.1,0.9,2.1,2.1h-10.9C299.9,337.4,300.8,336.4,302,336.4z"/>
					</g>
					<g>
						<path class="st56" d="M310.7,339.1h-10.9c-0.3,0-0.5-0.2-0.5-0.5s0.2-0.5,0.5-0.5h10.9c0.3,0,0.5,0.2,0.5,0.5
							S311,339.1,310.7,339.1z"/>
					</g>
				</g>
				<g>
					<path class="st31" d="M277.4,345.5l20.1-2.3c1-0.1,1.7-1,1.6-2l0-0.1c-0.1-1-1-1.7-2-1.6l-20.1,2.3c-1,0.1-1.7,1-1.6,2l0,0.1
						C275.5,344.9,276.4,345.6,277.4,345.5z"/>
				</g>
				<g>
					<path class="st37" d="M279,345.3L279,345.3c1.4-0.1,2.2,1.7,1.1,2.6c-3.3,3-8.1,7.9-10.3,13.7c-0.5,1.4-2.1,2.1-3.5,1.6
						l-0.9-0.3C265.3,362.9,268.3,352.7,279,345.3z"/>
				</g>
			</g>
		</g>
		<g>
			<path class="st57" d="M353.3,418.3v-13.1c0-2.9,2.4-5.3,5.3-5.3l0,0c2.9,0,5.3,2.4,5.3,5.3v13.1c0,2.9-2.4,5.3-5.3,5.3l0,0
				C355.6,423.6,353.3,421.2,353.3,418.3z"/>
			<g>
				<path class="st58" d="M353.2,418v-12.7c0-3,2.4-5.5,5.4-5.5c3,0,5.4,2.5,5.4,5.5c0,0.2-0.1,0.3-0.3,0.3s-0.3-0.1-0.3-0.3
					c0-2.7-2.1-4.9-4.8-4.9c-2.6,0-4.8,2.2-4.8,4.9V418c0,0.2-0.1,0.3-0.3,0.3S353.2,418.2,353.2,418z"/>
			</g>
			<g>
				<path class="st59" d="M362.1,407.1l-6.6,0l0-3c0-1.7,1.4-3.1,3.1-3.1l0.3,0c1.7,0,3.1,1.4,3.1,3.1L362.1,407.1z"/>
				<path class="st60" d="M355.5,407.1l6.6,0C362.1,407.1,358.7,404.5,355.5,407.1z"/>
			</g>
			<g>
				<path class="st61" d="M360.9,420.9l-4.6,0c-0.3,0-0.5-0.2-0.5-0.5l0,0c0-0.3,0.2-0.5,0.5-0.5l4.6,0c0.3,0,0.5,0.2,0.5,0.5l0,0
					C361.4,420.7,361.1,420.9,360.9,420.9z"/>
				<path class="st61" d="M360.3,419.2l-3.4,0c-0.3,0-0.5-0.2-0.5-0.5l0,0c0-0.3,0.2-0.5,0.5-0.5l3.4,0c0.3,0,0.5,0.2,0.5,0.5l0,0
					C360.8,418.9,360.5,419.2,360.3,419.2z"/>
			</g>
		</g>
		<g>
			<path class="st57" d="M342.4,420.1V407c0-2.9,2.4-5.3,5.3-5.3h0c2.9,0,5.3,2.4,5.3,5.3v13.1c0,2.9-2.4,5.3-5.3,5.3h0
				C344.8,425.4,342.4,423,342.4,420.1z"/>
			<g>
				<path class="st59" d="M351,409l-6.5,0l0-2.9c0-1.7,1.4-3.1,3.1-3.1l0.3,0c1.7,0,3.1,1.4,3.1,3.1L351,409z"/>
				<path class="st60" d="M344.5,409l6.5,0C351,409,347.6,406.4,344.5,409z"/>
			</g>
			<g>
				<path class="st58" d="M342.3,419.7V407c0-3,2.4-5.5,5.4-5.5c3,0,5.4,2.5,5.4,5.5c0,0.2-0.1,0.3-0.3,0.3c-0.2,0-0.3-0.1-0.3-0.3
					c0-2.7-2.1-4.9-4.8-4.9s-4.8,2.2-4.8,4.9v12.7c0,0.2-0.1,0.3-0.3,0.3C342.5,420,342.3,419.9,342.3,419.7z"/>
			</g>
			<g>
				<path class="st61" d="M350,423.1l-4.6,0c-0.3,0-0.5-0.2-0.5-0.5l0,0c0-0.3,0.2-0.5,0.5-0.5l4.6,0c0.3,0,0.5,0.2,0.5,0.5l0,0
					C350.5,422.9,350.3,423.1,350,423.1z"/>
				<path class="st61" d="M349.4,421.4l-3.4,0c-0.3,0-0.5-0.2-0.5-0.5l0,0c0-0.3,0.2-0.5,0.5-0.5l3.4,0c0.3,0,0.5,0.2,0.5,0.5l0,0
					C349.9,421.2,349.7,421.4,349.4,421.4z"/>
			</g>
		</g>
		<g>
			<path class="st57" d="M331.5,420.3v-13.1c0-2.9,2.4-5.3,5.3-5.3l0,0c2.9,0,5.3,2.4,5.3,5.3v13.1c0,2.9-2.4,5.3-5.3,5.3l0,0
				C333.9,425.7,331.5,423.3,331.5,420.3z"/>
			<g>
				<path class="st59" d="M339.9,408.8l-6,0l0-2.7c0-1.6,1.3-2.9,2.9-2.9l0.3,0c1.6,0,2.9,1.3,2.9,2.9L339.9,408.8z"/>
				<path class="st60" d="M333.8,408.8l6,0C339.9,408.8,336.8,406.4,333.8,408.8z"/>
			</g>
			<g>
				<path class="st58" d="M331.5,420v-12.7c0-3,2.4-5.5,5.4-5.5c3,0,5.4,2.5,5.4,5.5c0,0.2-0.1,0.3-0.3,0.3c-0.2,0-0.3-0.1-0.3-0.3
					c0-2.7-2.1-4.9-4.8-4.9c-2.6,0-4.8,2.2-4.8,4.9V420c0,0.2-0.1,0.3-0.3,0.3S331.5,420.1,331.5,420z"/>
			</g>
			<g>
				<path class="st61" d="M339.1,423.6l-4.6,0c-0.3,0-0.5-0.2-0.5-0.5l0,0c0-0.3,0.2-0.5,0.5-0.5l4.6,0c0.3,0,0.5,0.2,0.5,0.5l0,0
					C339.6,423.4,339.4,423.6,339.1,423.6z"/>
				<path class="st61" d="M338.5,421.9l-3.4,0c-0.3,0-0.5-0.2-0.5-0.5l0,0c0-0.3,0.2-0.5,0.5-0.5l3.4,0c0.3,0,0.5,0.2,0.5,0.5l0,0
					C339,421.7,338.8,421.9,338.5,421.9z"/>
			</g>
		</g>
		<g>
			<path class="st57" d="M322.5,417.2v-10.7c0-2.4,2-4.4,4.4-4.4l0,0c2.4,0,4.4,2,4.4,4.4v10.7c0,2.4-2,4.4-4.4,4.4l0,0
				C324.5,421.6,322.5,419.6,322.5,417.2z"/>
			<g>
				<path class="st59" d="M329.5,407.7l-5.2,0l0-2.3c0-1.4,1.1-2.5,2.4-2.5l0.3,0c1.4,0,2.5,1.1,2.5,2.4L329.5,407.7z"/>
				<path class="st60" d="M324.4,407.7l5.2,0C329.5,407.7,326.9,405.6,324.4,407.7z"/>
			</g>
			<g>
				<path class="st58" d="M322.5,417.7v-11c0-2.6,2-4.7,4.4-4.7c2.4,0,4.4,2.1,4.4,4.7c0,0.1-0.1,0.2-0.2,0.2
					c-0.1,0-0.2-0.1-0.2-0.2c0-2.3-1.8-4.2-3.9-4.2c-2.2,0-3.9,1.9-3.9,4.2v11c0,0.1-0.1,0.2-0.2,0.2
					C322.7,417.9,322.5,417.8,322.5,417.7z"/>
			</g>
			<g>
				<path class="st61" d="M328.6,420.1l-3.3,0c-0.2,0-0.4-0.2-0.4-0.4l0,0c0-0.2,0.2-0.4,0.4-0.4l3.3,0c0.2,0,0.4,0.2,0.4,0.4l0,0
					C328.9,420,328.8,420.1,328.6,420.1z"/>
				<path class="st61" d="M328.1,418.9l-2.4,0c-0.2,0-0.4-0.2-0.4-0.4l0,0c0-0.2,0.2-0.4,0.4-0.4l2.4,0c0.2,0,0.4,0.2,0.4,0.4l0,0
					C328.5,418.7,328.3,418.9,328.1,418.9z"/>
			</g>
		</g>
		<g>
			<path class="st57" d="M93,220.7v13.1c0,2.9,2.4,5.3,5.3,5.3l0,0c2.9,0,5.3-2.4,5.3-5.3v-13.1c0-2.9-2.4-5.3-5.3-5.3l0,0
				C95.4,215.4,93,217.7,93,220.7z"/>
			<g>
				<path class="st58" d="M92.9,221v12.7c0,3,2.4,5.5,5.4,5.5c3,0,5.4-2.5,5.4-5.5c0-0.2-0.1-0.3-0.3-0.3s-0.3,0.1-0.3,0.3
					c0,2.7-2.1,4.9-4.8,4.9c-2.6,0-4.8-2.2-4.8-4.9V221c0-0.2-0.1-0.3-0.3-0.3C93.1,220.7,92.9,220.8,92.9,221z"/>
			</g>
			<g>
				<path class="st59" d="M101.8,231.9l-6.6,0l0,3c0,1.7,1.4,3.1,3.1,3.1l0.3,0c1.7,0,3.1-1.4,3.1-3.1L101.8,231.9z"/>
				<path class="st60" d="M95.2,231.9l6.6,0C101.8,231.9,98.4,234.5,95.2,231.9z"/>
			</g>
			<g>
				<path class="st61" d="M100.6,218.1l-4.6,0c-0.3,0-0.5,0.2-0.5,0.5l0,0c0,0.3,0.2,0.5,0.5,0.5l4.6,0c0.3,0,0.5-0.2,0.5-0.5l0,0
					C101.1,218.3,100.9,218.1,100.6,218.1z"/>
				<path class="st61" d="M100,219.8l-3.4,0c-0.3,0-0.5,0.2-0.5,0.5l0,0c0,0.3,0.2,0.5,0.5,0.5l3.4,0c0.3,0,0.5-0.2,0.5-0.5l0,0
					C100.5,220,100.2,219.8,100,219.8z"/>
			</g>
		</g>
		<g>
			<path class="st57" d="M82.1,218.9V232c0,2.9,2.4,5.3,5.3,5.3l0,0c2.9,0,5.3-2.4,5.3-5.3v-13.1c0-2.9-2.4-5.3-5.3-5.3h0
				C84.5,213.5,82.1,215.9,82.1,218.9z"/>
			<g>
				<path class="st59" d="M90.7,230l-6.5,0l0,2.9c0,1.7,1.4,3.1,3.1,3.1l0.3,0c1.7,0,3.1-1.4,3.1-3.1L90.7,230z"/>
				<path class="st60" d="M84.2,229.9l6.5,0C90.7,230,87.3,232.5,84.2,229.9z"/>
			</g>
			<g>
				<path class="st58" d="M82,219.3V232c0,3,2.4,5.5,5.4,5.5c3,0,5.4-2.5,5.4-5.5c0-0.2-0.1-0.3-0.3-0.3c-0.2,0-0.3,0.1-0.3,0.3
					c0,2.7-2.1,4.9-4.8,4.9s-4.8-2.2-4.8-4.9v-12.7c0-0.2-0.1-0.3-0.3-0.3C82.2,219,82,219.1,82,219.3z"/>
			</g>
			<g>
				<path class="st61" d="M89.7,215.8l-4.6,0c-0.3,0-0.5,0.2-0.5,0.5l0,0c0,0.3,0.2,0.5,0.5,0.5l4.6,0c0.3,0,0.5-0.2,0.5-0.5l0,0
					C90.2,216.1,90,215.8,89.7,215.8z"/>
				<path class="st61" d="M89.1,217.6l-3.4,0c-0.3,0-0.5,0.2-0.5,0.5l0,0c0,0.3,0.2,0.5,0.5,0.5l3.4,0c0.3,0,0.5-0.2,0.5-0.5l0,0
					C89.6,217.8,89.4,217.6,89.1,217.6z"/>
			</g>
		</g>
		<g>
			<path class="st57" d="M71.2,218.6v13.1c0,2.9,2.4,5.3,5.3,5.3l0,0c2.9,0,5.3-2.4,5.3-5.3v-13.1c0-2.9-2.4-5.3-5.3-5.3l0,0
				C73.6,213.3,71.2,215.7,71.2,218.6z"/>
			<g>
				<path class="st59" d="M79.6,230.2l-6,0l0,2.7c0,1.6,1.3,2.9,2.9,2.9l0.3,0c1.6,0,2.9-1.3,2.9-2.9L79.6,230.2z"/>
				<path class="st60" d="M73.5,230.2l6,0C79.6,230.2,76.5,232.6,73.5,230.2z"/>
			</g>
			<g>
				<path class="st58" d="M71.2,219v12.7c0,3,2.4,5.5,5.4,5.5c3,0,5.4-2.5,5.4-5.5c0-0.2-0.1-0.3-0.3-0.3c-0.2,0-0.3,0.1-0.3,0.3
					c0,2.7-2.1,4.9-4.8,4.9c-2.6,0-4.8-2.2-4.8-4.9V219c0-0.2-0.1-0.3-0.3-0.3S71.2,218.8,71.2,219z"/>
			</g>
			<g>
				<path class="st61" d="M78.8,215.4l-4.6,0c-0.3,0-0.5,0.2-0.5,0.5l0,0c0,0.3,0.2,0.5,0.5,0.5l4.6,0c0.3,0,0.5-0.2,0.5-0.5l0,0
					C79.3,215.6,79.1,215.4,78.8,215.4z"/>
				<path class="st61" d="M78.2,217.1l-3.4,0c-0.3,0-0.5,0.2-0.5,0.5l0,0c0,0.3,0.2,0.5,0.5,0.5l3.4,0c0.3,0,0.5-0.2,0.5-0.5l0,0
					C78.7,217.3,78.5,217.1,78.2,217.1z"/>
			</g>
		</g>
		<g>
			<path class="st57" d="M62.3,221.8v10.7c0,2.4,2,4.4,4.4,4.4l0,0c2.4,0,4.4-2,4.4-4.4v-10.7c0-2.4-2-4.4-4.4-4.4l0,0
				C64.2,217.4,62.3,219.4,62.3,221.8z"/>
			<g>
				<path class="st59" d="M69.2,231.3l-5.2,0l0,2.3c0,1.4,1.1,2.5,2.4,2.5l0.3,0c1.4,0,2.5-1.1,2.5-2.4L69.2,231.3z"/>
				<path class="st60" d="M64.1,231.3l5.2,0C69.2,231.3,66.6,233.3,64.1,231.3z"/>
			</g>
			<g>
				<path class="st58" d="M62.3,221.3v11c0,2.6,2,4.7,4.4,4.7c2.4,0,4.4-2.1,4.4-4.7c0-0.1-0.1-0.2-0.2-0.2c-0.1,0-0.2,0.1-0.2,0.2
					c0,2.3-1.8,4.2-3.9,4.2c-2.2,0-3.9-1.9-3.9-4.2v-11c0-0.1-0.1-0.2-0.2-0.2C62.4,221.1,62.3,221.2,62.3,221.3z"/>
			</g>
			<g>
				<path class="st61" d="M68.3,218.9l-3.3,0c-0.2,0-0.4,0.2-0.4,0.4l0,0c0,0.2,0.2,0.4,0.4,0.4l3.3,0c0.2,0,0.4-0.2,0.4-0.4l0,0
					C68.6,219,68.5,218.9,68.3,218.9z"/>
				<path class="st61" d="M67.9,220.1l-2.4,0c-0.2,0-0.4,0.2-0.4,0.3l0,0c0,0.2,0.2,0.4,0.4,0.4l2.4,0c0.2,0,0.4-0.2,0.4-0.4l0,0
					C68.2,220.3,68,220.1,67.9,220.1z"/>
			</g>
		</g>
	</g>
</g>
<rect x="75" y="255.3" class="st32" width="97.3" height="15.2"/>
<text transform="matrix(1 0 0 1 75 268.2207)" class="st21 st62 st63">COVERED</text>
</svg>
