<svg xmlns="http://www.w3.org/2000/svg" viewBox="0 0 600 300"><defs><style>.cls-1{isolation:isolate;}.cls-2{fill:#fff;}.cls-3{fill:#f2f2f2;}.cls-20,.cls-27,.cls-3,.cls-44,.cls-46,.cls-55,.cls-57,.cls-62{mix-blend-mode:multiply;}.cls-4{fill:#f57263;}.cls-28,.cls-29,.cls-30,.cls-32,.cls-36,.cls-40,.cls-5,.cls-51,.cls-52,.cls-53,.cls-54,.cls-60,.cls-63,.cls-65,.cls-68,.cls-69,.cls-70,.cls-71,.cls-72,.cls-73,.cls-9{fill:none;}.cls-6{fill:#c1c1c1;}.cls-7{fill:#f7f6d7;}.cls-8{fill:#d6d6d6;}.cls-9{stroke:#545454;stroke-width:2.06px;}.cls-28,.cls-29,.cls-30,.cls-32,.cls-36,.cls-40,.cls-51,.cls-52,.cls-53,.cls-54,.cls-60,.cls-63,.cls-65,.cls-68,.cls-69,.cls-70,.cls-71,.cls-72,.cls-73,.cls-9{stroke-linecap:round;}.cls-24,.cls-28,.cls-29,.cls-30,.cls-32,.cls-36,.cls-40,.cls-51,.cls-53,.cls-54,.cls-63,.cls-65,.cls-68,.cls-69,.cls-70,.cls-71,.cls-72,.cls-73,.cls-9{stroke-miterlimit:10;}.cls-12,.cls-13,.cls-14,.cls-15,.cls-18,.cls-19,.cls-22,.cls-24,.cls-31,.cls-35,.cls-40,.cls-48,.cls-50,.cls-53,.cls-54,.cls-59,.cls-63,.cls-64,.cls-9{mix-blend-mode:screen;}.cls-10{fill:#696969;}.cls-11{fill:#98dddf;}.cls-12{fill:#575757;}.cls-13{fill:#3d3d3d;}.cls-14{fill:#8f8f8f;}.cls-15{fill:#1a1a1a;}.cls-16{fill:#e66b5d;}.cls-17{fill:#f5ca7f;}.cls-18{fill:#545454;}.cls-19{fill:#262626;}.cls-20{fill:#e6e6e6;}.cls-21{fill:#4f4f4f;}.cls-23{fill:#121212;}.cls-24{fill:#171717;stroke:#231f20;stroke-width:0.84px;}.cls-25{fill:#d1cece;}.cls-26,.cls-27{fill:#e2dfdf;}.cls-28{stroke:#616161;stroke-width:8.23px;}.cls-29{stroke:#7d7d7d;stroke-width:3.43px;}.cls-30,.cls-32{stroke:#d16154;}.cls-30{stroke-width:6.24px;}.cls-31{fill:#4d4d4d;}.cls-32{stroke-width:2.3px;}.cls-33{fill:#cf6054;}.cls-34{fill:#d16154;}.cls-35{fill:#1f1f1f;}.cls-36{stroke:#f07061;stroke-width:1.56px;}.cls-37{fill:#004a6b;}.cls-38{fill:#595959;}.cls-39,.cls-59{fill:#4a4a4a;}.cls-40,.cls-54{stroke:#171717;}.cls-40{stroke-width:2.39px;}.cls-41{fill:#004361;}.cls-42{fill:#856f53;}.cls-43{fill:#6e5b45;}.cls-44{fill:#b3b3b3;}.cls-45{fill:#fdd0a2;}.cls-46{fill:#f0f0f0;}.cls-47{fill:#82694f;}.cls-48{fill:#333;}.cls-49{fill:#e38d36;}.cls-50{fill:#0f0f0f;}.cls-51{stroke:#e38d36;stroke-width:9.54px;}.cls-52{stroke:#f2c79b;}.cls-52,.cls-60{stroke-linejoin:round;stroke-width:7.16px;}.cls-53{stroke:#333;stroke-width:1.79px;}.cls-54{stroke-width:2.29px;}.cls-55{fill:#ededed;}.cls-56{fill:#003f5c;}.cls-57{fill:#e8e8e8;}.cls-58{fill:#004f73;}.cls-60{stroke:#fdd0a2;}.cls-61,.cls-62{fill:#dbdbdb;}.cls-63{stroke:#262626;}.cls-63,.cls-65,.cls-69,.cls-70,.cls-71,.cls-72,.cls-73{stroke-width:2px;}.cls-64{fill:#292929;}.cls-65{stroke:#d6d6d6;}.cls-66{fill:#969596;}.cls-67{fill:#a7a6a8;}.cls-68,.cls-69{stroke:#f57263;}.cls-70{stroke:#6fb15f;}.cls-71{stroke:#a6a6a6;}.cls-72{stroke:gray;}.cls-73{stroke:#8f8f8f;}.cls-74{fill:#6fb15f;}</style></defs><title>Artboard 2</title><g class="cls-1"><g id="Layer_2" data-name="Layer 2"><rect class="cls-2" x="7" y="7" width="582" height="284"/><rect class="cls-2" x="7" y="7" width="582" height="284"/></g><g id="Layer_1" data-name="Layer 1"><ellipse class="cls-3" cx="300" cy="231.37" rx="266.19" ry="35.26"/><path class="cls-4" d="M119.06,190.2c.46-9.11,3.39-20.28,4.77-24.71s3.11-10.22,6.42-13.48a18.3,18.3,0,0,1,5.16-3.57,57.45,57.45,0,0,1,14.68-22.25,58.91,58.91,0,0,1,12.27-8.64c12.1-6.36,22.08-5.74,56.44-6.29h0c17,0,35.62.21,49.9,2a59.22,59.22,0,0,1,10.45,2.23,67.44,67.44,0,0,1,8,3.18,111,111,0,0,1,12.91,7c7,4.42,21.86,14.82,40.77,29.32,0,0,24.39,3.23,32.9,5.91,6.32,2,21.3,7.51,28.08,17.71a40.21,40.21,0,0,1,4,7.93c.59,1.72,1.51,4.79,2,12.47a125.43,125.43,0,0,1,0,15.12s0,0,0,0a2.72,2.72,0,0,1,2.08,2.33c.11,1.86,0,6.52,0,6.52s-.21.94-.56,1.05-9.64,1.52-11.62,1.55c-1.46,0-10.66.53-15.38.8a28.59,28.59,0,1,0-54.51-12.06c0,4.37,1,6.95,2.74,10.66H190.48s-1.77-.08-4.67-.24c1.68-3.64,2.63-6.14,2.63-10.42A28.59,28.59,0,1,0,132,220.81c-9.59-2.9-11.74-3.49-12.52-10.52A141.87,141.87,0,0,1,119.06,190.2Z"/><path class="cls-5" d="M231,120a2.59,2.59,0,0,1,2.62-2.58c19.36.28,26.71,1.15,30.79,1.72a67.06,67.06,0,0,1,13,2.86A65.88,65.88,0,0,1,289,127.25c11.43,6.32,19.5,11.27,26.25,18.2,2.38,2.45,4.67,5.16,3.88,7.49-.58,1.71-2.59,2.56-3.92,3a2.63,2.63,0,0,1-.79.09l-80.88-2.58a2.58,2.58,0,0,1-2.49-2.58Z"/><path class="cls-6" d="M368.17,160a59.18,59.18,0,0,1,21.9,6.76s10.53,5.74,14.08,13.85c.37.84,1.34,3.05.41,4.12-.48.57-1.29.6-2.56.56-3.88-.13-6.55-.22-10-1.9a22.74,22.74,0,0,1-3.31-2c-5.44-3.86-5.63-6.43-9-9.09-5.91-4.65-11.37-1.57-14.38-6.34-.3-.48-1.89-3-.81-4.68C365.42,159.77,367.85,159.93,368.17,160Z"/><path class="cls-7" d="M388,174a9.07,9.07,0,0,1,3.24-6.59c2.79,1.72,9.85,6.54,12.77,12.86A9.09,9.09,0,0,1,388,174Z"/><path class="cls-8" d="M382.34,170.91a8.37,8.37,0,0,1-8-9.95A58.11,58.11,0,0,1,390,166.69,8.46,8.46,0,0,1,382.34,170.91Z"/><path class="cls-9" d="M402.92,182.66s-5-8.84-13.39-14.35-20.84-6.7-20.84-6.7"/><path class="cls-10" d="M119.21,226.43H407a6.2,6.2,0,0,0,6.2-6.21h0A6.2,6.2,0,0,0,407,214H119.21a6.2,6.2,0,0,0-6.2,6.2h0A6.2,6.2,0,0,0,119.21,226.43Z"/><path class="cls-11" d="M224,120a2.59,2.59,0,0,1,2.63-2.58c19.35.28,26.7,1.15,30.78,1.72a67.06,67.06,0,0,1,13,2.86,65.54,65.54,0,0,1,11.57,5.27c11.43,6.32,19.5,11.27,26.26,18.2,2.37,2.45,4.66,5.16,3.87,7.49-.58,1.71-2.59,2.56-3.92,3a2.59,2.59,0,0,1-.79.09l-80.87-2.58a2.59,2.59,0,0,1-2.5-2.58Z"/><path class="cls-12" d="M303.44,152.86c1.46-.44,2.13-1,2.26-1.39.18-.54-.22-1.83-3.18-4.87-6-6.21-13.29-10.75-24.52-17a60.72,60.72,0,0,0-10.66-4.86,61.94,61.94,0,0,0-12-2.63c-2.85-.4-9.53-1.34-29.07-1.62a.23.23,0,0,0-.24.22v29.42a.22.22,0,0,0,.22.23l77.13,2.47Z"/><path class="cls-13" d="M229,140.37h0a1.41,1.41,0,0,0,1.4-1.41V123.75a1.41,1.41,0,0,0-1.4-1.41h0a1.41,1.41,0,0,0-1.41,1.41V139A1.41,1.41,0,0,0,229,140.37Z"/><path class="cls-13" d="M229,140.37h0a1.41,1.41,0,0,0,1.4-1.41v-9.79a1.41,1.41,0,0,0-1.4-1.41h0a1.41,1.41,0,0,0-1.41,1.41V139A1.41,1.41,0,0,0,229,140.37Z"/><path class="cls-13" d="M229,140.37h0a1.41,1.41,0,0,0,1.4-1.41v-2.12a1.41,1.41,0,0,0-1.4-1.41h0a1.41,1.41,0,0,0-1.41,1.41V139A1.41,1.41,0,0,0,229,140.37Z"/><path class="cls-14" d="M229,148.87h0a1.41,1.41,0,0,0,1.4-1.41v-2.12a1.41,1.41,0,0,0-1.4-1.41h0a1.41,1.41,0,0,0-1.41,1.41v2.12A1.41,1.41,0,0,0,229,148.87Z"/><path class="cls-11" d="M149.25,139.67a49.41,49.41,0,0,1,6.93-9,48.5,48.5,0,0,1,10-7.73c9.84-5.69,18-5.14,45.89-5.64h1.85a2.76,2.76,0,0,1,2.62,2.89v29.94a2.76,2.76,0,0,1-2.71,2.89L154.53,151C149.36,150.76,146.4,144.42,149.25,139.67Z"/><path class="cls-12" d="M213.9,151a.53.53,0,0,0,.5-.55V120.46a.53.53,0,0,0-.5-.55h-1.85l-8.39.13c-21.08.32-28.19.42-36.51,5.23a44.85,44.85,0,0,0-16.12,16,5.26,5.26,0,0,0-.25,5,4.39,4.39,0,0,0,3.82,2.65Z"/><path class="cls-13" d="M210.27,140.37h0a1.35,1.35,0,0,0,1.28-1.41V123.75a1.35,1.35,0,0,0-1.28-1.41h0a1.35,1.35,0,0,0-1.28,1.41V139A1.35,1.35,0,0,0,210.27,140.37Z"/><path class="cls-13" d="M210.27,140.37h0a1.35,1.35,0,0,0,1.28-1.41v-9.79a1.35,1.35,0,0,0-1.28-1.41h0a1.35,1.35,0,0,0-1.28,1.41V139A1.35,1.35,0,0,0,210.27,140.37Z"/><path class="cls-13" d="M210.27,140.37h0a1.35,1.35,0,0,0,1.28-1.41v-2.12a1.35,1.35,0,0,0-1.28-1.41h0a1.35,1.35,0,0,0-1.28,1.41V139A1.35,1.35,0,0,0,210.27,140.37Z"/><path class="cls-14" d="M210.27,148.87h0a1.35,1.35,0,0,0,1.28-1.41v-2.12a1.35,1.35,0,0,0-1.28-1.41h0a1.35,1.35,0,0,0-1.28,1.41v2.12A1.35,1.35,0,0,0,210.27,148.87Z"/><path class="cls-15" d="M199.5,220.22H316.88a2.38,2.38,0,0,0,2.38-2.37h0a2.38,2.38,0,0,0-2.38-2.38H199.5a2.37,2.37,0,0,0-2.38,2.38h0A2.37,2.37,0,0,0,199.5,220.22Z"/><path class="cls-15" d="M393.92,220.22h11.7a2.37,2.37,0,0,0,2.38-2.37h0a2.37,2.37,0,0,0-2.38-2.38h-11.7a2.37,2.37,0,0,0-2.38,2.38h0A2.37,2.37,0,0,0,393.92,220.22Z"/><path class="cls-15" d="M119.35,220.22h5.4a2.37,2.37,0,0,0,2.37-2.37h0a2.37,2.37,0,0,0-2.37-2.38h-5.4a2.38,2.38,0,0,0-2.38,2.38h0A2.38,2.38,0,0,0,119.35,220.22Z"/><rect class="cls-16" x="369.28" y="188.81" width="41.11" height="13.8" rx="3.95" ry="3.95" transform="translate(779.66 391.42) rotate(180)"/><rect class="cls-16" x="113.46" y="188.81" width="34.22" height="14.41" rx="3.68" ry="3.68" transform="translate(261.14 392.03) rotate(180)"/><path class="cls-3" d="M410.39,195.71v2.95a4,4,0,0,1-3.95,4H373.23a4,4,0,0,1-4-4v-2.95Z"/><rect class="cls-17" x="393.29" y="204.78" width="12.61" height="6.83" rx="3.42" ry="3.42" transform="translate(799.19 416.39) rotate(-180)"/><rect class="cls-18" x="395.22" y="205.81" width="8.83" height="2.36" rx="1.18" ry="1.18" transform="translate(799.26 413.98) rotate(-180)"/><rect class="cls-17" x="115.74" y="191.05" width="12.61" height="6.83" rx="3.42" ry="3.42" transform="translate(244.1 388.94) rotate(-180)"/><rect class="cls-18" x="117.67" y="192.08" width="8.83" height="2.36" rx="1.18" ry="1.18" transform="translate(244.17 386.53) rotate(180)"/><path class="cls-19" d="M388.15,194.47h18.17a2.11,2.11,0,0,0,2.12-2.11h0a2.11,2.11,0,0,0-2.12-2.11H388.15a2.11,2.11,0,0,0-2.11,2.11h0A2.11,2.11,0,0,0,388.15,194.47Z"/><path class="cls-20" d="M340,188.81,322.7,214h-9.49a42.67,42.67,0,0,1,77.11-25.21Z"/><path class="cls-20" d="M176.83,188.81,194.12,214h9.49a42.67,42.67,0,0,0-77.11-25.21Z"/><path class="cls-21" d="M327.87,214a28,28,0,1,0,28-28A28,28,0,0,0,327.87,214Z"/><g class="cls-22"><path class="cls-23" d="M355.34,238.63a1.87,1.87,0,0,0,.09-3.74A21.56,21.56,0,0,1,340,227.27a1.87,1.87,0,1,0-2.85,2.43,25.62,25.62,0,0,0,18.15,8.93Z"/></g><path class="cls-24" d="M337.89,214a18,18,0,1,0,18-18A18,18,0,0,0,337.89,214Z"/><path class="cls-25" d="M342.5,214a13.39,13.39,0,1,0,13.39-13.39A13.39,13.39,0,0,0,342.5,214Z"/><path class="cls-26" d="M345.1,214a10.79,10.79,0,1,0,10.79-10.8A10.8,10.8,0,0,0,345.1,214Z"/><path class="cls-27" d="M348.83,214a7.06,7.06,0,1,0,7.06-7.06A7.06,7.06,0,0,0,348.83,214Z"/><path class="cls-28" d="M382.28,224.94a29,29,0,1,0-52.35.9"/><path class="cls-29" d="M384.94,212.78a29,29,0,0,0-29.05-29.06"/><path class="cls-29" d="M326.84,212.78a29,29,0,0,1,11.49-23.15"/><path class="cls-21" d="M133.19,214a28,28,0,1,0,28-28A28,28,0,0,0,133.19,214Z"/><g class="cls-22"><path class="cls-23" d="M160.66,238.63a1.87,1.87,0,0,0,.09-3.74,21.56,21.56,0,0,1-15.48-7.62,1.87,1.87,0,0,0-2.85,2.43,25.6,25.6,0,0,0,18.15,8.93Z"/></g><path class="cls-24" d="M143.21,214a18,18,0,1,0,18-18A18,18,0,0,0,143.21,214Z"/><path class="cls-25" d="M147.82,214a13.39,13.39,0,1,0,13.39-13.39A13.39,13.39,0,0,0,147.82,214Z"/><path class="cls-26" d="M150.41,214a10.8,10.8,0,1,0,10.8-10.8A10.81,10.81,0,0,0,150.41,214Z"/><path class="cls-27" d="M154.15,214a7.06,7.06,0,1,0,7.06-7.06A7.06,7.06,0,0,0,154.15,214Z"/><path class="cls-28" d="M187.6,224.94a29,29,0,1,0-52.35.9"/><path class="cls-29" d="M190.26,212.78a29,29,0,0,0-29-29.06"/><path class="cls-29" d="M132.16,212.78a29,29,0,0,1,11.49-23.15"/><path class="cls-3" d="M317.15,172.42c-5.1,3.52-15.55,12.69-18.49,30.21a10.61,10.61,0,0,1-10.49,8.93l-52.4-.27a11.28,11.28,0,0,1-11.09-9.58c-1-6.61-1.89-17.33-1.52-34.17a8.37,8.37,0,0,1,8.42-8.19c31.42.2,67.63.87,82,1.16A6.52,6.52,0,0,1,320,167h0A6.55,6.55,0,0,1,317.15,172.42Z"/><path class="cls-30" d="M360.72,171.62s-42.37-5.26-47.51,42.4"/><path class="cls-30" d="M156.1,171.62s42.38-5.26,47.51,42.4"/><path class="cls-17" d="M120.11,157.33h3.35a6,6,0,0,1,6,6v6.59a6,6,0,0,1-6,6h-3.35a3.52,3.52,0,0,1-3.52-3.52V160.85A3.52,3.52,0,0,1,120.11,157.33Z" transform="translate(246.06 333.28) rotate(180)"/><path class="cls-31" d="M119.54,172.33h0a2,2,0,0,0,2-2v-7.41a2,2,0,0,0-2-2h0a2,2,0,0,0-2,2v7.41A2,2,0,0,0,119.54,172.33Z"/><path class="cls-32" d="M261.78,210.58l-26-.14a11.15,11.15,0,0,1-11.09-9.26c-1-6.39-1.89-16.77-1.52-33.06a8.25,8.25,0,0,1,8.42-7.92"/><rect class="cls-33" x="228.28" y="163.92" width="16.73" height="5.85" rx="2.57" ry="2.57" transform="translate(473.29 333.69) rotate(180)"/><path class="cls-3" d="M245,166.49v.71a2.57,2.57,0,0,1-2.57,2.57H230.85a2.57,2.57,0,0,1-2.57-2.57v-.71a2.58,2.58,0,0,1,0-.29H245A2.58,2.58,0,0,1,245,166.49Z"/><path class="cls-34" d="M212.61,211.94h85.76a2.23,2.23,0,0,0,2.23-2.23h0a2.23,2.23,0,0,0-2.23-2.23H212.61a2.23,2.23,0,0,0-2.23,2.23h0A2.23,2.23,0,0,0,212.61,211.94Z"/><path class="cls-11" d="M340.86,155h-10.3a15.14,15.14,0,0,1-11.41-5.2c-5.8-6.64-18.1-18.39-38.86-27.7a1.14,1.14,0,0,1,.47-2.18l9.07,0S311.64,130.61,340.86,155Z"/><path class="cls-3" d="M152.09,163.21H214.7a1.82,1.82,0,0,0,1.82-1.82h0a1.81,1.81,0,0,0-1.82-1.82H152.09a1.81,1.81,0,0,0-1.82,1.82h0A1.82,1.82,0,0,0,152.09,163.21Z"/><path class="cls-4" d="M249.41,113.67h10.4a3.32,3.32,0,0,0,3.32-3.31h0a3.32,3.32,0,0,0-3.32-3.32h-10.4a3.32,3.32,0,0,0-3.31,3.32h0A3.31,3.31,0,0,0,249.41,113.67Z"/><path class="cls-35" d="M249.41,107h10.4a3.32,3.32,0,0,1,3.32,3.32h-17A3.32,3.32,0,0,1,249.41,107Z"/><line class="cls-36" x1="263.13" y1="110.36" x2="246.1" y2="110.36"/><path class="cls-4" d="M192.55,113.67H203a3.31,3.31,0,0,0,3.31-3.31h0A3.32,3.32,0,0,0,203,107h-10.4a3.32,3.32,0,0,0-3.32,3.32h0A3.31,3.31,0,0,0,192.55,113.67Z"/><path class="cls-35" d="M192.55,107H203a3.32,3.32,0,0,1,3.31,3.32h-17A3.32,3.32,0,0,1,192.55,107Z"/><line class="cls-36" x1="206.26" y1="110.36" x2="189.23" y2="110.36"/><rect class="cls-4" x="150.86" y="113.74" width="37.18" height="5.72" rx="2.8" ry="2.8" transform="translate(351.14 213.02) rotate(173.42)"/><path class="cls-11" d="M156.53,120.94h0a2.37,2.37,0,0,1,1.72,4.13c-5.2,4.62-12.62,12.36-16.13,21.38a4.33,4.33,0,0,1-5.48,2.49l-1.42-.5A56.41,56.41,0,0,1,156.53,120.94Z"/><path class="cls-4" d="M337.93,167.15h0a4.87,4.87,0,0,1-1.28-6.77l30.43-44.65a4.88,4.88,0,0,1,6.77-1.28h0a4.87,4.87,0,0,1,1.28,6.77L344.7,165.87A4.88,4.88,0,0,1,337.93,167.15Z"/><path class="cls-37" d="M439.85,231.76h0a5.85,5.85,0,0,1-5.64-6.06l1.23-34.39a5.85,5.85,0,0,1,6.06-5.64h0a5.85,5.85,0,0,1,5.64,6.06l-1.23,34.39A5.86,5.86,0,0,1,439.85,231.76Z"/><path class="cls-38" d="M434.09,211.64a.88.88,0,0,0,0,.16L433,234a6.28,6.28,0,0,0,6,6.57h.31a6.25,6.25,0,0,0,6.25-6l1.11-22.23a1.08,1.08,0,0,0,0-.18Z"/><path class="cls-21" d="M446.58,213.44h-.06L434,212.83a1.18,1.18,0,0,1-1.13-1.25,1.19,1.19,0,0,1,1.25-1.13l12.49.61a1.19,1.19,0,0,1-.06,2.38Z"/><path class="cls-38" d="M430.48,229h15.07a0,0,0,0,1,0,0v9.33a2.32,2.32,0,0,1-2.32,2.32h-19.1a2.06,2.06,0,0,1-2.06-2.06v-1.17A8.42,8.42,0,0,1,430.48,229Z"/><path class="cls-39" d="M445.08,241.19H422.22a1.14,1.14,0,0,1-1.13-1.14h0a1.14,1.14,0,0,1,1.13-1.14h22.86a1.14,1.14,0,0,1,1.14,1.14h0A1.14,1.14,0,0,1,445.08,241.19Z"/><path class="cls-15" d="M432.71,231c.84,1.5-.54,3.86-3.08,5.29s-5.28,1.36-6.12-.14.54-3.86,3.08-5.28S431.87,229.53,432.71,231Z"/><path class="cls-37" d="M468.23,197.69h0a5.86,5.86,0,0,0,5-6.62l-3.11-21.7a5.85,5.85,0,0,0-6.62-5h0a5.85,5.85,0,0,0-5,6.62l3.1,21.7A5.86,5.86,0,0,0,468.23,197.69Z"/><path class="cls-37" d="M468.9,232.88h0a5.86,5.86,0,0,0,5.65-6.06l-1.24-34.39a5.86,5.86,0,0,0-6.06-5.64h0a5.85,5.85,0,0,0-5.64,6.06l1.23,34.39A5.85,5.85,0,0,0,468.9,232.88Z"/><path class="cls-37" d="M439.3,196.74h0a5.86,5.86,0,0,1-3.36-7.57l7.88-20.45a5.86,5.86,0,0,1,7.57-3.36h0a5.86,5.86,0,0,1,3.36,7.57l-7.88,20.45A5.86,5.86,0,0,1,439.3,196.74Z"/><line class="cls-40" x1="443.95" y1="175.14" x2="438.41" y2="189.75"/><path class="cls-38" d="M474.11,212.76c0,.06,0,.11,0,.17l1.11,22.23a6.26,6.26,0,0,1-5.94,6.57H469a6.26,6.26,0,0,1-6.25-6l-1.11-22.24v-.18Z"/><path class="cls-21" d="M461.61,214.57h.06l12.49-.61a1.2,1.2,0,1,0-.11-2.39l-12.5.61a1.2,1.2,0,0,0,.06,2.39Z"/><path class="cls-38" d="M464.71,230.08h19.1a2.32,2.32,0,0,1,2.32,2.32v9.33a0,0,0,0,1,0,0H471.07a8.42,8.42,0,0,1-8.42-8.42v-1.17A2.06,2.06,0,0,1,464.71,230.08Z" transform="translate(948.78 471.82) rotate(180)"/><path class="cls-39" d="M463.11,242.31H486a1.14,1.14,0,0,0,1.14-1.13h0A1.14,1.14,0,0,0,486,240H463.11a1.14,1.14,0,0,0-1.13,1.14h0A1.14,1.14,0,0,0,463.11,242.31Z"/><path class="cls-15" d="M475.48,232.16c-.83,1.49.54,3.86,3.08,5.28s5.28,1.36,6.12-.13-.54-3.87-3.08-5.29S476.32,230.66,475.48,232.16Z"/><path class="cls-41" d="M459.84,84.72,439.7,91.09a3.1,3.1,0,0,0-2,3.89h0a3.09,3.09,0,0,0,3.88,2l20.14-6.37a3.1,3.1,0,0,0,2-3.89h0A3.09,3.09,0,0,0,459.84,84.72Z"/><path class="cls-42" d="M419.93,90h0a3.37,3.37,0,0,0-2.21,4.25l4.21,13.32a3.39,3.39,0,0,0,4.25,2.21h0a3.4,3.4,0,0,0,2.21-4.26l-4.21-13.32A3.38,3.38,0,0,0,419.93,90Z"/><path class="cls-42" d="M446.81,81.48h0a3.38,3.38,0,0,0-2.21,4.25l4.21,13.32a3.39,3.39,0,0,0,4.25,2.21h0A3.38,3.38,0,0,0,455.27,97l-4.21-13.32A3.38,3.38,0,0,0,446.81,81.48Z"/><path class="cls-43" d="M455.25,96.93s-.52-1.1-1.17-2.78c-.33-.84-.69-1.82-1.07-2.89-.18-.53-.38-1.07-.56-1.64l-.55-1.7c-.18-.57-.35-1.14-.53-1.71s-.32-1.12-.48-1.66a6.53,6.53,0,0,0-.5-1.44,3.33,3.33,0,0,0-.86-1,3.28,3.28,0,0,0-1-.53,3.23,3.23,0,0,0-.9-.16,3.51,3.51,0,0,0-.6,0l-.21,0,.2-.08.25-.09a2.7,2.7,0,0,1,.35-.07,3.23,3.23,0,0,1,1,0,3.43,3.43,0,0,1,1.23.43A3.54,3.54,0,0,1,451,82.73a5.75,5.75,0,0,1,.71,1.56c.18.53.38,1.08.56,1.64s.37,1.13.55,1.7.35,1.15.53,1.72.32,1.12.48,1.66c.3,1.08.57,2.1.78,3C455,95.73,455.25,96.93,455.25,96.93Z"/><rect class="cls-42" x="422.01" y="80.3" width="31.93" height="40.37" rx="15" ry="15" transform="translate(-9.9 136.93) rotate(-17.57)"/><path class="cls-44" d="M431.21,87.22h12.44a10,10,0,0,1,10,10v8.16a3,3,0,0,1-3,3H423.91a3,3,0,0,1-3-3V97.5a10.28,10.28,0,0,1,10.28-10.28Z" transform="translate(-9.14 136.36) rotate(-17.54)"/><rect class="cls-45" x="424.32" y="85.13" width="30.06" height="39.42" rx="13.79" ry="13.79" transform="translate(-11.15 137.54) rotate(-17.57)"/><path class="cls-45" d="M428.52,110.62a3.46,3.46,0,1,1-4.41-2.48A3.59,3.59,0,0,1,428.52,110.62Z"/><path class="cls-46" d="M424.5,109.58a2.21,2.21,0,0,0,1.33,4.21Z"/><path class="cls-45" d="M451.85,103.25A3.46,3.46,0,1,0,454,98.68,3.57,3.57,0,0,0,451.85,103.25Z"/><path class="cls-46" d="M454.54,100.08a2.21,2.21,0,0,1,1.33,4.21Z"/><path class="cls-47" d="M429.41,106.91a1,1,0,0,1-1.11-.71,1,1,0,0,1,.6-1.32l5.91-2.1a1,1,0,0,1,1.26.66,1.06,1.06,0,0,1-.6,1.33l-5.91,2.1Z"/><path class="cls-38" d="M435.45,107.81a1.26,1.26,0,1,1-1.59-.83A1.27,1.27,0,0,1,435.45,107.81Z"/><path class="cls-38" d="M446.55,104.44a1.27,1.27,0,0,1-2.41.77,1.28,1.28,0,0,1,.82-1.6A1.27,1.27,0,0,1,446.55,104.44Z"/><path class="cls-47" d="M447.87,101.2a1,1,0,0,0,.54-1.19,1,1,0,0,0-1.21-.79l-6.11,1.45a1,1,0,0,0-.69,1.24,1,1,0,0,0,1.21.79l6.11-1.45Z"/><path class="cls-2" d="M443.71,118.76a5.68,5.68,0,0,0,3.6-7.18l-10.78,3.58A5.68,5.68,0,0,0,443.71,118.76Z"/><path class="cls-48" d="M436.9,111.08c.16.51-1.07,1.35-2.75,1.89s-3.18.55-3.34,0,1.07-1.35,2.76-1.88S436.74,110.58,436.9,111.08Z"/><path class="cls-48" d="M450.24,106.87c.16.51-1.08,1.35-2.76,1.88s-3.18.55-3.34,0,1.07-1.35,2.76-1.89S450.08,106.36,450.24,106.87Z"/><path class="cls-49" d="M461.83,176h0a15.46,15.46,0,0,1-19.4-10.09l-6.89-21.79a15.46,15.46,0,0,1,10.08-19.41h0A15.48,15.48,0,0,1,465,134.74l6.89,21.8A15.47,15.47,0,0,1,461.83,176Z"/><path class="cls-2" d="M452.38,126.53a5.69,5.69,0,1,1-7.15-3.71A5.69,5.69,0,0,1,452.38,126.53Z"/><path class="cls-45" d="M447.74,130.76h0a3.84,3.84,0,0,1-4.82-2.51l-1.49-4.71a3.83,3.83,0,0,1,2.51-4.82h0a3.83,3.83,0,0,1,4.82,2.5l1.49,4.71A3.85,3.85,0,0,1,447.74,130.76Z"/><path class="cls-42" d="M449,84c1.32,4.17-4.21,9.64-12.36,12.21s-15.82,1.29-17.13-2.88,4.21-9.63,12.36-12.21S447.68,79.85,449,84Z"/><path class="cls-43" d="M446,82.47l.12.28a4,4,0,0,1,.21.81,4.28,4.28,0,0,1,0,1.34,6.24,6.24,0,0,1-.48,1.68,8.73,8.73,0,0,1-1,1.78,13.26,13.26,0,0,1-1.5,1.73,17.84,17.84,0,0,1-1.86,1.56A22.6,22.6,0,0,1,439.41,93c-.73.4-1.48.77-2.23,1.09a23.8,23.8,0,0,1-2.25.84c-.37.12-.73.22-1.1.32l-1.06.26c-.69.16-1.35.27-2,.35a19.52,19.52,0,0,1-3,.18c-.72,0-1.13-.06-1.13-.06l1.1-.23c.69-.14,1.68-.37,2.83-.7.58-.17,1.2-.36,1.85-.58.33-.1.65-.22,1-.35s.68-.24,1-.39c.7-.26,1.4-.59,2.11-.91s1.41-.69,2.09-1.08,1.36-.8,2-1.23,1.25-.88,1.81-1.36A16.2,16.2,0,0,0,444,87.69a10.46,10.46,0,0,0,1.13-1.49,7,7,0,0,0,.68-1.42,5.25,5.25,0,0,0,.25-1.2,5.11,5.11,0,0,0,0-.81Z"/><path class="cls-43" d="M448.76,87.32s0,.13-.12.36a7,7,0,0,1-.44,1l-.4.69c-.16.23-.33.5-.53.76a14,14,0,0,1-1.51,1.67c-.29.29-.62.56-1,.85s-.71.57-1.09.84a23.66,23.66,0,0,1-2.53,1.56,27.08,27.08,0,0,1-2.88,1.31c-.51.2-1,.36-1.55.54s-1,.32-1.57.46A27.26,27.26,0,0,1,432,98a22.84,22.84,0,0,1-3.17.19,16.75,16.75,0,0,1-3-.28,12.59,12.59,0,0,1-2.58-.74,8.45,8.45,0,0,1-2-1.14,5.51,5.51,0,0,1-1.18-1.3,4.53,4.53,0,0,1-.48-1l-.09-.38.17.35a4.7,4.7,0,0,0,.62.86,5.6,5.6,0,0,0,1.28,1,8.62,8.62,0,0,0,1.93.82,14.69,14.69,0,0,0,2.47.45,19.75,19.75,0,0,0,2.8.08,28.68,28.68,0,0,0,3-.29,27.7,27.7,0,0,0,3.06-.63c.5-.13,1-.26,1.52-.42s1-.31,1.47-.49c1-.35,1.91-.74,2.8-1.15s1.73-.85,2.5-1.32a23.2,23.2,0,0,0,2.1-1.42l.46-.35.42-.36c.28-.23.52-.47.75-.69s.42-.45.62-.65.34-.42.49-.59c.26-.38.49-.67.61-.9Z"/><path class="cls-50" d="M436.81,82.47c1,1.8-1.88,5.25-6.36,7.73s-8.89,3-9.86,1.22,1.88-5.25,6.35-7.72S435.84,80.68,436.81,82.47Z"/><path class="cls-37" d="M442.74,166.72a15.46,15.46,0,0,0,19.09,9.2h0a15.48,15.48,0,0,0,10.34-18.5Z"/><path class="cls-3" d="M441.74,124.53a13,13,0,0,0,3.79-.77l2.07,7s-2.68,1-4.53-2.06Z"/><rect class="cls-37" x="443.97" y="138.87" width="20.13" height="24.77" transform="translate(-24.47 143.89) rotate(-17.54)"/><line class="cls-51" x1="436.25" y1="132.87" x2="430.68" y2="142.67"/><line class="cls-51" x1="459.9" y1="125.39" x2="469.3" y2="131.62"/><path class="cls-37" d="M437.6,126.22h0a1.94,1.94,0,0,0-1.27,2.43l5.23,16.53a1.94,1.94,0,0,0,2.43,1.26h0a1.93,1.93,0,0,0,1.26-2.43L440,127.49A1.93,1.93,0,0,0,437.6,126.22Z"/><path class="cls-37" d="M453.09,121.32h0a1.94,1.94,0,0,0-1.26,2.44l5.22,16.52a1.93,1.93,0,0,0,2.43,1.26h0a1.94,1.94,0,0,0,1.27-2.43l-5.23-16.52A1.94,1.94,0,0,0,453.09,121.32Z"/><rect class="cls-37" x="440.77" y="154.17" width="30.93" height="8.14" transform="translate(-26.48 144.88) rotate(-17.54)"/><circle class="cls-2" cx="429.2" cy="145.33" r="4.92" transform="translate(103.69 460.57) rotate(-62.79)"/><path class="cls-2" d="M475.44,130.78a4.92,4.92,0,1,1-6.18-3.21A4.93,4.93,0,0,1,475.44,130.78Z"/><line class="cls-52" x1="470.53" y1="132.26" x2="476.18" y2="135.38"/><path class="cls-37" d="M470.4,151.67l-29,9.18a1.41,1.41,0,0,1-1.76-.91h0a1.41,1.41,0,0,1,.92-1.76l29-9.18a1.39,1.39,0,0,1,1.76.91h0A1.41,1.41,0,0,1,470.4,151.67Z"/><path class="cls-37" d="M460.83,139.05l-18.9,6a1.41,1.41,0,0,1-1.76-.92h0a1.42,1.42,0,0,1,.91-1.76l18.9-6a1.4,1.4,0,0,1,1.76.91h0A1.39,1.39,0,0,1,460.83,139.05Z"/><path class="cls-53" d="M435,130.09a6.83,6.83,0,0,0-2.76,2.8l-2.75,5.24"/><line class="cls-53" x1="437.05" y1="144.1" x2="440.94" y2="156.42"/><line class="cls-40" x1="438.73" y1="130.61" x2="441.74" y2="140.14"/><path class="cls-54" d="M443.85,162.84l.95,3a11.41,11.41,0,0,0,14.39,7.3l1.29-.41"/><rect class="cls-55" x="440.34" y="156.22" width="30.93" height="1.31" transform="translate(-26.09 144.69) rotate(-17.54)"/><rect class="cls-55" x="441.26" y="142.02" width="20.13" height="1.31" transform="translate(-22.01 142.68) rotate(-17.54)"/><path class="cls-56" d="M447.71,145.37H459.1a0,0,0,0,1,0,0v3.55a4.25,4.25,0,0,1-4.25,4.25H452a4.25,4.25,0,0,1-4.25-4.25v-3.55A0,0,0,0,1,447.71,145.37Z" transform="translate(-23.91 143.62) rotate(-17.54)"/><path class="cls-56" d="M458,145.25l-10.74,3.39a1,1,0,0,1-1.24-.64h0a1,1,0,0,1,.64-1.24l10.74-3.4a1,1,0,0,1,1.24.65h0A1,1,0,0,1,458,145.25Z"/><rect class="cls-57" x="447.14" y="146.92" width="11.39" height="1.13" transform="translate(-23.39 143.36) rotate(-17.54)"/><path class="cls-37" d="M431.93,76.21l-2.56.81a17.11,17.11,0,0,0-11.16,21.47l1.54,4.86,35.19-11.12-1.53-4.87A17.11,17.11,0,0,0,431.93,76.21Zm11.42,18.16-12.89,4.07-.29-.91a6.76,6.76,0,1,1,12.89-4.08Z"/><path class="cls-58" d="M454.5,92.91l-34.09,10.78a1.81,1.81,0,0,1-2.25-1.17h0a1.81,1.81,0,0,1,1.17-2.25L453.42,89.5a1.79,1.79,0,0,1,2.25,1.16h0A1.8,1.8,0,0,1,454.5,92.91Z"/><path class="cls-54" d="M429.59,79.8h0a13.26,13.26,0,0,0-8.65,16.65l.28.9"/><line class="cls-54" x1="421.1" y1="101.59" x2="443.02" y2="94.66"/><path class="cls-56" d="M469.82,157.9l-5.08,1.61a.75.75,0,0,1-.94-.49h0a.75.75,0,0,1,.49-.93l5.08-1.61a.75.75,0,0,1,.94.49h0A.74.74,0,0,1,469.82,157.9Z"/><path class="cls-56" d="M452.16,163.49l-5.09,1.61a.75.75,0,0,1-.93-.49h0a.75.75,0,0,1,.48-.94l5.09-1.6a.73.73,0,0,1,.93.48h0A.74.74,0,0,1,452.16,163.49Z"/><path class="cls-59" d="M456,141.55c.71,1.18-.63,3.28-3,4.69s-4.83,1.59-5.54.41.63-3.28,3-4.69S455.29,140.37,456,141.55Z"/><path class="cls-60" d="M428.61,145.65l-2,4.26a1.57,1.57,0,0,1-2,.77l-15.81-6.58"/><line class="cls-60" x1="457.9" y1="144.73" x2="476.21" y2="135.55"/><rect class="cls-61" x="425.74" y="140.26" width="32.75" height="22.08" rx="1.94" ry="1.94" transform="translate(-23.37 192.3) rotate(-23.93)"/><path class="cls-62" d="M444.45,151.3a2.34,2.34,0,1,1-2.33-2.33A2.34,2.34,0,0,1,444.45,151.3Z"/><line class="cls-63" x1="426.41" y1="148.97" x2="450.96" y2="138.13"/><line class="cls-63" x1="433.28" y1="164.47" x2="457.83" y2="153.64"/><path class="cls-45" d="M446.45,149.78c1.42,3.16,5.71,4.27,9.56,2.47s5.83-5.8,4.41-9-5.71-4.27-9.56-2.48S445,146.62,446.45,149.78Z"/><path class="cls-64" d="M456.59,141.93c.67,1.29-.7,3.33-3.06,4.55s-4.81,1.16-5.48-.14.7-3.33,3.06-4.55S455.92,140.63,456.59,141.93Z"/><path class="cls-45" d="M399.24,140c-1.25,3.28,1,7.14,5.06,8.63s8.33,0,9.58-3.25-1-7.14-5.06-8.63S400.49,136.7,399.24,140Z"/><path class="cls-64" d="M412.12,141.64c-.45,1.41-2.89,1.89-5.45,1.07s-4.27-2.63-3.82-4,2.89-1.88,5.45-1.06S412.57,140.24,412.12,141.64Z"/><line class="cls-65" x1="413.28" y1="139.67" x2="414.85" y2="140.16"/><rect class="cls-66" x="402.91" y="132.43" width="7.69" height="13" rx="1.7" ry="1.7" transform="translate(156.75 488.58) rotate(-73.29)"/><rect class="cls-67" x="403.43" y="131.03" width="7.5" height="13" rx="1.68" ry="1.68" transform="translate(158.39 487.97) rotate(-73.29)"/><rect class="cls-11" x="401.46" y="134.93" width="5.41" height="3.47" rx="0.34" ry="0.34" transform="translate(157.07 484.48) rotate(-73.29)"/><path class="cls-4" d="M409.83,136.74a1.57,1.57,0,1,1-1.95,1A1.57,1.57,0,0,1,409.83,136.74Z"/><line class="cls-68" x1="407.27" y1="137.55" x2="408.86" y2="138.03"/><path class="cls-19" d="M410,141.81h0a.22.22,0,0,1-.26.14l-8-2.41a.21.21,0,0,1-.14-.26h0a.21.21,0,0,1,.26-.14l8,2.41A.22.22,0,0,1,410,141.81Z"/><path class="cls-19" d="M409.58,137.59a.68.68,0,0,1,.45.84.67.67,0,0,1-.84.45.68.68,0,0,1-.45-.84A.68.68,0,0,1,409.58,137.59Z"/><path class="cls-19" d="M404,134.52l-1.13,3.75a.14.14,0,0,1-.18.1h0a.15.15,0,0,1-.1-.18l1.13-3.75a.15.15,0,0,1,.18-.1h0A.14.14,0,0,1,404,134.52Z"/><path class="cls-19" d="M404.56,134.7l-1.12,3.75a.16.16,0,0,1-.18.1h0a.16.16,0,0,1-.1-.19l1.12-3.75a.17.17,0,0,1,.19-.1h0A.15.15,0,0,1,404.56,134.7Z"/><path class="cls-19" d="M405.19,134.88l-1.13,3.76a.14.14,0,0,1-.18.09h0a.14.14,0,0,1-.09-.18l1.12-3.75a.15.15,0,0,1,.18-.1h0A.15.15,0,0,1,405.19,134.88Z"/><path class="cls-19" d="M405.77,135.06l-1.12,3.75a.15.15,0,0,1-.18.1h0a.14.14,0,0,1-.1-.18L405.5,135a.14.14,0,0,1,.18-.1h0A.14.14,0,0,1,405.77,135.06Z"/><line class="cls-69" x1="403.41" y1="141.58" x2="402.8" y2="143.77"/><line class="cls-70" x1="406.76" y1="142.67" x2="406.14" y2="144.86"/><path class="cls-71" d="M415.7,140.41h0a2.19,2.19,0,0,1,1.51,2.12l-.7,39.94a2.2,2.2,0,0,0,2.19,2.24h3.38a2.19,2.19,0,0,0,2.19-2.2v-21.2a2.21,2.21,0,0,1,1.72-2.15l1.54-.35"/><path class="cls-72" d="M405.78,146v54.08a10.36,10.36,0,0,1-10.36,10.37h0a10.37,10.37,0,0,1-10.37-10.37V156.51a4.81,4.81,0,0,0-4.81-4.82h0a4.81,4.81,0,0,0-4.81,4.82v4.77"/><path class="cls-73" d="M402.57,144.52v40.13a6.94,6.94,0,0,1-6.94,6.93h0a6.93,6.93,0,0,1-6.93-6.93V159.31a4.4,4.4,0,0,0-4.39-4.39h0a4.39,4.39,0,0,0-4.38,4.39v3.18"/><path class="cls-74" d="M375.36,162.29h0a1.46,1.46,0,0,1-1.46-1.45V159a1.46,1.46,0,0,1,1.46-1.45h0a1.45,1.45,0,0,1,1.46,1.45v1.82A1.45,1.45,0,0,1,375.36,162.29Z"/><path class="cls-74" d="M379.93,163.72h0a1.46,1.46,0,0,1-1.46-1.46v-1.81a1.46,1.46,0,0,1,1.46-1.46h0a1.46,1.46,0,0,1,1.45,1.46v1.81A1.45,1.45,0,0,1,379.93,163.72Z"/></g></g></svg>