<svg xmlns="http://www.w3.org/2000/svg" xmlns:xlink="http://www.w3.org/1999/xlink" viewBox="0 0 500 500"><defs><style>.cls-1{fill:none;}.cls-2{isolation:isolate;}.cls-3{fill:#fff;}.cls-4{clip-path:url(#clip-path);}.cls-5{fill:#383838;}.cls-6{fill:#dfe1e1;}.cls-7{fill:#83705d;}.cls-8{fill:#feca9a;}.cls-59,.cls-9{mix-blend-mode:multiply;}.cls-10{fill:#f2f2f2;}.cls-11{fill:#f2c79b;}.cls-12,.cls-57,.cls-58{mix-blend-mode:screen;}.cls-13{fill:#1c1c1c;}.cls-14{fill:#ffda73;}.cls-15{fill:#545454;}.cls-16{fill:#737373;}.cls-17{fill:#d86a63;}.cls-18{fill:#c4605a;}.cls-19{fill:#ccc;}.cls-20{fill:#1a1a1a;}.cls-21{fill:#b3b3b3;}.cls-22{fill:#613d1f;}.cls-23{fill:#c4c4c4;}.cls-24{fill:#e07875;}.cls-25{fill:#ebebeb;}.cls-26{fill:#575757;}.cls-27{fill:#0d0d0d;}.cls-28{fill:#4f3219;}.cls-29{opacity:0.2;}.cls-30{fill:#f57263;}.cls-31{fill:#c1c1c1;}.cls-32{fill:#f7f6d7;}.cls-33{fill:#d6d6d6;}.cls-34{fill:#696969;}.cls-35{fill:#98dddf;}.cls-36{fill:#3d3d3d;}.cls-37{fill:#8f8f8f;}.cls-38{fill:#e66b5d;}.cls-39{fill:#f5ca7f;}.cls-40{fill:#262626;}.cls-41{fill:#e6e6e6;}.cls-42{fill:#4f4f4f;}.cls-43{fill:#121212;}.cls-44{fill:#171717;}.cls-45{fill:#231f20;}.cls-46{fill:#d1cece;}.cls-47{fill:#e2dfdf;}.cls-48{fill:#616161;}.cls-49{fill:#7d7d7d;}.cls-50{fill:#d16154;}.cls-51{fill:#4d4d4d;}.cls-52{fill:#cf6054;}.cls-53{fill:#1f1f1f;}.cls-54{fill:#f07061;}.cls-55,.cls-57,.cls-58{fill:#fdd0a2;}.cls-56{fill:#deb68e;}.cls-57{opacity:0.5;}.cls-58,.cls-59{opacity:0.3;}.cls-59{fill:#d8d8d8;}.cls-60{font-size:18px;fill:#6cb659;font-family:Arial-Black, Arial Black;}.cls-61{letter-spacing:-0.04em;}</style><clipPath id="clip-path"><rect class="cls-1" x="47.67" y="41" width="401.33" height="459"/></clipPath></defs><title>Illustration 3</title><g class="cls-2"><g id="Layer_1" data-name="Layer 1"><rect class="cls-3" width="500" height="500"/><g class="cls-4"><path class="cls-5" d="M246.93,730.37a24.14,24.14,0,0,1-25.15-19.56L200.32,599a221,221,0,0,1-3.73-74.84l9.33-77.2a24.15,24.15,0,0,1,48,5.79l-9.33,77.2a172.58,172.58,0,0,0,3,58.82l.15.76,21.53,112.22A24.15,24.15,0,0,1,250,730,23.81,23.81,0,0,1,246.93,730.37Z"/><path class="cls-5" d="M305.9,732c-13.34,0-24.15-10.53-24.15-23.53V458.14c0-13,10.81-23.53,24.15-23.53s24.15,10.54,24.15,23.53V708.47C330.05,721.47,319.24,732,305.9,732Z"/><circle class="cls-5" cx="267.92" cy="441.49" r="63.78" transform="translate(-244.31 507.12) rotate(-66.05)"/><path class="cls-6" d="M264.25,464.87h0A54.81,54.81,0,0,1,210.93,409l1.53-89.33a54.81,54.81,0,0,1,56.27-53.31h0a54.82,54.82,0,0,1,53.32,56.27l-1.52,88.59A54.82,54.82,0,0,1,264.25,464.87Z"/><path class="cls-6" d="M264.29,464.87h0c-33.11-.89-59.36-26.25-58.76-56.78L207,317.58c.83-30.67,28.48-54.8,61.75-53.9h0c33.28.9,59.58,26.49,58.75,57.15l-1.46,89.77C325.44,441.42,297.72,465.77,264.29,464.87Z"/><path class="cls-7" d="M325.33,408l.34,2a36,36,0,0,1,.46,5.8,49.25,49.25,0,0,1-4.49,20.9,57.83,57.83,0,0,1-21.06,24.21,62.54,62.54,0,0,1-17.34,7.94,67.09,67.09,0,0,1-19.86,2.58,79.93,79.93,0,0,1-9.71-.92,66.37,66.37,0,0,1-9.51-2.34,62.72,62.72,0,0,1-16.7-8.32,56,56,0,0,1-19.81-24.33,47.18,47.18,0,0,1-3.52-20.94,37.06,37.06,0,0,1,.78-5.8c.31-1.31.47-2,.47-2l.46,2c.25,1.28.77,3.14,1.46,5.44a59.12,59.12,0,0,0,8.63,17.18,60.32,60.32,0,0,0,19.62,17.25,62.05,62.05,0,0,0,13.61,5.5,67.83,67.83,0,0,0,7.4,1.51,59.68,59.68,0,0,0,7.8.6,61,61,0,0,0,14.93-1.59,60.2,60.2,0,0,0,13.85-5.12,61.5,61.5,0,0,0,20.37-17A64.21,64.21,0,0,0,323,415.34c.82-2.3,1.44-4.1,1.78-5.41Z"/><path class="cls-5" d="M287.39,274.36l.36.7a11.83,11.83,0,0,1,.85,2,18.17,18.17,0,0,1,.73,8.21,20.4,20.4,0,0,1-1.51,5.56A21.24,21.24,0,0,1,278.63,301a22.16,22.16,0,0,1-3.48,1.54,14.4,14.4,0,0,1-1.84.54l-.94.21-.47.1-.23.05-.12,0-.38.06a24.69,24.69,0,0,1-7.35-.22,22.43,22.43,0,0,1-6.78-2.63,22.07,22.07,0,0,1-5.07-4.26,19.82,19.82,0,0,1-3.12-4.84,17.91,17.91,0,0,1-1.79-8,12.83,12.83,0,0,1,.19-2.24l.13-.77s.58,1,1.56,2.47c.48.76,1.14,1.61,1.87,2.54a34,34,0,0,0,2.66,2.79,23.73,23.73,0,0,0,7.47,4.54,23.35,23.35,0,0,0,4.43,1,20.41,20.41,0,0,0,4.82-.16l-.25,0h.13l.14,0,.28-.06.56-.11a5.94,5.94,0,0,0,1.1-.29c.74-.19,1.44-.49,2.16-.74a24.2,24.2,0,0,0,3.92-2.32,23.78,23.78,0,0,0,5.74-6.61c.64-1.2,1.23-2.37,1.68-3.47s.78-2.1,1-2.95.4-1.62.53-2.1Z"/><path class="cls-3" d="M288.8,274.14a21.68,21.68,0,1,1-24.71-17.88A21.56,21.56,0,0,1,288.8,274.14Z"/><path class="cls-8" d="M267.77,288.25h0a17.18,17.18,0,0,1-16.94-17.41l.27-19.14,34.34.48-.26,19.14A17.18,17.18,0,0,1,267.77,288.25Z"/><g class="cls-9"><path class="cls-10" d="M285.27,259.64l-2.91.84a51.38,51.38,0,0,1-21.56.44l-5-.9s12.38,15.16,29,11.47C285.25,259.38,285.27,259.64,285.27,259.64Z"/></g><path class="cls-11" d="M98.76,226.38h0a5.19,5.19,0,0,0,6.88,2.54l13.67-6.28a5.18,5.18,0,0,0,2.54-6.88h0a5.18,5.18,0,0,0-6.88-2.54l-13.66,6.28A5.2,5.2,0,0,0,98.76,226.38Z"/><rect class="cls-5" x="258.4" y="295.29" width="17.97" height="14.18" rx="6.18" ry="6.18" transform="translate(-43.79 559.49) rotate(-88.08)"/><g class="cls-12"><path class="cls-13" d="M270.16,308.47h0a2.86,2.86,0,0,1-2.78-2.9l.13-5.47a2.85,2.85,0,0,1,2.9-2.78h0a2.84,2.84,0,0,1,2.77,2.9l-.12,5.47A2.86,2.86,0,0,1,270.16,308.47Z"/></g><rect class="cls-14" x="249.36" y="449.81" width="35.36" height="22.57" rx="7.6" ry="7.6" transform="translate(-11.9 7.1) rotate(-1.49)"/><g class="cls-12"><path class="cls-15" d="M276.75,459.87l-19.29.67a3.61,3.61,0,0,1-3.72-3.48h0a3.6,3.6,0,0,1,3.47-3.72l19.29-.67a3.61,3.61,0,0,1,3.72,3.47h0A3.61,3.61,0,0,1,276.75,459.87Z"/></g><path class="cls-5" d="M262.93,309.69h8.61a0,0,0,0,1,0,0v93.63a4.31,4.31,0,0,1-4.31,4.31h0a4.31,4.31,0,0,1-4.31-4.31V309.69a0,0,0,0,1,0,0Z"/><path class="cls-6" d="M231.1,278.39a16.08,16.08,0,0,1-6.52,9.3l-88,60a16.1,16.1,0,0,1-18.15-26.6l88-60a16.1,16.1,0,0,1,24.67,17.3Z"/><rect class="cls-16" x="57.02" y="226.96" width="131.7" height="182.93" rx="11.97" ry="11.97"/><rect class="cls-3" x="67.53" y="240.3" width="110.68" height="156.26" rx="4.86" ry="4.86"/><path class="cls-17" d="M98.73,224.13H147a5.67,5.67,0,0,1,5.67,5.67v12.29a0,0,0,0,1,0,0H93.06a0,0,0,0,1,0,0V229.8A5.67,5.67,0,0,1,98.73,224.13Z"/><path class="cls-17" d="M113.29,217h19.16a7.18,7.18,0,0,1,7.18,7.18v7.3a0,0,0,0,1,0,0H106.11a0,0,0,0,1,0,0v-7.3A7.18,7.18,0,0,1,113.29,217Z"/><path class="cls-17" d="M122.87,207a10,10,0,1,0,10,10A10,10,0,0,0,122.87,207Zm0,13.62a3.65,3.65,0,1,1,3.65-3.65A3.64,3.64,0,0,1,122.87,220.66Z"/><path class="cls-18" d="M152,244.85H93.73a2,2,0,0,1-2-2h0a2,2,0,0,1,2-2H152a2,2,0,0,1,2,2h0A2,2,0,0,1,152,244.85Z"/><path class="cls-19" d="M96.18,318.93H73.41V296.16H96.18Zm-21.55-1.22H95V297.38H74.63Z"/><path class="cls-19" d="M171.71,299.31H102.76a1.44,1.44,0,1,1,0-2.87h69a1.44,1.44,0,1,1,0,2.87Z"/><path class="cls-19" d="M141.54,305.84H102.76a1.44,1.44,0,0,1,0-2.88h38.78a1.44,1.44,0,0,1,0,2.88Z"/><path class="cls-19" d="M171.71,305.84h-25a1.44,1.44,0,0,1,0-2.88h25a1.44,1.44,0,0,1,0,2.88Z"/><path class="cls-19" d="M171.71,312.12H102.76a1.44,1.44,0,1,1,0-2.87h69a1.44,1.44,0,1,1,0,2.87Z"/><path class="cls-19" d="M126.52,318.65H102.76a1.44,1.44,0,0,1,0-2.88h23.76a1.44,1.44,0,1,1,0,2.88Z"/><path class="cls-19" d="M96.18,350.85H73.41V328.08H96.18Zm-21.55-1.23H95V329.3H74.63Z"/><path class="cls-19" d="M120.35,331.23H102.76a1.44,1.44,0,1,1,0-2.87h17.59a1.44,1.44,0,1,1,0,2.87Z"/><path class="cls-19" d="M171.71,331.23H125.38a1.44,1.44,0,0,1,0-2.87h46.33a1.44,1.44,0,1,1,0,2.87Z"/><path class="cls-19" d="M141.54,337.75H102.76a1.44,1.44,0,1,1,0-2.87h38.78a1.44,1.44,0,1,1,0,2.87Z"/><path class="cls-19" d="M171.71,337.75h-25a1.44,1.44,0,0,1,0-2.87h25a1.44,1.44,0,1,1,0,2.87Z"/><path class="cls-19" d="M171.71,344H102.76a1.44,1.44,0,1,1,0-2.87h69a1.44,1.44,0,1,1,0,2.87Z"/><g class="cls-12"><path class="cls-20" d="M115.86,219.51a2.15,2.15,0,0,1-2.15-2,9.54,9.54,0,0,1,2.05-6.81,10,10,0,0,1,7.15-3,2.16,2.16,0,0,1,0,4.31h0a5.74,5.74,0,0,0-3.86,1.54,5.41,5.41,0,0,0-1,3.74,2.16,2.16,0,0,1-2,2.26Z"/></g><g class="cls-12"><path class="cls-20" d="M96.13,239.52a1.81,1.81,0,0,1-1.8-1.81v-6.39a6.09,6.09,0,0,1,6.09-6.08h5.15a1.8,1.8,0,1,1,0,3.6h-5.15a2.49,2.49,0,0,0-2.48,2.48v6.39A1.81,1.81,0,0,1,96.13,239.52Z"/></g><g class="cls-12"><path class="cls-20" d="M146,228.78H111.49a1.81,1.81,0,0,1,0-3.61H146a1.81,1.81,0,1,1,0,3.61Z"/></g><g class="cls-12"><path class="cls-20" d="M62.63,358.26a1.81,1.81,0,0,1-1.8-1.81V240.29A9.27,9.27,0,0,1,70.09,231H79a1.8,1.8,0,1,1,0,3.6H70.09a5.66,5.66,0,0,0-5.65,5.66V356.45A1.81,1.81,0,0,1,62.63,358.26Z"/></g><g class="cls-12"><path class="cls-20" d="M150.16,405.28H73.35a12.54,12.54,0,0,1-12.52-12.53V362.52a1.81,1.81,0,0,1,3.61,0v30.23a8.93,8.93,0,0,0,8.91,8.92h76.81a1.81,1.81,0,1,1,0,3.61Z"/></g><path class="cls-21" d="M143.86,368.28c-7.09-5.95-37.5,4.8-28.5,12.76,2.36,2.1,6.4,1.92,9.34,1.93a51.07,51.07,0,0,0,13.08-1.68c6.36-1.68,13.16-5,14.77-11.9a1.8,1.8,0,0,0-3.27-1.38c-1.68,2.76-4.07,10.54,1.52,10.28,5.31-.25,9.3-7.32,11.57-11.25l-3.27-1.38a67.29,67.29,0,0,0-1,16.34c.14,2.29,3.72,2.31,3.57,0a63.52,63.52,0,0,1,.86-15.39c.35-1.9-2.2-3.23-3.27-1.37-1.34,2.32-5.69,10.59-9.33,9.3l1.25,1.24c-.71-2,.11-4.22,1.17-6l-3.27-1.38c-2.23,9.61-17.22,11.08-25.15,10.94-1,0-3.62.17-4.37-.29-.44-1-.88-2-1.33-3l1.43-1.09A29.71,29.71,0,0,1,127,371.7c3.22-1,11.34-3.39,14.32-.89,1.75,1.47,4.29-1.05,2.53-2.53Z"/><path class="cls-22" d="M331.25,195.73S344.9,190,346.64,169.9s5.5-42.07,11.14-49.72-9.33-2-15.11,3.79c-5.43-14.53-21.5-31.48-49.18-39-28-7.64-47.62-4-57.28-6.62-7.46-2-16.1-10-20.55-18.88a3,3,0,0,0-5.63.71c-4.06,16.08-2.36,35.5,12.26,46.58-8.84-4.47-13.54-8.42-16.38-11.78a5.06,5.06,0,0,0-8.74,1.51c-6.76,20-16.29,58.32,12.85,81.29C229.37,182,331.25,195.73,331.25,195.73Z"/><g class="cls-9"><path class="cls-23" d="M217.78,121.39a62.58,62.58,0,0,0-8.28,56l13-23L227,135.86Z"/></g><path class="cls-8" d="M252.73,258.91l10.93,1.82a55.73,55.73,0,0,0,64.09-45.88l6.15-37.13A55.74,55.74,0,0,0,288,113.63l-10.94-1.81A55.74,55.74,0,0,0,213,157.69l-6.15,37.14A55.73,55.73,0,0,0,252.73,258.91Z"/><path class="cls-22" d="M327.47,196h0a8.89,8.89,0,0,0,9.83-7.85l4.25-38a8.89,8.89,0,0,0-7.85-9.83h0a8.9,8.9,0,0,0-9.83,7.85l-4.25,38A8.89,8.89,0,0,0,327.47,196Z"/><path class="cls-22" d="M215.26,126.7c-2,14.47,22.18,29.69,53.94,34s59.1-3.91,61.07-18.37-22.18-29.69-53.94-34S217.23,112.24,215.26,126.7Z"/><path class="cls-8" d="M315.21,206.07a16.3,16.3,0,1,0,20.76-10A16.31,16.31,0,0,0,315.21,206.07Z"/><g class="cls-9"><path class="cls-10" d="M331,201a9.94,9.94,0,0,1,2.56.51,10.38,10.38,0,0,1-6.4,19.75Z"/></g><path class="cls-8" d="M191.18,188.55a16.29,16.29,0,1,0,20.4-10.71A16.29,16.29,0,0,0,191.18,188.55Z"/><g class="cls-9"><path class="cls-10" d="M209,182.41a10.05,10.05,0,0,0-2.59-.34,10.39,10.39,0,0,0-.24,20.77Z"/></g><path class="cls-24" d="M255.3,241.54a21.77,21.77,0,0,1-19-24.25l43.24,5.27A21.78,21.78,0,0,1,255.3,241.54Z"/><path class="cls-3" d="M236.72,224.38a21.48,21.48,0,0,1-.4-7.09l43.24,5.27a21.73,21.73,0,0,1-2.09,6.8Z"/><g class="cls-9"><path class="cls-25" d="M261.48,231.89a7.08,7.08,0,0,1,6.2,7.61,21,21,0,0,1-23.63-3.25,7.06,7.06,0,0,1,12.36-3A7.06,7.06,0,0,1,261.48,231.89Z"/></g><path class="cls-26" d="M281.42,194.84a5.23,5.23,0,1,0,6.32-3.85A5.23,5.23,0,0,0,281.42,194.84Z"/><path class="cls-26" d="M231.66,188.15A5.23,5.23,0,1,0,238,184.3,5.23,5.23,0,0,0,231.66,188.15Z"/><g class="cls-12"><ellipse class="cls-27" cx="293.06" cy="100.57" rx="11.98" ry="33.62" transform="translate(109.88 350.47) rotate(-72.7)"/></g><g class="cls-12"><path class="cls-27" d="M318.23,148,313.49,149c-3,.69-7.34,1.42-12.51,2.21-2.58.39-5.39.71-8.35,1.05s-6.09.46-9.31.64l-4.9.06-5-.16a77.89,77.89,0,0,1-19.9-3.71c-3.2-1.05-6.29-2.08-9.29-3.3s-5.78-2.53-8.35-3.94a67.51,67.51,0,0,1-7-4.35,43.85,43.85,0,0,1-5.34-4.49,22.6,22.6,0,0,1-3.38-4.18,14.74,14.74,0,0,1-1.45-3.17c-.16-.81-.24-1.24-.24-1.24s0,.44-.06,1.28a12,12,0,0,0,.78,3.59,24.09,24.09,0,0,0,2.76,5,32.71,32.71,0,0,0,4.9,5.61,62.28,62.28,0,0,0,15.41,10.29,94.94,94.94,0,0,0,9.7,4,84.67,84.67,0,0,0,10.44,2.84,85.29,85.29,0,0,0,10.82,1.09,94,94,0,0,0,10.44-.38c3.36-.32,6.58-.83,9.6-1.42s5.84-1.28,8.41-2A111.34,111.34,0,0,0,313.81,150C316.67,148.83,318.23,148,318.23,148Z"/></g><g class="cls-12"><path class="cls-27" d="M213.66,66.92a37.5,37.5,0,0,0,.05,6c.16,1.92.44,4.23.88,6.89a69.84,69.84,0,0,0,2.11,8.79c.55,1.57,1.12,3.21,1.7,4.9s1.47,3.35,2.23,5.11,1.82,3.44,2.76,5.22,2.2,3.43,3.33,5.19A80.71,80.71,0,0,0,235,119a82.83,82.83,0,0,0,10.19,8.63,58.17,58.17,0,0,0,5.55,3.7c2,1.15,4,2.2,6,3.14A75,75,0,0,0,269,138.75a143,143,0,0,0,22.17,3.94c6.51.73,12,.94,15.76,1.22s6,.23,6,.23-2.13-.52-5.85-1.3l-15.39-3.28c-6.33-1.42-13.72-3-21.29-5.47a90.26,90.26,0,0,1-11.29-4.5c-1.86-.91-3.64-1.88-5.39-2.92a54,54,0,0,1-5.22-3.58,77.37,77.37,0,0,1-9.67-7.94c-1.41-1.5-2.93-2.89-4.29-4.4s-2.63-3-3.85-4.59-2.29-3.18-3.4-4.72l-3-4.74c-1.76-3.18-3.32-6.25-4.6-9.18s-2.27-5.71-3.1-8.19-1.38-4.71-1.8-6.56C213.92,69.09,213.66,66.92,213.66,66.92Z"/></g><g class="cls-9"><path class="cls-10" d="M244.31,257.1s56.07,12.31,75.87-66.73L322,165l9.26,30.69-4.7,24.56a53.43,53.43,0,0,1-17.67,27.9A59.93,59.93,0,0,1,280,261l-.93.19a51.83,51.83,0,0,1-32.12-3.72Z"/></g><g class="cls-12"><path class="cls-27" d="M200.84,98.79a42.17,42.17,0,0,0-5.08,10.73c-.62,1.69-1.09,3.57-1.6,5.57a64,64,0,0,0-1.16,6.37,69.79,69.79,0,0,0-.47,14.09c.08,2.41.59,4.77.87,7.12s1.06,4.58,1.54,6.77a60.47,60.47,0,0,0,2.07,6.14,38.61,38.61,0,0,0,2.36,5.28,37.23,37.23,0,0,0,2.3,4.28l2.07,3.13c1.18,1.71,1.89,2.64,1.89,2.64s-.3-1.16-.9-3.13c-.31-1-.69-2.15-1.13-3.5s-.76-2.91-1.27-4.56-1-3.43-1.38-5.37-.92-3.92-1.27-6-.73-4.26-1-6.47-.62-4.44-.64-6.7a111.87,111.87,0,0,1-.21-13.28c.19-4.25.55-8.23,1-11.65C199.73,103.41,200.84,98.79,200.84,98.79Z"/></g><path class="cls-28" d="M221.82,180a1.93,1.93,0,0,1,.05-.37,8,8,0,0,1,.25-1,13.14,13.14,0,0,1,.59-1.46,12.13,12.13,0,0,1,1.07-1.72c.22-.3.47-.6.72-.92s.58-.58.89-.89a7.22,7.22,0,0,1,1-.86c.36-.28.75-.55,1.16-.81a12.68,12.68,0,0,1,2.74-1.25c.5-.15,1-.32,1.52-.43s1-.16,1.58-.22l.79-.08c.27,0,.54,0,.8,0,.53,0,1.06.07,1.58.12a18.91,18.91,0,0,1,2.92.76,23.32,23.32,0,0,1,2.45,1.25,13.63,13.63,0,0,1,1.89,1.52c.26.25.52.49.75.73a5.87,5.87,0,0,1,.6.76c.35.49.63.93.85,1.31a11.14,11.14,0,0,1,.62,1.22s-.54,0-1.38-.1c-.42,0-.91-.11-1.45-.2a16.43,16.43,0,0,0-1.76-.23l-1-.13a6.38,6.38,0,0,0-1-.13c-.68,0-1.35-.1-2-.18s-1.37,0-2,0c-.34,0-.67,0-1,0h-.51l-.5.07c-.34,0-.67.07-1,.09l-1,.17c-.68.05-1.33.29-2,.38s-1.34.31-2,.53l-1,.27-.91.3c-.61.17-1.15.4-1.68.55l-1.37.47Z"/><path class="cls-28" d="M300.74,184.2l-1.1-.79-1.17-.85c-.46-.3-.91-.67-1.45-1l-.78-.56c-.29-.17-.56-.35-.84-.54-.54-.39-1.17-.69-1.73-1.08s-1.18-.7-1.82-1c-.31-.14-.61-.31-.91-.46s-.64-.24-.95-.37l-.46-.22-.48-.14c-.33-.1-.64-.22-1-.34-.65-.2-1.32-.33-2-.57s-1.34-.24-2-.41a5.43,5.43,0,0,0-1-.17l-.95-.15a16.23,16.23,0,0,0-1.76-.3c-.54-.07-1-.15-1.44-.23-.83-.16-1.35-.31-1.35-.31a11.56,11.56,0,0,1,.95-1c.32-.3.72-.64,1.2-1a6.73,6.73,0,0,1,.78-.55l.94-.48a13.94,13.94,0,0,1,2.24-.9,23.56,23.56,0,0,1,2.72-.49,18.28,18.28,0,0,1,3,.13c.51.1,1,.21,1.54.34l.77.21.74.3L294,172c.46.26.89.57,1.32.86a13.59,13.59,0,0,1,2.26,2c.31.37.61.74.87,1.11a7.31,7.31,0,0,1,.74,1.13c.2.38.41.74.59,1.11s.3.73.42,1.08a11.82,11.82,0,0,1,.52,2,10.92,10.92,0,0,1,.14,1.57,8.89,8.89,0,0,1-.05,1A1.91,1.91,0,0,1,300.74,184.2Z"/><g class="cls-29"><path class="cls-30" d="M244.82,203.87c-.39,2.58-6.61,3.79-13.91,2.7s-12.9-4-12.51-6.63,6.6-3.79,13.9-2.71S245.2,201.29,244.82,203.87Z"/></g><g class="cls-29"><path class="cls-30" d="M297.89,211.77c-.38,2.58-6.61,3.79-13.91,2.7s-12.9-4.05-12.51-6.63,6.61-3.79,13.9-2.71S298.27,209.19,297.89,211.77Z"/></g><path class="cls-11" d="M357.64,409h0a5.18,5.18,0,0,1,6.87-2.55l13.67,6.29a5.17,5.17,0,0,1,2.54,6.87h0a5.18,5.18,0,0,1-6.87,2.55l-13.67-6.28A5.19,5.19,0,0,1,357.64,409Z"/><path class="cls-6" d="M369.39,367.66l-.29.15a16.09,16.09,0,0,1-21.58-7.24l-36-72.37a16.1,16.1,0,0,1,6.95-21.44l.29-.15a16.11,16.11,0,0,1,21.59,7.24l36,72.37A16.09,16.09,0,0,1,369.39,367.66Z"/><path class="cls-30" d="M255,389.6a74.87,74.87,0,0,1,3.05-15.8c.88-2.83,2-6.53,4.1-8.61a12.12,12.12,0,0,1,3.3-2.29,36.94,36.94,0,0,1,9.38-14.22,38,38,0,0,1,7.85-5.52c7.73-4.06,14.11-3.67,36.07-4h0c10.86,0,22.76.14,31.89,1.3a37.15,37.15,0,0,1,6.68,1.43,42.25,42.25,0,0,1,5.13,2,72.06,72.06,0,0,1,8.25,4.46c4.49,2.82,14,9.47,26.06,18.74,0,0,15.59,2.06,21,3.77,4,1.28,13.62,4.81,18,11.33a25.19,25.19,0,0,1,2.53,5.06c.38,1.1,1,3.07,1.27,8a81,81,0,0,1,0,9.67s0,0,0,0a1.75,1.75,0,0,1,1.33,1.49c.07,1.19,0,4.17,0,4.17s-.13.59-.36.67-6.16,1-7.42,1c-.94,0-6.82.34-9.84.51A18.27,18.27,0,1,0,388.42,405a14.08,14.08,0,0,0,1.75,6.81H300.65l-3-.15a13.92,13.92,0,0,0,1.68-6.66,18.27,18.27,0,1,0-36.53,0,18.07,18.07,0,0,0,.47,4.12c-6.13-1.86-7.5-2.23-8-6.73A91.53,91.53,0,0,1,255,389.6Z"/><path class="cls-1" d="M326.56,344.71a1.64,1.64,0,0,1,1.68-1.64c12.36.18,17.06.73,19.67,1.1A43.14,43.14,0,0,1,356.2,346a41.78,41.78,0,0,1,7.39,3.37c7.31,4,12.46,7.2,16.78,11.64,1.52,1.56,3,3.29,2.48,4.78a3.61,3.61,0,0,1-2.51,1.89,1.4,1.4,0,0,1-.5.06l-51.69-1.65a1.65,1.65,0,0,1-1.59-1.65Z"/><path class="cls-31" d="M414.21,370.26a37.89,37.89,0,0,1,14,4.32s6.73,3.67,9,8.86c.23.53.85,1.94.26,2.63-.31.36-.82.38-1.64.35a14.11,14.11,0,0,1-6.41-1.21,14.8,14.8,0,0,1-2.11-1.27c-3.48-2.47-3.6-4.11-5.76-5.81-3.78-3-7.27-1-9.19-4.05-.19-.31-1.21-1.93-.52-3S414,370.25,414.21,370.26Z"/><path class="cls-32" d="M426.88,379.23A5.75,5.75,0,0,1,429,375c1.78,1.09,6.29,4.17,8.16,8.21a5.8,5.8,0,0,1-10.23-4Z"/><path class="cls-33" d="M423.27,377.27a5.42,5.42,0,0,1-5.18-5.63,6,6,0,0,1,.09-.74,37.51,37.51,0,0,1,10,3.67A5.44,5.44,0,0,1,423.27,377.27Z"/><g class="cls-12"><path class="cls-15" d="M436.42,385.43a.65.65,0,0,1-.57-.33,29.56,29.56,0,0,0-8.35-8.94c-5.17-3.39-12.94-4.18-13-4.18a.67.67,0,0,1-.59-.72.65.65,0,0,1,.72-.59c.33,0,8.17.82,13.61,4.39a30.22,30.22,0,0,1,8.77,9.39.66.66,0,0,1-.24.9A.8.8,0,0,1,436.42,385.43Z"/></g><path class="cls-34" d="M255.1,412.75H439a4,4,0,0,0,4-4h0a4,4,0,0,0-4-4H255.1a4,4,0,0,0-4,4h0A4,4,0,0,0,255.1,412.75Z"/><path class="cls-35" d="M322.06,344.71a1.64,1.64,0,0,1,1.68-1.64c12.37.18,17.06.73,19.67,1.1A42.8,42.8,0,0,1,351.7,346a42.27,42.27,0,0,1,7.4,3.37c7.3,4,12.46,7.2,16.78,11.64,1.52,1.56,3,3.29,2.47,4.78a3.62,3.62,0,0,1-2.5,1.89,1.49,1.49,0,0,1-.51.06l-51.68-1.65a1.65,1.65,0,0,1-1.6-1.65Z"/><g class="cls-12"><path class="cls-26" d="M372.84,365.73c.94-.28,1.37-.65,1.44-.89s-.13-1.17-2-3.11c-3.86-4-8.49-6.87-15.67-10.84a38.14,38.14,0,0,0-6.81-3.11,40,40,0,0,0-7.65-1.68c-1.82-.25-6.09-.85-18.58-1a.15.15,0,0,0-.15.14V364a.15.15,0,0,0,.14.15l49.29,1.57Z"/></g><g class="cls-12"><path class="cls-36" d="M325.25,357.75h0a.9.9,0,0,0,.9-.9v-9.72a.9.9,0,0,0-.9-.9h0a.9.9,0,0,0-.9.9v9.72A.9.9,0,0,0,325.25,357.75Z"/></g><g class="cls-12"><path class="cls-36" d="M325.25,357.75h0a.9.9,0,0,0,.9-.9v-6.26a.9.9,0,0,0-.9-.9h0a.9.9,0,0,0-.9.9v6.26A.9.9,0,0,0,325.25,357.75Z"/></g><g class="cls-12"><path class="cls-36" d="M325.25,357.75h0a.9.9,0,0,0,.9-.9v-1.36a.9.9,0,0,0-.9-.9h0a.9.9,0,0,0-.9.9v1.36A.9.9,0,0,0,325.25,357.75Z"/></g><g class="cls-12"><path class="cls-37" d="M325.25,363.18h0a.9.9,0,0,0,.9-.9v-1.36a.91.91,0,0,0-.9-.9h0a.9.9,0,0,0-.9.9v1.36A.9.9,0,0,0,325.25,363.18Z"/></g><path class="cls-35" d="M274.3,357.3a30.08,30.08,0,0,1,10.81-10.69c6.29-3.64,11.47-3.29,29.33-3.6h1.18a1.76,1.76,0,0,1,1.67,1.84V364a1.76,1.76,0,0,1-1.73,1.85l-37.89-1.33C274.37,364.39,272.48,360.33,274.3,357.3Z"/><g class="cls-12"><path class="cls-26" d="M315.61,364.51a.33.33,0,0,0,.32-.35V345a.33.33,0,0,0-.31-.35h-1.18l-5.37.09c-13.47.2-18,.26-23.33,3.34a29.83,29.83,0,0,0-6.09,4.71,30.19,30.19,0,0,0-4.22,5.49,3.4,3.4,0,0,0-.16,3.19,2.84,2.84,0,0,0,2.45,1.69Z"/></g><g class="cls-12"><path class="cls-36" d="M313.3,357.75h0a.85.85,0,0,0,.81-.9v-9.72a.85.85,0,0,0-.81-.9h0a.86.86,0,0,0-.82.9v9.72A.86.86,0,0,0,313.3,357.75Z"/></g><g class="cls-12"><path class="cls-36" d="M313.3,357.75h0a.85.85,0,0,0,.81-.9v-6.26a.85.85,0,0,0-.81-.9h0a.86.86,0,0,0-.82.9v6.26A.86.86,0,0,0,313.3,357.75Z"/></g><g class="cls-12"><path class="cls-36" d="M313.3,357.75h0a.85.85,0,0,0,.81-.9v-1.36a.85.85,0,0,0-.81-.9h0a.86.86,0,0,0-.82.9v1.36A.86.86,0,0,0,313.3,357.75Z"/></g><g class="cls-12"><path class="cls-37" d="M313.3,363.18h0a.85.85,0,0,0,.81-.9v-1.36a.86.86,0,0,0-.81-.9h0a.86.86,0,0,0-.82.9v1.36A.86.86,0,0,0,313.3,363.18Z"/></g><g class="cls-12"><path class="cls-20" d="M306.41,408.78h75a1.52,1.52,0,0,0,1.52-1.52h0a1.52,1.52,0,0,0-1.52-1.52h-75a1.52,1.52,0,0,0-1.52,1.52h0A1.52,1.52,0,0,0,306.41,408.78Z"/></g><g class="cls-12"><path class="cls-20" d="M430.67,408.78h7.48a1.52,1.52,0,0,0,1.52-1.52h0a1.52,1.52,0,0,0-1.52-1.52h-7.48a1.52,1.52,0,0,0-1.52,1.52h0A1.52,1.52,0,0,0,430.67,408.78Z"/></g><g class="cls-12"><path class="cls-20" d="M255.19,408.78h3.45a1.52,1.52,0,0,0,1.52-1.52h0a1.52,1.52,0,0,0-1.52-1.52h-3.45a1.52,1.52,0,0,0-1.52,1.52h0A1.52,1.52,0,0,0,255.19,408.78Z"/></g><rect class="cls-38" x="414.92" y="388.7" width="26.27" height="8.82" rx="2.53" ry="2.53" transform="translate(856.11 786.23) rotate(180)"/><rect class="cls-38" x="251.43" y="388.7" width="21.87" height="9.21" rx="2.35" ry="2.35" transform="translate(524.72 786.62) rotate(180)"/><g class="cls-9"><path class="cls-10" d="M441.19,393.11V395a2.52,2.52,0,0,1-2.52,2.52H417.44a2.52,2.52,0,0,1-2.52-2.52v-1.89Z"/></g><rect class="cls-39" x="430.27" y="398.91" width="8.06" height="4.37" rx="2.18" ry="2.18" transform="translate(868.59 802.19) rotate(-180)"/><g class="cls-12"><rect class="cls-15" x="431.5" y="399.57" width="5.65" height="1.51" rx="0.75" ry="0.75" transform="translate(868.64 800.65) rotate(-180)"/></g><rect class="cls-39" x="252.89" y="390.14" width="8.06" height="4.37" rx="2.18" ry="2.18" transform="translate(513.83 784.65) rotate(-180)"/><g class="cls-12"><rect class="cls-15" x="254.11" y="390.8" width="5.65" height="1.51" rx="0.75" ry="0.75" transform="translate(513.87 783.1) rotate(180)"/></g><g class="cls-12"><path class="cls-40" d="M427,392.32H438.6A1.35,1.35,0,0,0,440,391h0a1.36,1.36,0,0,0-1.35-1.35H427a1.36,1.36,0,0,0-1.35,1.35h0A1.35,1.35,0,0,0,427,392.32Z"/></g><g class="cls-9"><path class="cls-41" d="M396.2,388.7l-11.05,16.12h-6.06a27.27,27.27,0,0,1,49.28-16.12Z"/></g><g class="cls-9"><path class="cls-41" d="M291.93,388.7,303,404.82H309a27.27,27.27,0,0,0-49.28-16.12Z"/></g><path class="cls-42" d="M388.46,404.82a17.91,17.91,0,1,0,17.9-17.92A17.9,17.9,0,0,0,388.46,404.82Z"/><g class="cls-12"><path class="cls-43" d="M406,420.54a1.19,1.19,0,0,0,1.2-1.13,1.21,1.21,0,0,0-1.14-1.26,13.81,13.81,0,0,1-9.9-4.86,1.18,1.18,0,0,0-1.68-.14,1.21,1.21,0,0,0-.14,1.69,16.38,16.38,0,0,0,11.6,5.7Z"/></g><g class="cls-12"><path class="cls-44" d="M394.86,404.82a11.51,11.51,0,1,0,11.5-11.51A11.51,11.51,0,0,0,394.86,404.82Z"/><path class="cls-45" d="M406.36,416.59a11.78,11.78,0,1,1,11.78-11.77A11.78,11.78,0,0,1,406.36,416.59Zm0-23a11.24,11.24,0,1,0,11.24,11.24A11.25,11.25,0,0,0,406.36,393.58Z"/></g><path class="cls-46" d="M397.81,404.82a8.56,8.56,0,1,0,8.55-8.56A8.56,8.56,0,0,0,397.81,404.82Z"/><path class="cls-47" d="M399.47,404.82a6.9,6.9,0,1,0,6.89-6.9A6.89,6.89,0,0,0,399.47,404.82Z"/><g class="cls-9"><path class="cls-47" d="M401.85,404.82a4.52,4.52,0,1,0,4.51-4.52A4.51,4.51,0,0,0,401.85,404.82Z"/></g><path class="cls-48" d="M389.78,415a2.64,2.64,0,0,1-2.36-1.45,21.2,21.2,0,1,1,38.2-.65,2.63,2.63,0,1,1-4.78-2.21A15.74,15.74,0,0,0,422.3,404a15.94,15.94,0,1,0-30.18,7.17,2.62,2.62,0,0,1-2.34,3.81Z"/><path class="cls-49" d="M424.93,405.12a1.1,1.1,0,0,1-1.1-1.1,17.42,17.42,0,0,0-17.47-17.47,1.1,1.1,0,0,1,0-2.2A19.68,19.68,0,0,1,426,404,1.1,1.1,0,0,1,424.93,405.12Z"/><path class="cls-49" d="M387.8,405.12a1.1,1.1,0,0,1-1.1-1.1,19.28,19.28,0,0,1,.46-4.22,19.61,19.61,0,0,1,7.32-11.44,1.09,1.09,0,1,1,1.32,1.74A17.48,17.48,0,0,0,388.89,404,1.09,1.09,0,0,1,387.8,405.12Z"/><path class="cls-42" d="M264,404.82a17.91,17.91,0,1,0,17.91-17.92A17.91,17.91,0,0,0,264,404.82Z"/><g class="cls-12"><path class="cls-43" d="M281.59,420.54a1.2,1.2,0,0,0,1.2-1.13,1.21,1.21,0,0,0-1.14-1.26,13.81,13.81,0,0,1-9.9-4.86,1.18,1.18,0,0,0-1.68-.14,1.19,1.19,0,0,0-.14,1.69,16.37,16.37,0,0,0,11.6,5.7Z"/></g><g class="cls-12"><path class="cls-44" d="M270.44,404.82a11.51,11.51,0,1,0,11.5-11.51A11.51,11.51,0,0,0,270.44,404.82Z"/><path class="cls-45" d="M281.94,416.59a11.78,11.78,0,1,1,11.77-11.77A11.78,11.78,0,0,1,281.94,416.59Zm0-23a11.24,11.24,0,1,0,11.24,11.24A11.25,11.25,0,0,0,281.94,393.58Z"/></g><path class="cls-46" d="M273.39,404.82a8.56,8.56,0,1,0,8.55-8.56A8.56,8.56,0,0,0,273.39,404.82Z"/><path class="cls-47" d="M275,404.82a6.9,6.9,0,1,0,6.9-6.9A6.9,6.9,0,0,0,275,404.82Z"/><g class="cls-9"><path class="cls-47" d="M277.43,404.82a4.51,4.51,0,1,0,4.51-4.52A4.51,4.51,0,0,0,277.43,404.82Z"/></g><path class="cls-48" d="M265.35,415a2.63,2.63,0,0,1-2.35-1.45,20.92,20.92,0,0,1-2.25-9.53,21.2,21.2,0,1,1,40.45,8.88,2.63,2.63,0,1,1-4.78-2.21,15.74,15.74,0,0,0,1.46-6.67,15.94,15.94,0,1,0-30.18,7.17,2.63,2.63,0,0,1-1.16,3.53A2.66,2.66,0,0,1,265.35,415Z"/><path class="cls-49" d="M300.51,405.12a1.1,1.1,0,0,1-1.1-1.1,17.42,17.42,0,0,0-17.47-17.47,1.1,1.1,0,0,1,0-2.2A19.68,19.68,0,0,1,301.61,404,1.1,1.1,0,0,1,300.51,405.12Z"/><path class="cls-49" d="M263.38,405.12a1.1,1.1,0,0,1-1.1-1.1,19.28,19.28,0,0,1,.46-4.22,19.65,19.65,0,0,1,7.31-11.44,1.1,1.1,0,1,1,1.33,1.74A17.48,17.48,0,0,0,264.47,404,1.09,1.09,0,0,1,263.38,405.12Z"/><g class="cls-9"><path class="cls-10" d="M381.61,378.23a28.89,28.89,0,0,0-11.82,19.31,6.8,6.8,0,0,1-6.7,5.71l-33.5-.18a7.2,7.2,0,0,1-7.08-6.12c-.65-4.22-1.21-11.08-1-21.84a5.34,5.34,0,0,1,5.38-5.23c20.08.13,43.22.56,52.42.74a4.17,4.17,0,0,1,4.09,4.17h0A4.19,4.19,0,0,1,381.61,378.23Z"/></g><path class="cls-50" d="M379.09,406.81h-.22a2,2,0,0,1-1.77-2.2c1.1-10.14,4.85-17.82,11.15-22.81,9.4-7.45,21-6.11,21.45-6.05a2,2,0,0,1,1.73,2.22,2,2,0,0,1-2.22,1.74c-.16,0-10.47-1.16-18.51,5.24C385.28,389.25,382,396,381.07,405A2,2,0,0,1,379.09,406.81Z"/><path class="cls-50" d="M309,406.81a2,2,0,0,1-2-1.78c-1-9-4.21-15.78-9.63-20.09-8.06-6.41-18.41-5.26-18.51-5.24a2,2,0,0,1-.49-4c.49-.06,12.05-1.4,21.45,6.05,6.3,5,10.05,12.67,11.14,22.81a2,2,0,0,1-1.77,2.2Z"/><path class="cls-39" d="M255.68,368.59h2.14a3.84,3.84,0,0,1,3.84,3.84v4.21a3.84,3.84,0,0,1-3.84,3.84h-2.14a2.25,2.25,0,0,1-2.25-2.25v-7.4A2.25,2.25,0,0,1,255.68,368.59Z" transform="translate(515.09 749.07) rotate(-180)"/><g class="cls-12"><path class="cls-51" d="M255.31,378.17h0a1.27,1.27,0,0,0,1.27-1.27v-4.73a1.27,1.27,0,0,0-1.27-1.27h0a1.27,1.27,0,0,0-1.27,1.27v4.73A1.27,1.27,0,0,0,255.31,378.17Z"/></g><path class="cls-50" d="M346.22,403.35h0l-16.62-.08a7.84,7.84,0,0,1-7.81-6.54,123.8,123.8,0,0,1-1-21.26,6,6,0,0,1,6.08-5.79h0a.74.74,0,0,1,0,1.47h0a4.56,4.56,0,0,0-4.61,4.35,121.82,121.82,0,0,0,1,21,6.39,6.39,0,0,0,6.37,5.3l16.62.08a.72.72,0,0,1,.73.74A.73.73,0,0,1,346.22,403.35Z"/><rect class="cls-52" x="324.81" y="372.8" width="10.69" height="3.74" rx="1.64" ry="1.64" transform="translate(660.31 749.34) rotate(180)"/><g class="cls-9"><path class="cls-10" d="M335.5,374.44v.46a1.65,1.65,0,0,1-1.64,1.64h-7.41a1.64,1.64,0,0,1-1.64-1.64v-.46a1.23,1.23,0,0,1,0-.19h10.65A1.23,1.23,0,0,1,335.5,374.44Z"/></g><path class="cls-50" d="M314.79,403.49H369.6a1.43,1.43,0,0,0,1.43-1.43h0a1.42,1.42,0,0,0-1.43-1.42H314.79a1.41,1.41,0,0,0-1.42,1.42h0A1.42,1.42,0,0,0,314.79,403.49Z"/><path class="cls-35" d="M396.76,367.1h-6.59a9.69,9.69,0,0,1-7.29-3.33c-3.7-4.24-11.57-11.75-24.83-17.7a.73.73,0,0,1,.3-1.39l5.79,0S378.08,351.51,396.76,367.1Z"/><g class="cls-9"><path class="cls-10" d="M276.11,372.34h40a1.16,1.16,0,0,0,1.16-1.16h0a1.16,1.16,0,0,0-1.16-1.16h-40a1.16,1.16,0,0,0-1.16,1.16h0A1.16,1.16,0,0,0,276.11,372.34Z"/></g><path class="cls-30" d="M338.31,340.69H345a2.12,2.12,0,0,0,2.12-2.12h0a2.12,2.12,0,0,0-2.12-2.12h-6.65a2.12,2.12,0,0,0-2.12,2.12h0A2.12,2.12,0,0,0,338.31,340.69Z"/><g class="cls-12"><path class="cls-53" d="M338.31,336.45H345a2.12,2.12,0,0,1,2.12,2.12H336.19A2.12,2.12,0,0,1,338.31,336.45Z"/></g><path class="cls-54" d="M347.08,339.07H336.19a.5.5,0,0,1-.49-.5.49.49,0,0,1,.49-.5h10.89a.5.5,0,0,1,.5.5A.51.51,0,0,1,347.08,339.07Z"/><path class="cls-30" d="M302,340.69h6.65a2.12,2.12,0,0,0,2.12-2.12h0a2.12,2.12,0,0,0-2.12-2.12H302a2.12,2.12,0,0,0-2.12,2.12h0A2.12,2.12,0,0,0,302,340.69Z"/><g class="cls-12"><path class="cls-53" d="M302,336.45h6.65a2.12,2.12,0,0,1,2.12,2.12H299.85A2.12,2.12,0,0,1,302,336.45Z"/></g><path class="cls-54" d="M310.74,339.07H299.85a.51.51,0,0,1-.5-.5.5.5,0,0,1,.5-.5h10.89a.49.49,0,0,1,.49.5A.5.5,0,0,1,310.74,339.07Z"/><rect class="cls-30" x="275.33" y="340.73" width="23.76" height="3.66" rx="1.79" ry="1.79" transform="translate(611.76 649.96) rotate(173.42)"/><path class="cls-35" d="M279,345.33h0a1.51,1.51,0,0,1,1.1,2.64c-3.32,2.95-8.06,7.9-10.31,13.66a2.76,2.76,0,0,1-3.5,1.59l-.91-.32A36,36,0,0,1,279,345.33Z"/><path class="cls-55" d="M353.26,418.28V405.19a5.33,5.33,0,0,1,5.33-5.33h0a5.33,5.33,0,0,1,5.32,5.33v13.09a5.33,5.33,0,0,1-5.32,5.33h0A5.33,5.33,0,0,1,353.26,418.28Z"/><path class="cls-56" d="M353.22,418V405.3a5.37,5.37,0,1,1,10.73,0,.29.29,0,0,1-.58,0,4.79,4.79,0,1,0-9.57,0V418a.29.29,0,1,1-.58,0Z"/><path class="cls-57" d="M358.59,401h.33a3.14,3.14,0,0,1,3.14,3.14v3a0,0,0,0,1,0,0h-6.6a0,0,0,0,1,0,0v-3A3.14,3.14,0,0,1,358.59,401Z" transform="translate(-1.52 1.35) rotate(-0.22)"/><path class="cls-58" d="M355.47,407.11l6.6,0S358.67,404.47,355.47,407.11Z"/><path class="cls-59" d="M360.87,420.9l-4.57,0a.49.49,0,0,1-.49-.49h0a.51.51,0,0,1,.49-.5h4.57a.49.49,0,0,1,.49.49h0A.49.49,0,0,1,360.87,420.9Z"/><path class="cls-59" d="M360.26,419.16l-3.36,0a.49.49,0,0,1-.49-.49h0a.49.49,0,0,1,.49-.49l3.36,0a.49.49,0,0,1,.49.49h0A.49.49,0,0,1,360.26,419.16Z"/><rect class="cls-55" x="335.84" y="408.23" width="23.74" height="10.65" rx="5.33" ry="5.33" transform="translate(761.26 65.85) rotate(90)"/><path class="cls-57" d="M347.55,403h.33a3.09,3.09,0,0,1,3.09,3.09V409a0,0,0,0,1,0,0h-6.51a0,0,0,0,1,0,0v-2.95A3.09,3.09,0,0,1,347.55,403Z" transform="translate(-1.52 1.31) rotate(-0.21)"/><path class="cls-58" d="M344.47,409l6.51,0S347.63,406.42,344.47,409Z"/><path class="cls-56" d="M342.34,419.72V407a5.37,5.37,0,1,1,10.74,0,.3.3,0,0,1-.59,0,4.78,4.78,0,1,0-9.56,0v12.71a.3.3,0,0,1-.59,0Z"/><path class="cls-59" d="M350,423.13l-4.56,0a.51.51,0,0,1-.5-.49h0a.49.49,0,0,1,.49-.49l4.57,0a.49.49,0,0,1,.49.49h0A.48.48,0,0,1,350,423.13Z"/><path class="cls-59" d="M349.38,421.4H346a.49.49,0,0,1-.49-.49h0a.49.49,0,0,1,.49-.49h3.36a.48.48,0,0,1,.49.49h0A.49.49,0,0,1,349.38,421.4Z"/><path class="cls-55" d="M331.51,420.34V407.25a5.32,5.32,0,0,1,5.32-5.33h0a5.32,5.32,0,0,1,5.33,5.33v13.09a5.32,5.32,0,0,1-5.33,5.32h0A5.32,5.32,0,0,1,331.51,420.34Z"/><path class="cls-57" d="M336.68,403.17h.3a2.87,2.87,0,0,1,2.87,2.87v2.74a0,0,0,0,1,0,0h-6a0,0,0,0,1,0,0V406a2.87,2.87,0,0,1,2.87-2.87Z" transform="translate(-1.52 1.27) rotate(-0.21)"/><path class="cls-58" d="M333.81,408.79l6.05,0S336.75,406.37,333.81,408.79Z"/><path class="cls-56" d="M331.47,420V407.27a5.37,5.37,0,1,1,10.73,0,.29.29,0,1,1-.58,0,4.79,4.79,0,1,0-9.57,0V420a.29.29,0,1,1-.58,0Z"/><path class="cls-59" d="M339.12,423.61l-4.57,0a.49.49,0,0,1-.49-.49h0a.49.49,0,0,1,.49-.49l4.57,0a.49.49,0,0,1,.49.49h0A.49.49,0,0,1,339.12,423.61Z"/><path class="cls-59" d="M338.51,421.88h-3.36a.49.49,0,0,1-.49-.49h0a.48.48,0,0,1,.49-.49h3.35a.49.49,0,0,1,.5.49h0A.49.49,0,0,1,338.51,421.88Z"/><path class="cls-55" d="M322.54,417.15V406.46a4.4,4.4,0,0,1,4.4-4.4h0a4.4,4.4,0,0,1,4.4,4.4v10.69a4.4,4.4,0,0,1-4.4,4.4h0A4.4,4.4,0,0,1,322.54,417.15Z"/><path class="cls-57" d="M326.81,402.89h.26a2.45,2.45,0,0,1,2.45,2.45v2.33a0,0,0,0,1,0,0h-5.16a0,0,0,0,1,0,0v-2.33A2.45,2.45,0,0,1,326.81,402.89Z" transform="translate(-1.52 1.23) rotate(-0.22)"/><path class="cls-58" d="M324.37,407.68l5.15,0S326.87,405.62,324.37,407.68Z"/><path class="cls-56" d="M322.54,417.65v-11a4.41,4.41,0,1,1,8.8,0,.25.25,0,0,1-.49,0,3.92,3.92,0,1,0-7.82,0v11a.25.25,0,1,1-.49,0Z"/><path class="cls-59" d="M328.58,420.12h-3.27a.35.35,0,0,1-.35-.35h0a.34.34,0,0,1,.35-.35l3.27,0a.35.35,0,0,1,.35.35h0A.35.35,0,0,1,328.58,420.12Z"/><path class="cls-59" d="M328.14,418.88h-2.4a.34.34,0,0,1-.35-.35h0a.35.35,0,0,1,.35-.35h2.4a.35.35,0,0,1,.35.35h0A.35.35,0,0,1,328.14,418.88Z"/><path class="cls-55" d="M93,220.69v13.09a5.33,5.33,0,0,0,5.32,5.33h0a5.33,5.33,0,0,0,5.33-5.33V220.69a5.33,5.33,0,0,0-5.33-5.33h0A5.33,5.33,0,0,0,93,220.69Z"/><path class="cls-56" d="M92.93,221v12.71a5.37,5.37,0,1,0,10.73,0,.29.29,0,0,0-.58,0,4.79,4.79,0,1,1-9.57,0V221a.29.29,0,0,0-.58,0Z"/><path class="cls-57" d="M95.16,231.87h6.6a0,0,0,0,1,0,0v3A3.14,3.14,0,0,1,98.63,238H98.3a3.14,3.14,0,0,1-3.14-3.14v-3A0,0,0,0,1,95.16,231.87Z" transform="translate(0.88 -0.37) rotate(0.22)"/><path class="cls-58" d="M95.18,231.86l6.6,0S98.38,234.5,95.18,231.86Z"/><path class="cls-59" d="M100.58,218.07l-4.57,0a.49.49,0,0,0-.49.49h0A.49.49,0,0,0,96,219l4.57,0a.49.49,0,0,0,.49-.49h0A.49.49,0,0,0,100.58,218.07Z"/><path class="cls-59" d="M100,219.8H96.61a.49.49,0,0,0-.49.49h0a.48.48,0,0,0,.49.49H100a.48.48,0,0,0,.49-.48h0A.49.49,0,0,0,100,219.8Z"/><path class="cls-55" d="M82.09,218.87V232a5.32,5.32,0,0,0,5.33,5.32h0A5.32,5.32,0,0,0,92.74,232V218.87a5.33,5.33,0,0,0-5.32-5.33h0A5.33,5.33,0,0,0,82.09,218.87Z"/><path class="cls-57" d="M84.16,230h6.51a0,0,0,0,1,0,0v2.95A3.09,3.09,0,0,1,87.59,236h-.33a3.09,3.09,0,0,1-3.09-3.09V230a0,0,0,0,1,0,0Z" transform="translate(0.87 -0.33) rotate(0.21)"/><path class="cls-58" d="M84.18,230l6.51,0S87.34,232.55,84.18,230Z"/><path class="cls-56" d="M82.05,219.25V232a5.37,5.37,0,1,0,10.73,0,.29.29,0,0,0-.58,0,4.79,4.79,0,1,1-9.57,0V219.25a.29.29,0,0,0-.58,0Z"/><path class="cls-59" d="M89.7,215.84l-4.57,0a.49.49,0,0,0-.49.49h0a.49.49,0,0,0,.49.49l4.57,0a.49.49,0,0,0,.49-.49h0A.49.49,0,0,0,89.7,215.84Z"/><path class="cls-59" d="M89.09,217.57H85.73a.48.48,0,0,0-.49.49h0a.49.49,0,0,0,.49.49h3.36a.49.49,0,0,0,.49-.49h0A.49.49,0,0,0,89.09,217.57Z"/><path class="cls-55" d="M71.21,218.63v13.09a5.33,5.33,0,0,0,5.33,5.33h0a5.33,5.33,0,0,0,5.33-5.33V218.63a5.33,5.33,0,0,0-5.33-5.33h0A5.33,5.33,0,0,0,71.21,218.63Z"/><path class="cls-57" d="M73.51,230.19h6a0,0,0,0,1,0,0v2.74a2.87,2.87,0,0,1-2.87,2.87h-.3a2.87,2.87,0,0,1-2.87-2.87v-2.74A0,0,0,0,1,73.51,230.19Z" transform="translate(0.87 -0.29) rotate(0.21)"/><path class="cls-58" d="M73.52,230.18l6,0S76.46,232.6,73.52,230.18Z"/><path class="cls-56" d="M71.17,219v12.71a5.37,5.37,0,1,0,10.74,0,.29.29,0,0,0-.29-.29.3.3,0,0,0-.3.29,4.78,4.78,0,1,1-9.56,0V219a.29.29,0,0,0-.29-.29A.3.3,0,0,0,71.17,219Z"/><path class="cls-59" d="M78.83,215.36l-4.57,0a.49.49,0,0,0-.49.49h0a.48.48,0,0,0,.49.49l4.56,0a.51.51,0,0,0,.5-.49h0A.49.49,0,0,0,78.83,215.36Z"/><path class="cls-59" d="M78.22,217.09H74.86a.5.5,0,0,0-.5.49h0a.49.49,0,0,0,.49.49h3.36a.51.51,0,0,0,.5-.49h0A.49.49,0,0,0,78.22,217.09Z"/><path class="cls-55" d="M62.25,221.81v10.7a4.4,4.4,0,0,0,4.4,4.4h0a4.4,4.4,0,0,0,4.4-4.4v-10.7a4.4,4.4,0,0,0-4.4-4.39h0A4.4,4.4,0,0,0,62.25,221.81Z"/><path class="cls-57" d="M64.07,231.3h5.16a0,0,0,0,1,0,0v2.33a2.45,2.45,0,0,1-2.45,2.45h-.26a2.45,2.45,0,0,1-2.45-2.45V231.3A0,0,0,0,1,64.07,231.3Z" transform="translate(0.88 -0.25) rotate(0.22)"/><path class="cls-58" d="M64.08,231.29l5.15,0S66.58,233.35,64.08,231.29Z"/><path class="cls-56" d="M62.25,221.32v11a4.41,4.41,0,1,0,8.8,0,.25.25,0,1,0-.49,0,3.92,3.92,0,1,1-7.82,0v-11a.25.25,0,1,0-.49,0Z"/><path class="cls-59" d="M68.29,218.85H65a.35.35,0,0,0-.35.35h0a.35.35,0,0,0,.35.35h3.27a.35.35,0,0,0,.35-.35h0A.35.35,0,0,0,68.29,218.85Z"/><path class="cls-59" d="M67.85,220.09h-2.4a.36.36,0,0,0-.36.35h0a.36.36,0,0,0,.35.36h2.41a.34.34,0,0,0,.35-.35h0A.35.35,0,0,0,67.85,220.09Z"/></g><text class="cls-60" transform="translate(75 268.22)">C<tspan class="cls-61" x="14" y="0">O</tspan><tspan x="28.22" y="0">VERED</tspan></text></g></g></svg>